<svg width="233" height="233" viewBox="0 0 233 233" fill="none" xmlns="http://www.w3.org/2000/svg">
<path d="M49.9438 94.9456H49.5199C48.0182 102.001 46.308 110.335 44.5979 116.967L43.4698 121.78H56.2022L55.0741 116.967C53.364 110.357 51.6539 101.915 49.9438 94.9456Z" fill="url(#paint0_linear_6_3790)"/>
<path d="M175.076 0.107912H58.4728C43.1823 0.109817 28.5187 6.1842 17.7067 16.9952C6.8947 27.8063 0.819776 42.4686 0.817871 57.7577V174.365C0.817871 189.655 6.89195 204.32 17.7041 215.132C28.5163 225.945 43.1811 232.02 58.4728 232.022H175.09C190.383 232.022 205.05 225.948 215.863 215.135C226.677 204.322 232.752 189.657 232.752 174.365V57.7577C232.751 50.1855 231.259 42.6876 228.36 35.6922C225.461 28.6968 221.212 22.3411 215.856 16.9877C210.5 11.6343 204.142 7.38828 197.145 4.49204C190.148 1.59579 182.649 0.106025 175.076 0.107912ZM62.9852 150.814L59.529 136.056H40.1287L36.6726 150.814H17.8542L39.0724 81.2947H61.3469L82.5148 150.792L62.9852 150.814ZM155.575 150.814H138.898V130.28C138.898 123.224 140.392 112.426 141.247 105.478H140.824L135.075 122.154L126.525 145.145H116.674L108.116 122.154L102.555 105.478H102.131C102.986 112.426 104.48 123.224 104.48 130.28V150.814H88.0043V81.2947H107.678L118.161 109.732C119.447 113.583 120.511 117.858 121.797 121.946H122.221C123.507 117.879 124.578 113.604 125.857 109.732L135.916 81.2947H155.589L155.575 150.814ZM215.666 150.814H170.966V81.2947H189.36V135.395H215.666V150.814Z" fill="url(#paint1_linear_6_3790)"/>
<defs>
<linearGradient id="paint0_linear_6_3790" x1="49.836" y1="-20.0383" x2="49.836" y2="438.769" gradientUnits="userSpaceOnUse">
<stop stop-color="#1680BF"/>
<stop offset="0.51" stop-color="#1E5C9B"/>
<stop offset="1" stop-color="#1A4484"/>
</linearGradient>
<linearGradient id="paint1_linear_6_3790" x1="116.767" y1="-20.0379" x2="116.767" y2="438.768" gradientUnits="userSpaceOnUse">
<stop stop-color="#1680BF"/>
<stop offset="0.51" stop-color="#1E5C9B"/>
<stop offset="1" stop-color="#1A4484"/>
</linearGradient>
</defs>
</svg>
