<svg width="73" height="73" viewBox="0 0 73 73" fill="none" xmlns="http://www.w3.org/2000/svg">
<path d="M35.31 0.172119H37.1351C38.9027 0.409213 40.6702 0.581646 42.4235 0.890587C48.8973 2.02372 54.9362 4.91088 59.8829 9.23768C64.8296 13.5645 68.4945 19.1651 70.4788 25.4301C72.463 31.6951 72.6906 38.3844 71.1366 44.7697C69.5827 51.1551 66.3068 56.9918 61.6655 61.6447C57.0243 66.2976 51.1955 69.5882 44.8136 71.1586C38.4318 72.7289 31.7414 72.5187 25.4708 70.5509C19.2001 68.583 13.5894 64.933 9.24943 59.998C4.90945 55.0629 2.00647 49.032 0.85647 42.5617C0.583428 41.0026 0.38224 39.422 0.137939 37.8486V34.6586C0.38224 33.0061 0.597799 31.3608 0.85647 29.7155C3.22762 15.3461 15.4642 3.22563 29.8779 0.912162C31.703 0.610405 33.5065 0.409213 35.31 0.172119ZM22.7645 50.666C24.2806 50.666 25.8038 50.666 27.3271 50.666C28.3978 50.7301 29.4638 50.4791 30.3935 49.9441C31.3231 49.4091 32.0756 48.6136 32.558 47.6557C36.0357 41.5056 39.5206 35.3555 43.0126 29.2054C43.5577 28.328 43.8423 27.3139 43.8334 26.2811C43.8245 25.2483 43.5224 24.2393 42.9623 23.3715C41.8127 21.4029 40.699 19.4127 39.5637 17.4297C39.0751 16.5747 38.6009 15.7054 38.0764 14.872C36.9698 13.1046 35.6046 13.119 34.4837 14.872C34.2825 15.1881 34.0957 15.5258 33.9089 15.8563L28.7283 25.0024C24.5368 32.3739 20.355 39.7454 16.1827 47.1168C14.8606 49.4519 15.5504 50.6445 18.209 50.666H22.7645ZM48.6747 50.666C50.7656 50.666 52.8637 50.666 54.9546 50.666C57.0456 50.666 57.8287 49.3584 56.7941 47.5694C54.7151 43.9387 52.6002 40.3297 50.4494 36.7421C49.3716 34.946 47.9489 34.9819 46.8568 36.8068C44.7347 40.3656 42.6486 43.9579 40.5984 47.5838C39.5781 49.3799 40.3397 50.6661 42.3947 50.702C44.4497 50.7379 46.5838 50.6588 48.6747 50.6588V50.666Z" fill="url(#paint0_linear_6_3076)"/>
<defs>
<linearGradient id="paint0_linear_6_3076" x1="55.2133" y1="70.1724" x2="-8.28909" y2="-43.3143" gradientUnits="userSpaceOnUse">
<stop stop-color="#1680BF"/>
<stop offset="0.51" stop-color="#1E5C9B"/>
<stop offset="1" stop-color="#1A4484"/>
</linearGradient>
</defs>
</svg>
