<svg width="266" height="169" viewBox="0 0 266 169" fill="none" xmlns="http://www.w3.org/2000/svg">
<path d="M74.6329 149.711C64.7613 149.7 54.99 147.73 45.8849 143.917C36.7798 140.103 28.5217 134.521 21.589 127.494C14.6563 120.467 9.18661 112.134 5.49669 102.979C1.80677 93.8236 -0.0300577 84.0275 0.0925491 74.1575C0.35122 33.0324 34.079 0.0834623 75.682 0.334926C116.308 0.57202 149.604 34.2753 149.511 75.0555C149.41 116.36 115.754 149.912 74.6329 149.711ZM80.4171 113.335C84.7929 111.331 88.9173 109.973 92.4669 107.717C105.113 99.6487 106.069 79.6178 91.7483 71.5709C88.479 69.7388 84.9295 68.4241 81.5308 66.8219C77.5717 64.9467 73.3899 63.3946 69.7541 61.0093C65.4429 58.1857 66.1183 52.6752 70.9541 50.8862C73.7933 49.8431 76.8344 49.4668 79.8423 49.7868C84.9582 50.4118 89.9735 51.8347 95.3482 52.9914C96.0667 50.1176 96.6703 46.6903 97.863 43.4931C99.0558 40.296 97.9421 38.8807 94.9889 38.2341L80.8267 35.1732V25.1649H68.705V36.0212C64.7891 37.7742 61.1389 38.9382 57.9846 40.8996C45.051 48.9608 44.6702 66.4912 57.4026 74.8686C61.2826 77.4191 65.8525 78.9208 70.1134 80.8966C73.239 82.3335 76.4795 83.5694 79.4543 85.2649C80.7845 85.9443 81.8558 87.0401 82.5045 88.3854C83.1532 89.7308 83.3437 91.2514 83.0469 92.7152C82.508 95.9195 80.1728 97.7446 77.2987 98.2044C73.706 98.772 69.9481 99.1743 66.4345 98.578C61.2611 97.7086 56.2529 95.8911 50.9861 94.4254C50.5262 96.1425 49.9873 98.1543 49.4556 100.173C47.0916 109.132 47.0701 109.219 56.1308 111.518C60.0396 112.509 64.0346 113.034 68.3458 113.831V124.773H80.453L80.4171 113.335Z" fill="url(#paint0_linear_6_3513)"/>
<path d="M105.458 1.02441H265.281V149.029H239.349V138.597H254.539V11.5713H250.651C209.144 11.5713 167.64 11.5476 126.137 11.4997C124.108 11.375 122.138 10.7688 120.389 9.73197C115.381 6.97306 110.495 3.97732 105.458 1.02441Z" fill="url(#paint1_linear_6_3513)"/>
<path d="M210.658 88.8496C213.417 89.9345 215.925 88.9001 218.562 87.1829C221.048 85.5664 223.742 86.2561 225.531 88.6199C226.231 89.5903 227.141 90.3895 228.194 90.957C229.247 91.5245 230.415 91.8456 231.61 91.8961C235.038 92.2122 236.467 94.3748 236.913 97.7947C237.224 99.9831 238.065 102.062 239.363 103.851C241.411 106.632 241.461 109.182 239.564 112.135C238.427 114.011 237.768 116.138 237.646 118.329C237.466 121.389 236.029 123.961 232.911 124.428C231.669 124.549 230.471 124.95 229.407 125.601C228.343 126.252 227.441 127.136 226.767 128.186C226.394 128.796 225.899 129.324 225.313 129.736C224.728 130.148 224.064 130.435 223.363 130.581C222.662 130.726 221.939 130.726 221.238 130.581C220.537 130.436 219.873 130.149 219.287 129.738C218.302 129.058 217.175 128.611 215.991 128.43C214.807 128.25 213.598 128.341 212.454 128.696C209.242 129.623 206.95 128.064 205.384 125.103C204.366 123.14 202.887 121.454 201.073 120.189C197.947 118.127 197.092 115.95 198.076 112.236C198.553 110.274 198.483 108.219 197.875 106.294C196.675 102.616 197.408 100.446 200.419 98.2115C202.143 96.8217 203.499 95.0306 204.371 92.9952C205.621 90.265 207.345 88.8137 210.658 88.8496Z" fill="url(#paint2_linear_6_3513)"/>
<path d="M199.047 149.158H105.444L105.192 148.756C106.018 148.339 106.873 147.966 107.678 147.506C112.111 144.955 116.523 142.354 120.985 139.84C122.034 139.251 123.241 138.575 124.377 138.575C148.893 138.513 173.407 138.513 197.918 138.575C198.299 138.611 198.676 138.676 199.047 138.769V149.158Z" fill="url(#paint3_linear_6_3513)"/>
<path d="M219.216 154.224L205.564 168.291V134.696C208.567 134.696 211.434 134.696 214.301 134.696C214.804 134.66 215.309 134.744 215.774 134.94C222.341 138.589 227.752 136.808 232.631 131.031V168.392L219.216 154.224Z" fill="url(#paint4_linear_6_3513)"/>
<path d="M148.742 44.5635H232.667V50.3688H155.446C149.971 50.3688 149.971 50.3687 148.742 44.5635Z" fill="url(#paint5_linear_6_3513)"/>
<path d="M154.332 69.8966C154.138 68.0214 153.966 66.3688 153.772 64.5151H232.602V69.8966H154.332Z" fill="url(#paint6_linear_6_3513)"/>
<path d="M134.58 22.356H174.157V29.2316H167.05C159.305 29.2316 151.552 29.1167 143.813 29.2891C141.047 29.3538 139.006 28.8077 137.627 26.25C136.951 24.9783 135.852 23.951 134.58 22.356Z" fill="url(#paint7_linear_6_3513)"/>
<path d="M140.781 123.854C140.062 118.681 140.551 118.106 145.264 118.07H174.236V123.854H140.781Z" fill="url(#paint8_linear_6_3513)"/>
<path d="M174.272 98.9805V104.527H149.087C150.179 98.9878 150.179 98.9805 155.482 98.9805C161.625 98.9805 167.769 98.9805 174.272 98.9805Z" fill="url(#paint9_linear_6_3513)"/>
<defs>
<linearGradient id="paint0_linear_6_3513" x1="-27.4487" y1="75.7523" x2="262.945" y2="73.6828" gradientUnits="userSpaceOnUse">
<stop stop-color="#1680BF"/>
<stop offset="0.51" stop-color="#1E5C9B"/>
<stop offset="1" stop-color="#1A4484"/>
</linearGradient>
<linearGradient id="paint1_linear_6_3513" x1="-27.4416" y1="76.5282" x2="262.953" y2="74.4586" gradientUnits="userSpaceOnUse">
<stop stop-color="#1680BF"/>
<stop offset="0.51" stop-color="#1E5C9B"/>
<stop offset="1" stop-color="#1A4484"/>
</linearGradient>
<linearGradient id="paint2_linear_6_3513" x1="-27.1972" y1="110.274" x2="263.19" y2="108.205" gradientUnits="userSpaceOnUse">
<stop stop-color="#1680BF"/>
<stop offset="0.51" stop-color="#1E5C9B"/>
<stop offset="1" stop-color="#1A4484"/>
</linearGradient>
<linearGradient id="paint3_linear_6_3513" x1="-26.953" y1="145.214" x2="263.441" y2="143.137" gradientUnits="userSpaceOnUse">
<stop stop-color="#1680BF"/>
<stop offset="0.51" stop-color="#1E5C9B"/>
<stop offset="1" stop-color="#1A4484"/>
</linearGradient>
<linearGradient id="paint4_linear_6_3513" x1="-26.9029" y1="151.558" x2="263.484" y2="149.488" gradientUnits="userSpaceOnUse">
<stop stop-color="#1680BF"/>
<stop offset="0.51" stop-color="#1E5C9B"/>
<stop offset="1" stop-color="#1A4484"/>
</linearGradient>
<linearGradient id="paint5_linear_6_3513" x1="-27.6356" y1="49.0252" x2="262.759" y2="46.9485" gradientUnits="userSpaceOnUse">
<stop stop-color="#1680BF"/>
<stop offset="0.51" stop-color="#1E5C9B"/>
<stop offset="1" stop-color="#1A4484"/>
</linearGradient>
<linearGradient id="paint6_linear_6_3513" x1="-27.499" y1="68.783" x2="262.895" y2="66.7063" gradientUnits="userSpaceOnUse">
<stop stop-color="#1680BF"/>
<stop offset="0.51" stop-color="#1E5C9B"/>
<stop offset="1" stop-color="#1A4484"/>
</linearGradient>
<linearGradient id="paint7_linear_6_3513" x1="-27.7936" y1="27.0906" x2="262.601" y2="25.021" gradientUnits="userSpaceOnUse">
<stop stop-color="#1680BF"/>
<stop offset="0.51" stop-color="#1E5C9B"/>
<stop offset="1" stop-color="#1A4484"/>
</linearGradient>
<linearGradient id="paint8_linear_6_3513" x1="-27.111" y1="122.295" x2="263.276" y2="120.225" gradientUnits="userSpaceOnUse">
<stop stop-color="#1680BF"/>
<stop offset="0.51" stop-color="#1E5C9B"/>
<stop offset="1" stop-color="#1A4484"/>
</linearGradient>
<linearGradient id="paint9_linear_6_3513" x1="-27.2475" y1="103.133" x2="263.139" y2="101.064" gradientUnits="userSpaceOnUse">
<stop stop-color="#1680BF"/>
<stop offset="0.51" stop-color="#1E5C9B"/>
<stop offset="1" stop-color="#1A4484"/>
</linearGradient>
</defs>
</svg>
