<svg width="232" height="233" viewBox="0 0 232 233" fill="none" xmlns="http://www.w3.org/2000/svg">
<path d="M174.338 0.10791H57.7275C42.4358 0.10791 27.7703 6.18154 16.9568 16.9928C6.14324 27.804 0.0673352 42.4674 0.0654297 57.7577V174.365C0.0654297 189.657 6.14054 204.322 16.9543 215.135C27.768 225.948 42.4346 232.022 57.7275 232.022H174.338C189.631 232.022 204.297 225.948 215.111 215.135C225.925 204.322 232 189.657 232 174.365V57.7577C231.998 42.4674 225.922 27.804 215.109 16.9928C204.295 6.18154 189.63 0.10791 174.338 0.10791ZM62.6782 152.093C44.9305 152.093 29.5324 140.331 29.5324 116.6C29.5324 93.2931 45.57 80.0302 63.1093 80.0302C67.1371 80.0696 71.1177 80.902 74.8237 82.48C78.5297 84.0579 81.8885 86.3505 84.7083 89.2266L75.0872 100.988C71.6598 97.9919 68.2396 95.8581 63.5333 95.8581C55.4067 95.8581 48.3507 103.337 48.3507 115.975C48.3507 129.023 54.3432 136.293 63.3249 136.293C68.6707 136.293 72.946 133.513 75.9423 130.301L85.5634 141.854C79.6858 148.637 71.6598 152.057 62.6782 152.057V152.093ZM140.517 96.713H113.543V109.969H136.644V125.366H113.543V150.814H95.1845V81.2947H140.517V96.713ZM202.533 96.713H184.139V150.814H165.751V96.713H147.357V81.2947H202.533V96.713Z" fill="url(#paint0_linear_6_3794)"/>
<defs>
<linearGradient id="paint0_linear_6_3794" x1="116.036" y1="-20.0379" x2="116.036" y2="438.768" gradientUnits="userSpaceOnUse">
<stop stop-color="#1680BF"/>
<stop offset="0.51" stop-color="#1E5C9B"/>
<stop offset="1" stop-color="#1A4484"/>
</linearGradient>
</defs>
</svg>
