<svg width="374" height="375" viewBox="0 0 374 375" fill="none" xmlns="http://www.w3.org/2000/svg">
<path d="M189.742 374.27C185.208 372.833 181.932 370.16 180.401 365.368C182.277 365.368 183.929 365.325 185.589 365.368C185.92 365.368 186.308 365.778 186.538 366.087C187.273 367.102 188.248 367.918 189.377 368.462C190.506 369.007 191.752 369.262 193.004 369.205C196.597 369.054 200.269 368.874 203.89 368.551C205.163 368.457 206.391 368.04 207.459 367.34C208.526 366.64 209.397 365.679 209.99 364.549C210.163 364.247 210.458 363.831 210.709 363.831C212.39 363.536 214.086 363.328 215.947 363.069C214.97 368.048 212.225 371.375 207.677 372.883C205.32 373.667 202.705 373.71 200.204 374.047C199.407 374.162 198.695 374.299 197.783 374.399C197.201 374.579 192.113 374.45 190.597 374.399C190.308 374.395 190.02 374.352 189.742 374.27Z" fill="url(#paint0_linear_6_3525)"/>
<path d="M196.381 0.904032C199.327 1.18423 202.281 1.39973 205.212 1.75897C207.892 2.10264 210.386 3.31404 212.313 5.20817C214.24 7.1023 215.493 9.57501 215.882 12.2486C214.108 11.9899 212.376 11.7672 210.659 11.4727C210.407 11.4296 210.148 11.0847 210.005 10.8188C209.385 9.62451 208.46 8.6153 207.325 7.89357C206.189 7.17183 204.883 6.76325 203.538 6.70922C200.103 6.42183 196.669 6.23504 193.227 6.09135C191.931 6.01238 190.637 6.26208 189.464 6.81727C188.29 7.37245 187.276 8.21505 186.516 9.26692C186.206 9.65644 185.759 9.9133 185.266 9.98538C183.743 10.0716 182.212 9.98538 180.488 9.98538C180.597 9.4976 180.739 9.01758 180.911 8.54845C181.712 6.67174 182.961 5.01985 184.548 3.73729C186.135 2.45474 188.012 1.5806 190.015 1.19135C190.331 1.1195 190.633 0.990234 190.942 0.889648L196.381 0.904032Z" fill="url(#paint1_linear_6_3525)"/>
<path d="M0.998657 168.688C1.38666 165.95 1.82494 163.227 2.1411 160.483C2.72311 155.453 4.72062 151.394 9.41262 149.059C10.8486 148.464 12.3224 147.965 13.8244 147.565C13.3861 149.72 13.0628 151.416 12.6748 153.104C12.6245 153.32 12.294 153.528 12.0425 153.636C9.16835 154.943 7.78158 157.336 7.36483 160.368C6.94808 163.4 6.60314 166.338 6.23669 169.327C5.85587 172.424 6.60314 175.075 9.11081 177.151C9.25514 177.291 9.37016 177.459 9.44911 177.644C9.52806 177.829 9.56937 178.028 9.57068 178.229C9.57068 179.802 9.427 181.376 9.3264 183.143C7.74785 182.616 6.29738 181.763 5.06846 180.641C3.83954 179.518 2.85941 178.151 2.19135 176.627C1.69557 175.556 1.39385 174.399 0.998657 173.286V168.688Z" fill="url(#paint2_linear_6_3525)"/>
<path d="M0.998608 202.01C1.71015 200.162 2.52572 198.356 3.44154 196.6C4.80426 194.48 6.90718 192.944 9.34074 192.289C9.42696 194.021 9.55626 195.709 9.57063 197.405C9.57063 197.735 9.19704 198.123 8.90245 198.389C7.96199 199.139 7.22224 200.11 6.74948 201.216C6.27673 202.322 6.08571 203.528 6.19357 204.726C6.57439 208.62 7.04862 212.514 7.63063 216.379C7.81667 217.498 8.2778 218.554 8.97261 219.45C9.66743 220.347 10.5741 221.057 11.6112 221.517C11.9573 221.656 12.2584 221.888 12.4814 222.187C12.7045 222.486 12.8409 222.841 12.8759 223.212C13.0986 224.599 13.422 225.978 13.7166 227.401C8.75152 227.329 3.93735 223.32 2.74459 218.061C2.02606 214.813 1.73868 211.458 1.25008 208.153C1.17476 207.741 1.07881 207.334 0.962646 206.932L0.998608 202.01Z" fill="url(#paint3_linear_6_3525)"/>
<path d="M373.664 195.695C372.809 198.475 371.645 201.112 369.224 202.88C367.65 203.924 366.021 204.883 364.345 205.754L363.957 205.416C364.101 203.648 364.223 201.881 364.424 200.121C364.424 199.869 364.834 199.625 365.143 199.453C366.164 198.865 367.022 198.031 367.638 197.027C368.254 196.023 368.609 194.881 368.671 193.705C368.843 189.746 368.822 185.802 368.671 181.807C368.577 179.393 367.284 177.496 365.308 176.059C364.81 175.671 364.473 175.114 364.359 174.493C364.13 173.056 364.094 171.562 363.971 169.909C365.746 170.272 367.415 171.03 368.856 172.127C370.296 173.224 371.471 174.632 372.292 176.246C372.83 177.36 373.31 178.502 373.729 179.666L373.664 195.695Z" fill="url(#paint4_linear_6_3525)"/>
<path d="M33.469 277.219C34.4031 278.75 35.3085 280.143 36.0989 281.595C36.2355 282.025 36.2099 282.49 36.027 282.902C35.561 284.116 35.4114 285.428 35.5924 286.715C35.7734 288.002 36.279 289.222 37.0617 290.259C38.9658 292.947 40.9201 295.605 42.8602 298.27C43.6313 299.434 44.6972 300.374 45.9493 300.992C47.2013 301.61 48.5948 301.886 49.988 301.791C50.4393 301.784 50.8753 301.954 51.2024 302.265C52.273 303.415 53.2574 304.643 54.3998 305.987C51.9538 307.159 49.172 307.429 46.5462 306.748C43.7188 306.109 41.2031 304.503 39.4329 302.208C37.1048 299.176 34.8055 296.108 32.6499 292.954C29.4668 288.262 29.4955 282.672 32.5709 278.297C32.8367 277.959 33.1313 277.658 33.469 277.219Z" fill="url(#paint5_linear_6_3525)"/>
<path d="M328.217 79.6191C327.053 78.1822 325.976 76.9033 325.006 75.5598C324.821 75.1377 324.795 74.6629 324.934 74.2234C325.235 73.0587 325.245 71.8377 324.962 70.6684C324.678 69.4991 324.111 68.4178 323.31 67.5202C320.824 64.7397 318.28 61.9951 315.679 59.3368C313.861 57.4832 311.54 56.9084 308.954 57.1814C308.288 57.2027 307.635 56.9919 307.107 56.5851C305.986 55.7158 304.951 54.6956 303.802 53.625C305.726 52.4417 307.941 51.8152 310.2 51.8152C312.459 51.8152 314.674 52.4417 316.599 53.625C317.641 54.2042 318.594 54.9301 319.43 55.7804C322.031 58.4531 324.661 61.1115 327.082 63.9494C330.617 68.095 331.393 72.7865 329.202 77.8517C328.906 78.4581 328.577 79.048 328.217 79.6191Z" fill="url(#paint6_linear_6_3525)"/>
<path d="M258.606 350.417C258.907 353.176 258.275 355.956 256.812 358.315C255.348 360.673 253.136 362.473 250.53 363.428C246.844 364.765 243.115 365.964 239.357 367.064C236.89 367.822 234.25 367.807 231.792 367.019C229.335 366.232 227.178 364.71 225.611 362.659C225.345 362.293 225.123 361.883 224.799 361.381C226.56 360.957 228.162 360.533 229.786 360.209C230.195 360.198 230.593 360.342 230.9 360.612C231.888 361.458 233.078 362.035 234.354 362.287C235.63 362.538 236.95 362.456 238.186 362.049C241.567 361.038 244.921 359.953 248.245 358.794C249.481 358.385 250.593 357.667 251.473 356.708C252.354 355.748 252.974 354.579 253.275 353.312C253.382 352.915 253.64 352.575 253.993 352.364C255.495 351.674 256.975 351.085 258.606 350.417Z" fill="url(#paint7_linear_6_3525)"/>
<path d="M127.891 355.295C125.067 358.78 121.575 360.382 117.357 360.109C115.553 359.962 113.784 359.526 112.119 358.816C108.864 357.458 105.653 355.942 102.527 354.318C97.0302 351.53 94.2351 345.696 95.7081 340.157C97.217 341.019 98.7188 341.838 100.156 342.751C100.453 343.044 100.627 343.44 100.644 343.857C100.795 345.127 101.271 346.337 102.026 347.369C102.782 348.401 103.791 349.221 104.956 349.749C108.081 351.3 111.243 352.78 114.411 354.217C115.584 354.776 116.876 355.035 118.173 354.97C119.471 354.905 120.731 354.518 121.841 353.844C122.367 353.591 122.966 353.535 123.53 353.686C124.902 354.11 126.267 354.692 127.891 355.295Z" fill="url(#paint8_linear_6_3525)"/>
<path d="M333.513 288.413C334.497 286.976 335.324 285.597 336.265 284.347C336.603 283.983 337.064 283.758 337.558 283.714C338.83 283.627 340.059 283.222 341.134 282.537C342.208 281.852 343.094 280.908 343.709 279.791C345.469 276.731 347.187 273.641 348.825 270.509C349.438 269.393 349.76 268.14 349.76 266.866C349.76 265.593 349.438 264.34 348.825 263.224C348.594 262.693 348.574 262.095 348.767 261.55C349.278 260.17 349.946 258.848 350.636 257.325C352.054 258.401 353.158 259.838 353.833 261.485C354.644 263.226 355.039 265.132 354.988 267.052C354.937 268.972 354.441 270.854 353.538 272.549C351.749 276.077 349.831 279.562 347.79 282.946C346.462 285.153 344.485 286.896 342.129 287.939C339.774 288.982 337.154 289.273 334.627 288.772C334.249 288.672 333.878 288.552 333.513 288.413Z" fill="url(#paint9_linear_6_3525)"/>
<path d="M54.3782 69.3882C53.286 70.6743 52.3088 71.91 51.2238 73.0452C50.8439 73.3674 50.3564 73.5342 49.8587 73.5122C48.5846 73.4311 47.3106 73.6731 46.155 74.2157C44.9994 74.7583 43.9995 75.5839 43.2482 76.616C41.0926 79.4324 39.0161 82.2775 37.0042 85.1873C36.2513 86.2165 35.7687 87.4181 35.6004 88.6821C35.4322 89.9461 35.5838 91.2321 36.0413 92.4223C36.1965 92.9801 36.1428 93.5753 35.8904 94.0963C35.215 95.4111 34.3958 96.6469 33.433 98.2419C32.7066 97.2121 32.0466 96.137 31.4571 95.0232C30.5327 93.1142 30.1278 90.9954 30.283 88.8802C30.4381 86.765 31.148 84.7281 32.3409 82.9744C34.6615 79.4069 37.1703 75.9654 39.8567 72.6645C43.32 68.3896 49.7868 67.0101 54.3782 69.3882Z" fill="url(#paint10_linear_6_3525)"/>
<path d="M136.499 358.104C138.224 358.579 139.876 358.988 141.529 359.498C141.802 359.585 142.025 360.023 142.161 360.346C142.66 361.599 143.474 362.701 144.523 363.547C145.573 364.393 146.824 364.953 148.154 365.174C151.574 365.85 155.001 366.518 158.436 367.093C159.622 367.313 160.845 367.231 161.992 366.854C163.138 366.478 164.172 365.818 164.996 364.937C165.248 364.622 165.585 364.387 165.968 364.26C166.35 364.132 166.761 364.118 167.152 364.219C168.51 364.463 169.904 364.528 171.463 364.686C170.379 367.433 168.301 369.671 165.643 370.958C162.108 372.797 158.457 372.452 154.714 371.676C151.998 371.13 149.275 370.606 146.566 370.031C143.902 369.471 141.487 368.072 139.677 366.039C137.867 364.007 136.755 361.447 136.506 358.737C136.489 358.526 136.487 358.315 136.499 358.104Z" fill="url(#paint11_linear_6_3525)"/>
<path d="M353.984 126.435C358.884 126.356 362.412 128.425 365.021 132.233C365.134 132.387 365.231 132.553 365.308 132.728C367.679 138.34 369.511 144.145 369.619 150.252C369.705 155.015 367.169 158.529 362.851 161.029C362.52 159.175 362.19 157.515 361.967 155.834C362.01 155.423 362.201 155.043 362.506 154.764C363.391 153.817 364.023 152.662 364.341 151.406C364.658 150.149 364.653 148.833 364.324 147.579C363.605 144.281 362.707 141.005 361.823 137.729C361.517 136.389 360.865 135.154 359.932 134.145C358.999 133.137 357.818 132.39 356.506 131.981C356.219 131.888 355.831 131.701 355.737 131.464C355.134 129.833 354.602 128.216 353.984 126.435Z" fill="url(#paint12_linear_6_3525)"/>
<path d="M224.756 13.9513C227.091 10.2081 230.296 8.14613 234.463 7.85156C236.32 7.75135 238.18 7.96014 239.967 8.46943C243.459 9.43218 246.908 10.6249 250.321 11.8247C252.849 12.7067 255.028 14.373 256.541 16.5804C258.055 18.7879 258.824 21.4211 258.735 24.0961C258.735 24.3188 258.671 24.5416 258.62 24.9224C256.982 24.2398 255.437 23.6363 253.936 22.9394C253.604 22.6936 253.372 22.3365 253.282 21.9335C252.946 20.6541 252.29 19.4811 251.377 18.5247C250.463 17.5683 249.321 16.8599 248.058 16.466C244.932 15.4026 241.792 14.4183 238.66 13.4053C237.348 12.9254 235.934 12.797 234.558 13.0326C233.181 13.2683 231.89 13.8599 230.813 14.7488C230.402 15.0105 229.906 15.1056 229.427 15.0147C227.925 14.7345 226.452 14.3465 224.756 13.9513Z" fill="url(#paint13_linear_6_3525)"/>
<path d="M333.506 86.883C335.156 86.2993 336.922 86.1162 338.657 86.3485C340.392 86.5808 342.047 87.222 343.486 88.2193C345.281 89.4663 346.824 91.0411 348.035 92.8607C350.006 95.9636 351.8 99.1755 353.409 102.481C355.68 107.007 355.565 111.498 352.691 115.801C352.359 116.271 351.997 116.717 351.606 117.138C351.354 117.411 351.052 117.641 350.628 118.014C349.91 116.369 349.134 114.839 348.473 113.272C348.351 112.971 348.581 112.46 348.76 112.108C349.381 110.996 349.706 109.743 349.706 108.469C349.706 107.196 349.381 105.943 348.76 104.83C347.122 101.705 345.39 98.6228 343.637 95.5549C343.021 94.4257 342.123 93.4742 341.032 92.7922C339.941 92.1101 338.693 91.7205 337.408 91.6608C336.999 91.6407 336.614 91.466 336.33 91.1722C335.381 89.7856 334.533 88.3846 333.506 86.883Z" fill="url(#paint14_linear_6_3525)"/>
<path d="M136.521 17.2421C136.485 14.7067 137.271 12.2278 138.76 10.1754C140.249 8.12308 142.362 6.60728 144.784 5.85427C148.98 4.60414 153.363 3.97189 157.674 3.16721C159.327 2.85927 161.024 2.89159 162.664 3.26219C164.303 3.6328 165.85 4.33389 167.209 5.32261C169.123 6.58228 170.577 8.42729 171.355 10.5818C169.659 10.783 168.057 11.0201 166.447 11.1351C165.996 11.1023 165.574 10.9024 165.262 10.5747C164.361 9.60927 163.227 8.89152 161.969 8.4902C160.71 8.08888 159.37 8.01739 158.077 8.28269C154.786 8.90776 151.488 9.4682 148.211 10.1148C146.855 10.3332 145.579 10.9014 144.509 11.7631C143.439 12.6249 142.613 13.7505 142.111 15.0291C141.914 15.425 141.575 15.7327 141.162 15.8913C139.668 16.3943 138.145 16.7822 136.521 17.2421Z" fill="url(#paint15_linear_6_3525)"/>
<path d="M362.815 214.425C365.276 215.557 367.258 217.521 368.412 219.972C369.734 222.558 370.098 225.528 369.44 228.356C368.556 232.215 367.629 236.073 366.486 239.852C364.898 245.154 360.149 248.818 355.119 248.869C354.754 248.854 354.389 248.82 354.027 248.768C354.602 247.101 355.098 245.513 355.708 243.969C355.831 243.66 356.326 243.437 356.7 243.301C357.919 242.912 359.02 242.22 359.9 241.29C360.779 240.36 361.409 239.223 361.73 237.984C362.685 234.535 363.62 231.072 364.396 227.58C364.694 226.363 364.686 225.091 364.373 223.877C364.059 222.663 363.45 221.546 362.599 220.626C362.24 220.121 362.076 219.503 362.139 218.887C362.233 217.479 362.556 216.071 362.815 214.425Z" fill="url(#paint16_linear_6_3525)"/>
<path d="M95.665 35.1892C95.0261 32.4286 95.3402 29.5332 96.556 26.9738C97.7719 24.4144 99.8181 22.3417 102.362 21.0928C105.724 19.3757 109.145 17.7591 112.601 16.2719C115.033 15.1569 117.757 14.8415 120.38 15.3707C123.003 15.8999 125.391 17.2467 127.201 19.2176C127.388 19.426 127.546 19.6559 127.841 20.0223C126.152 20.6689 124.586 21.3083 122.983 21.84C122.574 21.8765 122.165 21.7615 121.834 21.5167C120.708 20.8203 119.425 20.4207 118.103 20.3553C116.781 20.29 115.464 20.561 114.275 21.1431C111.195 22.58 108.131 24.0314 105.085 25.497C103.874 26.0314 102.824 26.875 102.042 27.9432C101.26 29.0114 100.773 30.2665 100.63 31.5824C100.593 31.9943 100.397 32.3755 100.084 32.6458C98.6827 33.5223 97.217 34.3126 95.665 35.1892Z" fill="url(#paint17_linear_6_3525)"/>
<path d="M266.869 346.515C268.414 345.704 269.823 344.913 271.281 344.231C271.708 344.086 272.174 344.112 272.582 344.303C273.729 344.861 275.001 345.116 276.275 345.043C277.55 344.97 278.784 344.572 279.86 343.886C282.842 342.075 285.788 340.2 288.706 338.289C289.861 337.591 290.811 336.599 291.457 335.413C292.104 334.228 292.424 332.892 292.384 331.543C292.374 331.179 292.503 330.824 292.744 330.551C294.044 329.509 295.395 328.539 296.868 327.44C298.14 330.939 298.003 334.28 296.25 337.333C295.23 339.167 293.846 340.773 292.183 342.054C288.884 344.429 285.453 346.616 281.908 348.606C279.53 349.995 276.754 350.545 274.027 350.165C271.299 349.786 268.778 348.501 266.869 346.515Z" fill="url(#paint18_linear_6_3525)"/>
<path d="M87.9695 335.221C84.2978 338.397 78.3843 339.101 74.1881 336.234C69.9687 333.344 66.0133 330.086 62.3682 326.499C58.6965 322.907 58.2295 316.979 60.6437 312.618C61.894 313.825 63.1371 314.968 64.3011 316.211C64.51 316.571 64.5838 316.993 64.5094 317.403C64.3536 318.718 64.5358 320.05 65.0388 321.275C65.5417 322.499 66.3487 323.575 67.3836 324.401C70.0134 326.635 72.6648 328.834 75.3665 330.975C76.35 331.793 77.5222 332.354 78.7769 332.604C80.0316 332.855 81.3292 332.789 82.5518 332.412C83.1236 332.294 83.7188 332.388 84.226 332.678C85.4906 333.403 86.6402 334.309 87.9695 335.221Z" fill="url(#paint19_linear_6_3525)"/>
<path d="M88.0055 40.1036C86.6259 41.052 85.3613 41.9932 84.0248 42.8194C83.5839 43.0541 83.0704 43.1132 82.5877 42.9847C81.3531 42.5797 80.0351 42.4992 78.7604 42.7508C77.4856 43.0025 76.2971 43.5778 75.309 44.4216C72.5786 46.577 69.8985 48.8258 67.2543 51.0962C66.2772 51.9127 65.5139 52.9552 65.0306 54.1333C64.5473 55.3113 64.3586 56.5894 64.4808 57.8569C64.4706 58.48 64.2474 59.0809 63.8485 59.5597C62.9288 60.702 61.8797 61.7151 60.8306 62.879C58.3517 58.9849 58.8187 53.2803 61.815 49.4365C62.7147 48.3213 63.7233 47.2984 64.8257 46.383C67.2543 44.2994 69.6973 42.2231 72.2337 40.276C77.1556 36.4825 83.6081 36.4035 88.0055 40.1036Z" fill="url(#paint20_linear_6_3525)"/>
<path d="M303.838 321.657C305.109 320.5 306.281 319.372 307.531 318.337C307.917 318.099 308.378 318.012 308.824 318.093C310.175 318.338 311.567 318.228 312.862 317.772C314.157 317.315 315.312 316.53 316.211 315.492C318.366 313.229 320.464 310.959 322.598 308.695C324.733 306.432 325.645 303.896 324.869 300.792C324.805 300.336 324.921 299.872 325.192 299.499C326.098 298.278 327.089 297.114 328.174 295.777C329.306 297.22 330.021 298.944 330.244 300.764C330.549 302.64 330.428 304.561 329.889 306.385C329.35 308.208 328.408 309.887 327.132 311.296C324.653 314.084 322.103 316.836 319.487 319.472C315.133 323.877 308.666 324.76 303.838 321.657Z" fill="url(#paint21_linear_6_3525)"/>
<path d="M29.1075 106.124C28.389 107.611 27.6705 109.04 26.9519 110.434C26.7074 110.814 26.327 111.087 25.8884 111.196C24.5832 111.426 23.3596 111.99 22.3361 112.832C21.3127 113.674 20.5241 114.766 20.0468 116.002C18.6959 119.221 17.4529 122.469 16.217 125.745C15.7373 126.953 15.5745 128.264 15.7443 129.553C15.9141 130.842 16.4107 132.066 17.187 133.109C17.4351 133.529 17.5147 134.027 17.4098 134.503C17.0434 135.983 16.5691 137.442 16.0158 139.295C14.9925 138.405 14.0321 137.445 13.1417 136.421C11.7895 134.753 10.9046 132.756 10.5776 130.634C10.2507 128.512 10.4933 126.341 11.2807 124.344C12.9046 119.968 14.7872 115.679 16.7775 111.455C18.5882 107.568 24.9688 104.881 29.1075 106.124Z" fill="url(#paint22_linear_6_3525)"/>
<path d="M296.825 47.8704C295.388 46.7998 294.08 45.8587 292.837 44.8241C292.539 44.4854 292.38 44.0465 292.392 43.5954C292.367 42.3728 292.062 41.1722 291.5 40.086C290.938 38.9998 290.135 38.0571 289.151 37.3304C286.215 35.0558 283.073 33.0594 279.767 31.3671C278.666 30.7279 277.426 30.3663 276.154 30.3138C274.882 30.2612 273.617 30.5192 272.467 31.0654C272.098 31.234 271.679 31.2545 271.296 31.1228C269.858 30.4044 268.421 29.6356 266.833 28.7878C268.097 27.4238 269.672 26.3849 271.423 25.7595C273.174 25.1341 275.051 24.9406 276.893 25.1955C278.875 25.4737 280.788 26.1195 282.533 27.0994C285.824 28.9387 289 31.0079 292.097 33.1633C294.279 34.6302 295.945 36.7454 296.861 39.2102C297.776 41.6749 297.894 44.3648 297.199 46.9004C297.17 47.1734 297.005 47.4321 296.825 47.8704Z" fill="url(#paint23_linear_6_3525)"/>
<path d="M16.059 236.295C16.562 237.948 17.0794 239.478 17.4961 241.044C17.5443 241.489 17.4238 241.935 17.1584 242.295C16.4021 243.35 15.9206 244.577 15.7575 245.866C15.5944 247.154 15.7548 248.463 16.2243 249.673C17.1081 252.188 17.8554 254.767 18.9332 257.203C19.7672 259.108 20.8469 260.895 22.145 262.519C22.8635 263.389 24.164 263.82 25.2706 264.272C27.3328 265.106 28.1016 266.687 28.1878 268.763C28.1878 268.863 28.3459 268.964 28.4537 269.079C25.3065 269.618 22.3318 269.201 19.8744 267.103C18.6294 266.017 17.5605 264.745 16.7057 263.331C13.8587 258.74 11.8196 253.696 10.6773 248.416C10.27 246.09 10.5643 243.695 11.5227 241.536C12.4811 239.378 14.0603 237.554 16.059 236.295Z" fill="url(#paint24_linear_6_3525)"/>
<path d="M180.768 17.2922C182.55 17.2922 184.159 17.2922 185.798 17.2922C186.085 17.2922 186.415 17.6659 186.617 17.9461C187.341 18.9923 188.307 19.8482 189.433 20.4411C190.559 21.034 191.811 21.3464 193.083 21.3516C196.188 21.4594 199.284 21.6965 202.381 21.9192C203.575 22.0267 204.777 21.8613 205.898 21.4356C207.018 21.0099 208.027 20.335 208.848 19.462C209.319 19.0677 209.923 18.8674 210.537 18.9016C211.974 18.995 213.332 19.2752 214.905 19.5051C212.326 24.0314 208.841 26.97 203.754 26.9987C199.214 27.0231 194.678 26.723 190.181 26.1007C185.877 25.5618 181.989 21.6893 180.768 17.2922Z" fill="url(#paint25_linear_6_3525)"/>
<path d="M180.832 358.025C181.608 354.002 185.956 349.698 190.173 349.181C194.855 348.534 199.581 348.256 204.307 348.348C209.092 348.52 212.412 351.466 214.812 355.798C213.001 356.071 211.413 356.351 209.782 356.517C209.466 356.517 209.063 356.193 208.762 355.906C207.965 355.01 206.968 354.314 205.852 353.876C204.736 353.438 203.532 353.269 202.338 353.384C198.954 353.607 195.562 353.765 192.178 354.016C191.079 354.108 190.012 354.437 189.052 354.98C188.092 355.524 187.261 356.268 186.617 357.163C186.211 357.624 185.652 357.92 185.043 357.997C183.707 358.104 182.327 358.025 180.832 358.025Z" fill="url(#paint26_linear_6_3525)"/>
<path d="M92.1873 329.215C90.7502 328.209 89.4856 327.411 88.3288 326.499C87.982 326.151 87.7837 325.683 87.7755 325.191C87.7845 324.016 87.5313 322.853 87.0341 321.788C86.5369 320.723 85.8082 319.782 84.9014 319.034C82.2572 316.836 79.6274 314.616 76.9545 312.453C76.0649 311.758 75.0344 311.266 73.9348 311.01C72.8353 310.755 71.6932 310.742 70.5883 310.973C70.1551 311.073 69.7003 311.003 69.3165 310.779C68.1453 309.752 67.0603 308.624 65.925 307.503C69.7117 304.959 75.8336 305.161 79.6777 308.092C82.9379 310.504 86.0567 313.102 89.0186 315.873C92.7694 319.465 93.416 324.02 92.1873 329.215Z" fill="url(#paint27_linear_6_3525)"/>
<path d="M138.568 351.028C139.995 348.731 142.097 346.933 144.587 345.88C147.076 344.826 149.831 344.569 152.472 345.143C155.418 345.747 158.371 346.322 161.339 346.817C166.692 347.723 171.298 352.177 171.937 357.372C170.213 357.185 168.538 357.034 166.907 356.783C166.649 356.739 166.426 356.251 166.253 355.935C165.688 354.876 164.883 353.964 163.902 353.272C162.922 352.58 161.793 352.126 160.606 351.947C157.459 351.387 154.311 350.798 151.179 350.158C150.031 349.913 148.843 349.926 147.7 350.197C146.558 350.468 145.491 350.989 144.575 351.724C144.025 352.095 143.356 352.246 142.7 352.148C141.306 351.919 139.998 351.451 138.568 351.028Z" fill="url(#paint28_linear_6_3525)"/>
<path d="M99.4374 41.6266C100.874 40.7213 102.175 39.888 103.497 39.1623C103.7 39.0752 103.919 39.0301 104.14 39.0301C104.361 39.0301 104.58 39.0752 104.783 39.1623C105.945 39.7385 107.229 40.0262 108.526 40.0012C109.823 39.9762 111.095 39.6391 112.234 39.0186C114.929 37.6822 117.659 36.4105 120.397 35.1676C121.546 34.6803 122.567 33.9328 123.379 32.984C124.191 32.0353 124.771 30.9112 125.075 29.7001C125.203 29.2295 125.51 28.8274 125.93 28.5792C127.28 27.9901 128.689 27.5446 130.241 26.9771C130.489 29.6298 129.872 32.2917 128.48 34.5641C127.226 36.7934 125.303 38.5726 122.984 39.6508C119.908 41.0878 116.862 42.5894 113.765 43.9616C108.994 46.0739 104.532 45.262 100.357 42.3235C100.062 42.1223 99.7751 41.8853 99.4374 41.6266Z" fill="url(#paint29_linear_6_3525)"/>
<path d="M92.2377 46.0955C93.5239 52.2958 92.2377 57.2677 87.2511 61.0324C84.923 62.7855 82.7531 64.7397 80.5256 66.6293C78.4934 68.286 76.0085 69.291 73.3958 69.5127C70.7832 69.7345 68.1644 69.1627 65.882 67.8722C67.0603 66.7227 68.1812 65.5659 69.374 64.4954C69.7301 64.3031 70.1447 64.2494 70.538 64.3445C71.8134 64.5938 73.1298 64.5368 74.3789 64.1784C75.628 63.8199 76.7742 63.1702 77.7233 62.2826C79.9867 60.2996 82.3291 58.4028 84.6787 56.5348C85.6415 55.782 86.4224 54.8221 86.9634 53.7264C87.5045 52.6306 87.7919 51.4271 87.8043 50.2052C87.8472 49.6323 88.1036 49.0963 88.5229 48.7035C89.6294 47.8342 90.8438 47.051 92.2377 46.0955Z" fill="url(#paint30_linear_6_3525)"/>
<path d="M223.161 354.21C223.88 349.081 226.035 345.15 230.483 343.268C234.916 341.484 239.481 340.042 244.135 338.957C247.972 338.009 253.332 340.466 255.588 343.713C254.151 344.339 252.714 344.992 251.234 345.524C250.785 345.593 250.326 345.485 249.955 345.222C248.927 344.558 247.758 344.141 246.541 344.005C245.324 343.869 244.092 344.018 242.942 344.439C239.968 345.459 236.974 346.434 233.961 347.363C232.811 347.705 231.752 348.3 230.861 349.105C229.971 349.909 229.272 350.902 228.816 352.012C228.521 352.554 228.034 352.967 227.451 353.169C226.165 353.592 224.799 353.83 223.161 354.21Z" fill="url(#paint31_linear_6_3525)"/>
<path d="M172.016 17.946C171.607 20.3547 170.5 22.5904 168.833 24.3763C166.813 26.6459 164.048 28.1188 161.037 28.5291C157.875 29.0248 154.757 29.7289 151.61 30.3037C149.084 30.6919 146.5 30.3273 144.181 29.2552C141.861 28.183 139.909 26.451 138.568 24.2757C140.149 23.8446 141.673 23.3704 143.225 23.0328C143.676 23.0349 144.111 23.2038 144.446 23.507C145.41 24.2963 146.543 24.8511 147.758 25.1279C148.972 25.4047 150.234 25.3958 151.444 25.102C154.477 24.4338 157.538 23.895 160.591 23.3561C161.775 23.1656 162.9 22.7082 163.881 22.0186C164.862 21.329 165.674 20.4252 166.253 19.3758C166.611 18.8829 167.143 18.5439 167.741 18.4274C169.084 18.1759 170.464 18.1113 172.016 17.946Z" fill="url(#paint32_linear_6_3525)"/>
<path d="M356.621 204.712C355.072 204.153 353.652 203.288 352.445 202.168C351.237 201.049 350.268 199.697 349.594 198.195C348.859 196.395 348.434 194.483 348.336 192.541C348.142 189.301 348.279 186.039 348.293 182.791C348.293 177.367 350.995 173.595 355.615 171.03C355.825 170.92 356.043 170.829 356.269 170.757C356.4 170.756 356.53 170.773 356.657 170.807C356.779 172.294 356.944 173.803 356.987 175.319C356.97 175.541 356.909 175.758 356.808 175.956C356.707 176.155 356.568 176.331 356.398 176.476C355.405 177.269 354.616 178.288 354.097 179.448C353.579 180.607 353.345 181.875 353.416 183.143C353.467 186.297 353.416 189.451 353.416 192.613C353.385 193.764 353.623 194.906 354.109 195.95C354.595 196.993 355.317 197.91 356.219 198.626C356.512 198.818 356.744 199.09 356.888 199.41C357.031 199.729 357.081 200.083 357.031 200.43C356.865 201.795 356.757 203.167 356.621 204.712Z" fill="url(#paint33_linear_6_3525)"/>
<path d="M23.1365 234.334C27.7854 233.831 33.3037 237.416 35.2078 242.122C36.5155 245.355 37.8017 248.596 39.0663 251.843C40.913 256.578 39.404 262.828 35.6317 265.824C34.9132 264.388 34.1946 263.058 33.5408 261.643C33.4359 261.205 33.5055 260.744 33.7348 260.357C34.3597 259.223 34.7053 257.956 34.7428 256.661C34.7803 255.367 34.5086 254.082 33.9504 252.914C32.7864 250.193 31.6942 247.441 30.6739 244.658C30.2688 243.479 29.5941 242.41 28.7035 241.537C27.8129 240.664 26.7309 240.011 25.5435 239.629C25.0772 239.468 24.691 239.134 24.4657 238.695C23.9484 237.28 23.5676 235.807 23.1365 234.334Z" fill="url(#paint34_linear_6_3525)"/>
<path d="M322.318 291.395C321.327 292.638 320.393 293.902 319.358 295.066C318.999 295.346 318.545 295.472 318.093 295.418C315.334 295.195 313.2 296.331 311.39 298.292C309.421 300.447 307.445 302.603 305.397 304.672C304.42 305.559 303.68 306.677 303.246 307.923C302.812 309.169 302.697 310.504 302.911 311.806C302.922 312.029 302.888 312.252 302.81 312.46C302.732 312.669 302.613 312.86 302.458 313.021C301.409 314.062 300.303 315.025 299.059 316.124C297.821 313.661 297.43 310.858 297.946 308.149C298.341 305.623 299.525 303.286 301.33 301.475C303.651 299.068 305.9 296.582 308.221 294.168C311.72 290.468 317.82 289.239 322.318 291.395Z" fill="url(#paint35_linear_6_3525)"/>
<path d="M355.565 162.07C350.391 161.014 346.554 158.478 344.93 153.636C343.564 149.559 342.51 145.385 341.776 141.149C340.928 136.191 343.134 132.254 347.057 128.87C347.654 130.58 348.228 132.118 348.695 133.677C348.702 134.087 348.559 134.485 348.293 134.797C347.548 135.797 347.051 136.959 346.844 138.188C346.636 139.418 346.724 140.679 347.1 141.867C347.963 144.849 348.688 147.874 349.407 150.891C349.681 152.057 350.21 153.148 350.955 154.086C351.701 155.024 352.644 155.785 353.718 156.316C354.25 156.642 354.642 157.154 354.817 157.752C355.162 159.074 355.299 160.454 355.565 162.07Z" fill="url(#paint36_linear_6_3525)"/>
<path d="M299.095 59.2722C300.274 60.3284 301.474 61.3485 302.588 62.4406C302.711 62.6029 302.799 62.7885 302.849 62.986C302.898 63.1836 302.907 63.3891 302.875 63.5902C302.668 64.82 302.764 66.0816 303.155 67.2659C303.545 68.4502 304.219 69.5214 305.117 70.3869C307.272 72.6429 309.428 74.8988 311.497 77.1908C312.268 78.1107 313.245 78.8355 314.349 79.3063C315.452 79.777 316.652 79.9802 317.849 79.8994C318.22 79.8387 318.601 79.8879 318.945 80.0411C319.288 80.1943 319.579 80.4448 319.782 80.7615C320.558 81.8392 321.42 82.8523 322.39 84.0665C318.28 85.5035 314.486 85.3023 310.836 83.2475C310.046 82.8052 309.321 82.2564 308.681 81.6165C305.9 78.7427 303.062 75.8688 300.446 72.8297C297.378 69.2877 296.832 63.0082 299.095 59.2722Z" fill="url(#paint37_linear_6_3525)"/>
<path d="M20.9737 225.77C20.8012 225.051 20.6863 224.491 20.5354 223.945C19.9893 222.041 19.6731 220.353 21.3976 218.621C22.9784 217.019 22.8347 214.684 22.5329 212.485C22.1018 209.461 21.8144 206.422 21.3761 203.39C21.2611 202.315 20.9015 201.281 20.3248 200.367C19.7481 199.453 18.9697 198.683 18.0493 198.116C17.6281 197.903 17.2831 197.565 17.0619 197.148C16.8406 196.731 16.7537 196.256 16.8134 195.788C16.8852 194.603 16.8134 193.417 16.8134 191.887C18.0587 192.399 19.2727 192.985 20.4492 193.64C22.2002 194.686 23.6723 196.139 24.7396 197.877C25.8069 199.615 26.4377 201.585 26.5783 203.62C26.8369 206.378 27.2105 209.123 27.6129 211.868C28.4464 217.464 26.5495 221.926 21.994 225.209C21.6667 225.419 21.3258 225.606 20.9737 225.77Z" fill="url(#paint38_linear_6_3525)"/>
<path d="M347.144 246.275C343.034 243.681 340.749 237.955 341.891 233.105C342.739 229.484 343.661 225.878 344.657 222.285C345.951 217.63 350.93 213.577 355.479 213.455C355.4 214.116 355.313 214.763 355.241 215.41C355.026 217.263 354.753 218.901 352.59 219.785C350.945 220.453 350.003 222.149 349.544 223.938C348.667 227.315 347.819 230.691 346.942 234.068C346.339 236.41 346.942 238.48 348.214 240.47C348.515 241.004 348.611 241.629 348.487 242.23C348.186 243.566 347.625 244.859 347.144 246.275Z" fill="url(#paint39_linear_6_3525)"/>
<path d="M255.581 31.6113C252.951 35.4479 247.067 37.4452 242.31 36.0514C238.645 34.9737 234.974 33.896 231.417 32.495C226.445 30.5767 223.995 26.6251 223.183 21.1145C225.029 21.56 226.675 21.9191 228.291 22.3789C228.55 22.4508 228.715 22.9681 228.859 23.3058C229.288 24.4263 229.972 25.4314 230.858 26.2409C231.744 27.0504 232.806 27.642 233.961 27.9686C237.014 28.9098 240.046 29.9229 243.079 30.9359C244.192 31.3111 245.373 31.4412 246.542 31.3172C247.71 31.1932 248.838 30.818 249.847 30.2174C250.438 29.9252 251.114 29.8562 251.751 30.0234C253.052 30.433 254.295 31.0653 255.581 31.6113Z" fill="url(#paint40_linear_6_3525)"/>
<path d="M23.1294 140.983C23.5821 139.503 23.9773 138.031 24.5018 136.608C24.7244 136.172 25.1085 135.839 25.5724 135.681C26.7325 135.306 27.7901 134.669 28.6627 133.817C29.5352 132.966 30.199 131.924 30.6021 130.774C31.7159 127.821 32.9014 124.897 34.0942 121.98C34.5613 120.877 34.7748 119.684 34.7189 118.487C34.6629 117.291 34.3389 116.123 33.7709 115.068C33.5374 114.5 33.522 113.865 33.7277 113.287C34.2379 112.008 34.9349 110.808 35.6175 109.436C37.5093 111.093 38.8337 113.302 39.4041 115.751C40.1506 118.498 39.948 121.417 38.8293 124.035C37.5647 127.074 36.3935 130.163 35.172 133.224C33.3325 137.901 27.807 141.479 23.1294 140.983Z" fill="url(#paint41_linear_6_3525)"/>
<path d="M292.233 321.714C290.983 322.684 289.769 323.675 288.483 324.588C288.281 324.683 288.061 324.737 287.838 324.747C287.615 324.757 287.392 324.722 287.182 324.645C286.004 324.233 284.744 324.11 283.508 324.288C282.272 324.466 281.098 324.938 280.083 325.666C277.446 327.397 274.759 329.05 272.1 330.745C271.104 331.321 270.258 332.126 269.633 333.093C269.009 334.059 268.623 335.161 268.508 336.306C268.499 336.706 268.37 337.095 268.138 337.421C267.906 337.748 267.582 337.998 267.207 338.138C266.036 338.67 264.908 339.295 263.564 339.977C263.061 337.404 263.339 334.739 264.364 332.326C265.388 329.912 267.112 327.86 269.312 326.434C272.186 324.653 274.96 322.842 277.784 321.053C282.081 318.287 288.411 318.56 292.233 321.714Z" fill="url(#paint42_linear_6_3525)"/>
<path d="M327.478 284.21C325.806 282.216 324.765 279.77 324.489 277.183C324.213 274.595 324.713 271.985 325.925 269.683C327.53 266.809 329.125 263.935 330.711 261.061C331.977 258.75 333.917 256.878 336.272 255.695C338.626 254.512 341.286 254.073 343.896 254.437C343.177 255.996 342.545 257.512 341.812 258.977C341.683 259.236 341.216 259.401 340.878 259.466C339.651 259.67 338.49 260.163 337.491 260.904C336.491 261.644 335.682 262.612 335.13 263.726C333.693 266.471 332.193 269.189 330.632 271.881C330.003 272.929 329.621 274.106 329.514 275.323C329.407 276.54 329.578 277.766 330.014 278.908C330.188 279.502 330.126 280.14 329.841 280.689C329.166 281.875 328.325 282.974 327.478 284.21Z" fill="url(#paint43_linear_6_3525)"/>
<path d="M343.874 120.895C338.126 121.499 333.204 118.934 330.589 114.142C329.08 111.376 327.549 108.617 326.019 105.865C324.732 103.548 324.18 100.894 324.437 98.2554C324.694 95.6171 325.746 93.1192 327.456 91.0933C328.397 92.5302 329.346 93.845 330.186 95.2604C330.344 95.5262 330.186 96.0723 330.021 96.4459C329.561 97.5543 329.368 98.755 329.457 99.9516C329.545 101.148 329.913 102.307 330.531 103.336C332.083 106.081 333.604 108.839 335.094 111.613C335.644 112.728 336.452 113.697 337.452 114.437C338.452 115.176 339.614 115.666 340.842 115.866C341.241 115.933 341.597 116.156 341.834 116.484C342.588 117.878 343.192 119.322 343.874 120.895Z" fill="url(#paint44_linear_6_3525)"/>
<path d="M16.8566 183.251C16.8566 181.685 16.7991 180.198 16.8566 178.725C16.9016 178.485 16.9941 178.256 17.1286 178.053C17.2631 177.849 17.4369 177.675 17.6398 177.539C18.7367 176.851 19.6529 175.91 20.3117 174.795C20.9705 173.68 21.3527 172.423 21.4264 171.13C21.721 167.991 22.145 164.865 22.5833 161.74C22.7488 160.647 22.6599 159.531 22.3234 158.478C21.9869 157.425 21.4119 156.463 20.6433 155.669C20.3319 155.383 20.1114 155.012 20.0092 154.602C19.907 154.192 19.9276 153.761 20.0684 153.363C20.3918 152.163 20.6073 150.941 20.9163 149.548C21.3125 149.734 21.6965 149.945 22.0659 150.18C26.4346 153.42 28.3675 157.709 27.6346 163.163C27.225 166.195 26.8441 169.226 26.5208 172.266C26.1868 174.851 25.0886 177.277 23.3669 179.234C21.6451 181.191 19.3782 182.59 16.8566 183.251Z" fill="url(#paint45_linear_6_3525)"/>
<path d="M130.162 348.312C128.667 347.766 127.187 347.256 125.75 346.652C125.414 346.432 125.176 346.089 125.089 345.696C124.77 344.413 124.146 343.224 123.271 342.233C122.395 341.241 121.294 340.475 120.059 339.999C117.343 338.821 114.677 337.52 112.019 336.22C110.915 335.634 109.689 335.319 108.44 335.299C107.191 335.279 105.955 335.555 104.833 336.105C104.433 336.303 103.972 336.336 103.547 336.198C102.565 335.753 101.629 335.211 100.752 334.582C100.609 334.425 100.508 334.235 100.458 334.029C100.408 333.823 100.41 333.608 100.465 333.403C100.705 332.892 101.093 332.464 101.579 332.175C105.502 329.905 109.59 329.459 113.794 331.37C116.876 332.771 119.93 334.244 122.998 335.681C127.733 337.915 130.923 343.491 130.162 348.312Z" fill="url(#paint46_linear_6_3525)"/>
<path d="M56.462 78.5056L59.9756 74.511C62.6198 77.8447 62.7276 84.2677 60.0331 88.2193C57.8775 91.3375 55.7219 94.4341 53.3723 97.3798C49.9664 101.647 45.4038 102.826 39.8208 101.877C40.8052 100.268 41.6602 98.8167 42.5871 97.4085C42.7165 97.2074 43.1835 97.1787 43.4925 97.1643C44.7174 97.1324 45.9171 96.8087 46.9918 96.2202C48.0665 95.6316 48.9854 94.7951 49.6719 93.7802C51.5545 91.1842 53.4418 88.5953 55.3339 86.0137C56.1495 84.9637 56.6814 83.7217 56.879 82.407C57.0765 81.0923 56.933 79.7489 56.462 78.5056Z" fill="url(#paint47_linear_6_3525)"/>
<path d="M60.4283 300.239C59.3783 299.601 58.3811 298.881 57.4464 298.084C57.1518 297.811 57.3961 296.948 57.3961 296.496C57.1636 295.879 57.0138 295.234 56.9506 294.577C57.0349 292.654 56.4396 290.761 55.2692 289.232C53.3866 286.646 51.4825 284.073 49.6144 281.473C48.9248 280.494 48.0234 279.683 46.9771 279.101C45.9309 278.519 44.7668 278.18 43.5716 278.11C43.082 278.071 42.6263 277.845 42.2998 277.478C41.4591 276.271 40.7405 274.978 39.7777 273.404C40.8603 273.232 41.9518 273.121 43.047 273.074C47.4516 273.146 51.1161 274.777 53.7675 278.412C55.6836 281.032 57.5996 283.666 59.5157 286.315C62.6126 290.619 62.821 296.69 60.4283 300.239Z" fill="url(#paint48_linear_6_3525)"/>
<path d="M292.205 53.5821C288.677 56.693 282.282 57.0738 278.006 54.4442C274.996 52.5906 272 50.7082 269.046 48.7684C264.477 45.7652 263.111 41.2101 263.844 35.9868C265.799 36.5903 268.019 36.9424 268.421 39.378C268.593 40.5905 269.123 41.7241 269.945 42.6326C270.6 43.3859 271.351 44.0501 272.179 44.6084C274.766 46.3256 277.424 47.9349 280.018 49.6377C281.033 50.3632 282.205 50.84 283.438 51.0297C284.671 51.2194 285.931 51.1167 287.117 50.7298C287.686 50.5971 288.285 50.6925 288.784 50.9956C289.984 51.7787 291.062 52.7127 292.205 53.5821Z" fill="url(#paint49_linear_6_3525)"/>
<path d="M24.6096 243.056C24.6804 243.687 24.5102 244.321 24.1331 244.831C23.7559 245.342 23.1997 245.691 22.5761 245.808C22.2599 245.884 21.9319 245.896 21.611 245.844C21.2901 245.791 20.9828 245.676 20.7068 245.504C20.4308 245.333 20.1916 245.108 20.0031 244.843C19.8146 244.578 19.6805 244.279 19.6086 243.962C18.4445 240.226 17.2231 236.497 16.2603 232.71C15.1178 228.22 14.2052 223.672 13.2208 219.146C13.12 218.801 13.0914 218.439 13.1368 218.082C13.1822 217.725 13.3006 217.382 13.4847 217.073C13.6687 216.764 13.9145 216.497 14.2066 216.287C14.4987 216.078 14.831 215.931 15.1825 215.855C16.677 215.561 17.9201 216.437 18.2434 218.126C19.7672 226.299 21.8364 234.362 24.4372 242.259C24.513 242.52 24.5706 242.787 24.6096 243.056Z" fill="url(#paint50_linear_6_3525)"/>
<path d="M182.636 15.9919L163.818 17.7881C163.129 17.8971 162.425 17.7326 161.856 17.33C161.287 16.9273 160.897 16.3183 160.771 15.6327C160.716 15.2891 160.733 14.9379 160.821 14.6013C160.909 14.2646 161.065 13.9497 161.281 13.6764C161.496 13.4031 161.765 13.1773 162.072 13.0132C162.379 12.8491 162.716 12.7502 163.063 12.7228C171.584 11.5296 180.183 10.9844 188.787 11.0919C190.576 11.0919 191.589 12.1552 191.546 13.6999C191.503 15.2446 190.468 16.1858 188.672 16.2002C186.667 16.2002 184.662 16.2002 182.65 16.2002L182.636 15.9919Z" fill="url(#paint51_linear_6_3525)"/>
<path d="M43.9596 92.5085C43.6971 93.2007 43.3898 93.8751 43.0398 94.5274C38.6252 101.395 34.6787 108.553 31.2272 115.952C30.4081 117.698 28.9423 118.316 27.5412 117.597C26.14 116.879 25.7161 115.392 26.5927 113.768C30.5015 106.583 34.4966 99.3986 38.4341 92.2139C38.6374 91.8386 38.8782 91.4848 39.1526 91.1578C39.4563 90.7183 39.9087 90.4034 40.4264 90.2713C40.9441 90.1392 41.4921 90.199 41.9692 90.4393C42.8099 90.8489 43.3273 91.8044 43.9596 92.5085Z" fill="url(#paint52_linear_6_3525)"/>
<path d="M355.83 239.881C355.586 240.692 355.342 241.763 354.94 242.754C352.108 249.846 349.263 256.937 346.317 263.992C345.963 264.761 345.388 265.407 344.664 265.846C344.218 266.095 343.698 266.178 343.197 266.079C342.695 265.98 342.245 265.707 341.927 265.307C341.53 264.918 341.271 264.41 341.189 263.86C341.107 263.31 341.207 262.749 341.474 262.261C342.832 259.258 344.291 256.298 345.484 253.23C347.309 248.56 348.954 243.818 350.664 239.112C351.217 237.574 352.302 236.827 353.675 237.057C354.316 237.186 354.887 237.544 355.284 238.063C355.681 238.583 355.875 239.229 355.83 239.881Z" fill="url(#paint53_linear_6_3525)"/>
<path d="M145.2 359.29C143.419 358.823 141.306 358.392 139.273 357.716C133.045 355.662 126.859 353.552 120.713 351.387C118.931 350.762 118.32 349.641 118.665 348.254C119.096 346.508 120.691 345.883 122.66 346.602C127.28 348.276 131.886 349.993 136.549 351.545C139.495 352.522 142.528 353.219 145.517 354.052C145.936 354.147 146.345 354.282 146.738 354.455C147.288 354.706 147.729 355.148 147.979 355.698C148.23 356.248 148.274 356.87 148.103 357.45C147.715 358.744 146.81 359.275 145.2 359.29Z" fill="url(#paint54_linear_6_3525)"/>
<path d="M206.937 12.1622C215.693 13.1387 224.364 14.7719 232.876 17.0478C233.203 17.125 233.512 17.267 233.784 17.4655C234.056 17.664 234.286 17.915 234.459 18.2036C234.633 18.4922 234.747 18.8126 234.794 19.146C234.842 19.4793 234.822 19.8188 234.737 20.1444C234.65 20.4804 234.497 20.796 234.288 21.0726C234.078 21.3493 233.815 21.5815 233.515 21.7559C233.215 21.9304 232.883 22.0435 232.539 22.0888C232.195 22.134 231.845 22.1105 231.51 22.0196C224.354 20.5826 217.192 19.1457 210.026 17.7088C208.949 17.5004 207.871 17.4358 206.757 17.2705C206.412 17.2422 206.077 17.1444 205.771 16.983C205.465 16.8217 205.195 16.6001 204.976 16.3316C204.758 16.0632 204.597 15.7534 204.501 15.4208C204.406 15.0883 204.379 14.7399 204.422 14.3966C204.482 13.7756 204.774 13.2001 205.24 12.7856C205.707 12.3712 206.313 12.1485 206.937 12.1622Z" fill="url(#paint55_linear_6_3525)"/>
<path d="M182.356 364.484C175.939 363.867 169.523 363.285 163.121 362.624C162.769 362.612 162.425 362.526 162.11 362.37C161.795 362.214 161.517 361.993 161.295 361.72C161.073 361.448 160.912 361.131 160.823 360.791C160.734 360.451 160.718 360.096 160.778 359.75C160.832 359.395 160.958 359.055 161.148 358.751C161.337 358.446 161.587 358.183 161.881 357.978C162.176 357.773 162.509 357.63 162.86 357.558C163.212 357.486 163.574 357.486 163.925 357.558C172.068 358.653 180.276 359.179 188.492 359.132C190.303 359.132 191.366 359.85 191.517 361.287C191.747 362.94 190.669 364.161 188.83 364.24C186.674 364.305 184.518 364.24 182.363 364.24L182.356 364.484Z" fill="url(#paint56_linear_6_3525)"/>
<path d="M145.495 16.0421C146.117 16.0092 146.73 16.2058 147.217 16.5947C147.704 16.9835 148.031 17.5374 148.136 18.1515C148.242 18.7655 148.118 19.397 147.789 19.9259C147.46 20.4549 146.948 20.8446 146.35 21.0211C144.116 21.6893 141.802 22.1347 139.589 22.8748C133.977 24.7428 128.401 26.7257 122.804 28.6225C122.191 28.8741 121.534 29.0035 120.871 29.0033C120.31 28.9495 119.784 28.7095 119.375 28.3216C118.967 27.9337 118.7 27.4202 118.617 26.8631C118.535 26.3059 118.641 25.7372 118.919 25.2474C119.197 24.7576 119.632 24.3751 120.153 24.1608C122.768 23.1047 125.369 22.0054 128.056 21.1504C133.467 19.4261 138.921 17.8383 144.367 16.2074C144.738 16.1239 145.116 16.0687 145.495 16.0421Z" fill="url(#paint57_linear_6_3525)"/>
<path d="M310.599 313.035C310.2 313.842 309.718 314.605 309.162 315.313C303.058 321.168 296.536 326.57 289.647 331.478C288.145 332.549 286.607 332.362 285.745 331.076C284.883 329.79 285.17 328.36 286.593 327.347C293.317 322.535 299.692 317.253 305.67 311.541C306.525 310.722 307.574 310.219 308.645 310.901C309.38 311.531 310.036 312.248 310.599 313.035Z" fill="url(#paint58_linear_6_3525)"/>
<path d="M355.859 135.653C355.708 137.018 355.09 137.909 353.811 138.203C353.172 138.363 352.496 138.267 351.928 137.933C351.359 137.6 350.944 137.057 350.772 136.421C349.91 134 349.227 131.5 348.264 129.115C346.145 123.841 343.881 118.632 341.711 113.38C341.401 112.744 341.256 112.04 341.288 111.332C341.343 110.801 341.579 110.305 341.958 109.928C342.336 109.552 342.833 109.317 343.364 109.263C343.913 109.15 344.485 109.232 344.98 109.494C345.476 109.756 345.865 110.183 346.08 110.7C347.1 112.805 348.149 114.903 348.997 117.08C351.218 122.77 353.309 128.497 355.464 134.216C355.627 134.685 355.759 135.165 355.859 135.653Z" fill="url(#paint59_linear_6_3525)"/>
<path d="M363.749 198.82C362.614 206.608 361.507 214.397 360.329 222.185C360.034 224.096 358.741 225.016 357.174 224.692C355.608 224.369 354.918 223.133 355.285 221.229C356.841 213.162 357.868 205.002 358.36 196.801C358.475 194.955 359.617 193.927 361.169 194.085C362.721 194.244 363.548 195.458 363.447 197.182C363.447 197.707 363.368 198.231 363.325 198.756L363.749 198.82Z" fill="url(#paint60_linear_6_3525)"/>
<path d="M207.54 363.155C205.651 363.155 204.544 362.2 204.415 360.863C204.374 360.529 204.4 360.19 204.492 359.865C204.583 359.541 204.739 359.238 204.949 358.975C205.159 358.711 205.419 358.492 205.715 358.33C206.011 358.169 206.336 358.067 206.671 358.033C215.074 357.042 223.398 355.467 231.582 353.319C231.918 353.224 232.27 353.2 232.616 353.247C232.961 353.294 233.294 353.412 233.592 353.593C233.89 353.775 234.147 354.016 234.348 354.301C234.549 354.587 234.688 354.91 234.758 355.252C234.843 355.579 234.858 355.92 234.805 356.254C234.751 356.587 234.629 356.906 234.446 357.19C234.263 357.474 234.023 357.717 233.742 357.904C233.461 358.091 233.144 358.218 232.811 358.277C227.559 359.484 222.299 360.677 217.003 361.726C213.727 362.372 210.393 362.731 207.54 363.155Z" fill="url(#paint61_linear_6_3525)"/>
<path d="M363.354 176.713C363.431 177.429 363.457 178.149 363.433 178.868C363.394 179.521 363.108 180.134 362.633 180.583C362.157 181.032 361.528 181.282 360.875 181.282C360.246 181.284 359.641 181.045 359.183 180.615C358.725 180.185 358.448 179.596 358.41 178.969C358.015 175.075 357.792 171.159 357.303 167.272C356.786 163.112 356.053 158.974 355.407 154.829C355.335 154.354 355.234 153.887 355.205 153.392C355.122 152.741 355.296 152.084 355.689 151.56C356.082 151.035 356.664 150.684 357.312 150.581C357.959 150.479 358.621 150.632 359.158 151.009C359.694 151.386 360.062 151.957 360.185 152.601C360.788 155.59 361.399 158.586 361.801 161.611C362.462 166.64 362.958 171.669 363.519 176.699L363.354 176.713Z" fill="url(#paint62_linear_6_3525)"/>
<path d="M24.6024 132.29C24.5593 132.462 24.4803 132.886 24.3509 133.289C21.8118 141.051 19.7835 148.971 18.2793 156.998C17.9272 158.866 16.677 159.807 15.0962 159.462C13.6592 159.146 12.9406 157.796 13.2783 155.963C14.7673 147.741 16.8321 139.634 19.4577 131.701C20.011 130.005 21.0672 129.272 22.5114 129.545C23.7904 129.739 24.5952 130.709 24.6024 132.29Z" fill="url(#paint63_linear_6_3525)"/>
<path d="M107.478 340.516C107.478 343.175 105.43 344.353 103.468 343.268C100.249 341.486 97.0015 339.676 93.9334 337.714C89.8306 335.085 85.8499 332.268 81.8261 329.517C81.368 329.242 81.0093 328.829 80.8026 328.336C80.5958 327.844 80.5516 327.298 80.6764 326.779C80.7498 326.273 80.9932 325.806 81.3666 325.457C81.74 325.107 82.2214 324.894 82.7315 324.854C83.488 324.812 84.2395 324.999 84.8871 325.393C89.9168 328.676 95.0183 331.902 99.8899 335.451C101.801 336.831 104.065 337.391 105.897 338.778C106.484 339.299 107.014 339.882 107.478 340.516Z" fill="url(#paint64_linear_6_3525)"/>
<path d="M310.556 62.3113C310.032 63.0798 309.411 63.7777 308.709 64.3877C307.732 65.0343 306.676 64.7325 305.835 63.9494C303.96 62.2467 302.163 60.4504 300.209 58.8482C295.898 55.3062 291.479 51.8576 287.11 48.373C286.923 48.2221 286.715 48.1 286.528 47.9563C285.091 46.8283 285.012 45.923 286.169 44.249C286.34 43.9744 286.569 43.7406 286.84 43.5639C287.112 43.3872 287.418 43.2719 287.738 43.226C288.059 43.1802 288.385 43.2048 288.695 43.2984C289.005 43.3919 289.29 43.5521 289.532 43.7676C296.507 48.7296 303.105 54.2026 309.27 60.1415C309.778 60.8143 310.21 61.5422 310.556 62.3113Z" fill="url(#paint65_linear_6_3525)"/>
<path d="M337.716 279.468C337.54 279.964 337.324 280.445 337.07 280.905C332.622 288.104 327.645 294.963 322.182 301.425C321.183 302.603 319.897 302.998 318.891 302.38C317.748 301.662 317.562 300.577 317.928 299.384C318.111 298.698 318.402 298.046 318.79 297.452C323.418 290.985 328.088 284.612 332.715 278.182C333.434 277.155 334.382 276.357 335.59 276.817C336.394 277.126 336.962 278.074 337.609 278.764C337.702 278.901 337.666 279.181 337.716 279.468Z" fill="url(#paint66_linear_6_3525)"/>
<path d="M107.478 34.672C107.215 35.2716 106.834 35.8117 106.357 36.2598C105.18 36.9765 103.964 37.6266 102.714 38.2068C101.275 38.9525 99.8881 39.7925 98.5607 40.7215C94.0915 43.9187 89.4641 46.8931 84.9086 49.9538C83.4716 50.9021 82.1063 50.7585 81.2082 49.5802C80.9709 49.3042 80.7978 48.979 80.7011 48.628C80.6045 48.2771 80.5868 47.9092 80.6493 47.5506C80.7118 47.192 80.853 46.8517 81.0627 46.5542C81.2724 46.2567 81.5454 46.0092 81.8621 45.8298C87.7253 41.9572 93.6316 38.1565 99.5379 34.3343C100.895 33.4479 102.304 32.6419 103.756 31.9202C105.545 31.0437 107.478 32.2724 107.478 34.672Z" fill="url(#paint67_linear_6_3525)"/>
<path d="M319.717 72.2622C320.687 72.8657 321.499 73.1387 321.981 73.6991C327.579 80.2366 332.655 87.2031 337.163 94.5347C337.378 94.8207 337.531 95.1484 337.612 95.4968C337.693 95.8452 337.7 96.2066 337.634 96.5581C337.567 96.9096 337.428 97.2433 337.225 97.5379C337.023 97.8326 336.76 98.0816 336.456 98.2693C336.151 98.4569 335.811 98.5791 335.457 98.6277C335.102 98.6764 334.741 98.6506 334.398 98.552C334.054 98.4535 333.734 98.2842 333.459 98.0551C333.185 97.8261 332.961 97.5423 332.802 97.2218C328.564 90.4505 323.878 83.9699 318.776 77.8231C317.878 76.7454 317.382 75.4593 318.057 74.1086C318.529 73.4241 319.087 72.8035 319.717 72.2622Z" fill="url(#paint68_linear_6_3525)"/>
<path d="M271.899 336.996C273.645 336.407 274.299 337.398 274.816 338.756C275.334 340.114 274.816 341.041 273.595 341.63C267.3 344.698 261.006 347.787 254.697 350.826C253.411 351.451 252.06 351.954 250.724 352.45C248.963 353.104 247.548 352.608 246.973 351.207C246.398 349.806 247.124 348.398 248.877 347.615C254.065 345.33 259.26 343.052 264.412 340.682C266.445 339.748 268.378 338.591 270.368 337.556C270.867 337.34 271.378 337.153 271.899 336.996Z" fill="url(#paint69_linear_6_3525)"/>
<path d="M72.2696 315.995C71.6086 316.785 71.1416 317.655 70.4159 318.15C69.3884 318.804 68.2602 318.467 67.4124 317.633C65.343 315.643 63.1946 313.725 61.2474 311.62C57.4248 307.481 53.674 303.264 49.9664 299.018C48.5293 297.372 49.0251 295.224 50.9436 294.8C51.4135 294.726 51.8939 294.751 52.3533 294.875C52.8127 294.998 53.2408 295.218 53.6094 295.519C54.7447 296.611 55.5135 298.069 56.4835 299.327C57.177 300.205 57.9258 301.037 58.7253 301.82C62.7204 305.786 66.7513 309.723 70.732 313.696C71.3168 314.412 71.8317 315.181 72.2696 315.995Z" fill="url(#paint70_linear_6_3525)"/>
<path d="M72.2697 59.2651C71.9165 60.026 71.4854 60.7483 70.9835 61.4205C67.3908 65.0847 63.7263 68.6052 60.2055 72.3484C58.0499 74.6044 56.1028 77.0471 54.0765 79.4253C52.8335 80.8622 51.3461 81.1783 50.0958 80.1437C48.8456 79.1091 48.8815 77.6291 50.0384 76.2065C55.3346 69.6648 61.098 63.5154 67.2831 57.8066C68.1669 56.9875 69.1943 56.4703 70.2577 57.0881C71.0338 57.5911 71.5511 58.4892 72.2697 59.2651Z" fill="url(#paint71_linear_6_3525)"/>
<path d="M10.3467 189.135C10.4904 184.954 10.6341 180.363 10.8065 175.772C10.818 175.2 10.8952 174.631 11.0365 174.076C11.174 173.509 11.5112 173.012 11.9864 172.674C12.4616 172.336 13.0428 172.181 13.6232 172.237C13.9258 172.234 14.2259 172.291 14.5064 172.404C14.7869 172.518 15.0423 172.685 15.2579 172.898C15.4735 173.11 15.6451 173.362 15.7628 173.641C15.8806 173.92 15.9422 174.219 15.9441 174.522C15.8435 177.661 15.5201 180.801 15.4052 183.941C15.3333 186.017 15.4699 188.108 15.5202 190.184C15.5202 190.421 15.6064 190.651 15.6208 190.903C15.7429 193.963 15.8794 197.024 15.9728 200.085C16.0303 201.866 15.1178 203.023 13.652 203.131C12.1862 203.239 10.9719 202.147 10.8641 200.322C10.6485 196.722 10.5263 193.137 10.3467 189.135Z" fill="url(#paint72_linear_6_3525)"/>
<path d="M43.7008 282.249C43.6361 283.686 43.1116 284.627 41.9332 284.993C41.3861 285.201 40.7825 285.204 40.2333 285.002C39.6841 284.8 39.2263 284.407 38.9441 283.894C37.0113 280.761 35.0138 277.665 33.1959 274.446C31.5792 271.536 30.1996 268.49 28.7194 265.501C28.0009 264.064 27.2033 262.627 26.6357 261.19C26.0681 259.753 26.6357 258.087 27.5339 257.778C28.6835 257.404 30.6954 258.403 31.3277 259.581C34.5372 265.607 37.7657 271.625 41.0135 277.636C41.6458 278.807 42.4506 279.892 43.1691 281.042C43.3764 281.43 43.5542 281.833 43.7008 282.249Z" fill="url(#paint73_linear_6_3525)"/>
<path d="M249.639 22.5155C250.249 22.6877 250.849 22.8939 251.435 23.1333C257.852 26.0934 264.283 29.0319 270.663 32.0782C272.001 32.8019 273.26 33.6615 274.421 34.6432C275.506 35.4766 275.463 36.54 274.421 37.5171C273.085 38.76 272.33 38.7241 270.828 37.7757C269.307 36.8384 267.722 36.0078 266.086 35.2899C260.489 32.7824 254.863 30.3252 249.244 27.8752C248.116 27.3867 247.088 26.9053 246.844 25.4899C246.79 25.1022 246.824 24.7075 246.943 24.3345C247.062 23.9616 247.262 23.62 247.53 23.3347C247.798 23.0495 248.127 22.8279 248.492 22.6861C248.857 22.5444 249.249 22.486 249.639 22.5155Z" fill="url(#paint74_linear_6_3525)"/>
<defs>
<linearGradient id="paint0_linear_6_3525" x1="180.409" y1="368.781" x2="215.983" y2="368.781" gradientUnits="userSpaceOnUse">
<stop stop-color="#1680BF"/>
<stop offset="0.51" stop-color="#1E5C9B"/>
<stop offset="1" stop-color="#1A4484"/>
</linearGradient>
<linearGradient id="paint1_linear_6_3525" x1="180.473" y1="6.5727" x2="215.882" y2="6.5727" gradientUnits="userSpaceOnUse">
<stop stop-color="#1680BF"/>
<stop offset="0.51" stop-color="#1E5C9B"/>
<stop offset="1" stop-color="#1A4484"/>
</linearGradient>
<linearGradient id="paint2_linear_6_3525" x1="0.998657" y1="165.354" x2="13.8244" y2="165.354" gradientUnits="userSpaceOnUse">
<stop stop-color="#1680BF"/>
<stop offset="0.51" stop-color="#1E5C9B"/>
<stop offset="1" stop-color="#1A4484"/>
</linearGradient>
<linearGradient id="paint3_linear_6_3525" x1="0.998573" y1="209.813" x2="13.7525" y2="209.813" gradientUnits="userSpaceOnUse">
<stop stop-color="#1680BF"/>
<stop offset="0.51" stop-color="#1E5C9B"/>
<stop offset="1" stop-color="#1A4484"/>
</linearGradient>
<linearGradient id="paint4_linear_6_3525" x1="363.943" y1="187.77" x2="373.664" y2="187.77" gradientUnits="userSpaceOnUse">
<stop stop-color="#1680BF"/>
<stop offset="0.51" stop-color="#1E5C9B"/>
<stop offset="1" stop-color="#1A4484"/>
</linearGradient>
<linearGradient id="paint5_linear_6_3525" x1="30.2931" y1="292.163" x2="54.4286" y2="292.163" gradientUnits="userSpaceOnUse">
<stop stop-color="#1680BF"/>
<stop offset="0.51" stop-color="#1E5C9B"/>
<stop offset="1" stop-color="#1A4484"/>
</linearGradient>
<linearGradient id="paint6_linear_6_3525" x1="303.802" y1="65.7168" x2="330.416" y2="65.7168" gradientUnits="userSpaceOnUse">
<stop stop-color="#1680BF"/>
<stop offset="0.51" stop-color="#1E5C9B"/>
<stop offset="1" stop-color="#1A4484"/>
</linearGradient>
<linearGradient id="paint7_linear_6_3525" x1="224.799" y1="359.01" x2="258.7" y2="359.01" gradientUnits="userSpaceOnUse">
<stop stop-color="#1680BF"/>
<stop offset="0.51" stop-color="#1E5C9B"/>
<stop offset="1" stop-color="#1A4484"/>
</linearGradient>
<linearGradient id="paint8_linear_6_3525" x1="95.3201" y1="350.144" x2="127.891" y2="350.144" gradientUnits="userSpaceOnUse">
<stop stop-color="#1680BF"/>
<stop offset="0.51" stop-color="#1E5C9B"/>
<stop offset="1" stop-color="#1A4484"/>
</linearGradient>
<linearGradient id="paint9_linear_6_3525" x1="333.513" y1="273.167" x2="354.997" y2="273.167" gradientUnits="userSpaceOnUse">
<stop stop-color="#1680BF"/>
<stop offset="0.51" stop-color="#1E5C9B"/>
<stop offset="1" stop-color="#1A4484"/>
</linearGradient>
<linearGradient id="paint10_linear_6_3525" x1="30.2571" y1="83.2403" x2="54.3782" y2="83.2403" gradientUnits="userSpaceOnUse">
<stop stop-color="#1680BF"/>
<stop offset="0.51" stop-color="#1E5C9B"/>
<stop offset="1" stop-color="#1A4484"/>
</linearGradient>
<linearGradient id="paint11_linear_6_3525" x1="136.427" y1="365.217" x2="171.398" y2="365.217" gradientUnits="userSpaceOnUse">
<stop stop-color="#1680BF"/>
<stop offset="0.51" stop-color="#1E5C9B"/>
<stop offset="1" stop-color="#1A4484"/>
</linearGradient>
<linearGradient id="paint12_linear_6_3525" x1="353.984" y1="143.714" x2="369.619" y2="143.714" gradientUnits="userSpaceOnUse">
<stop stop-color="#1680BF"/>
<stop offset="0.51" stop-color="#1E5C9B"/>
<stop offset="1" stop-color="#1A4484"/>
</linearGradient>
<linearGradient id="paint13_linear_6_3525" x1="224.756" y1="16.3726" x2="258.75" y2="16.3726" gradientUnits="userSpaceOnUse">
<stop stop-color="#1680BF"/>
<stop offset="0.51" stop-color="#1E5C9B"/>
<stop offset="1" stop-color="#1A4484"/>
</linearGradient>
<linearGradient id="paint14_linear_6_3525" x1="333.506" y1="102.143" x2="354.997" y2="102.143" gradientUnits="userSpaceOnUse">
<stop stop-color="#1680BF"/>
<stop offset="0.51" stop-color="#1E5C9B"/>
<stop offset="1" stop-color="#1A4484"/>
</linearGradient>
<linearGradient id="paint15_linear_6_3525" x1="136.513" y1="10.1005" x2="171.355" y2="10.1005" gradientUnits="userSpaceOnUse">
<stop stop-color="#1680BF"/>
<stop offset="0.51" stop-color="#1E5C9B"/>
<stop offset="1" stop-color="#1A4484"/>
</linearGradient>
<linearGradient id="paint16_linear_6_3525" x1="354.027" y1="231.654" x2="369.763" y2="231.654" gradientUnits="userSpaceOnUse">
<stop stop-color="#1680BF"/>
<stop offset="0.51" stop-color="#1E5C9B"/>
<stop offset="1" stop-color="#1A4484"/>
</linearGradient>
<linearGradient id="paint17_linear_6_3525" x1="95.3632" y1="25.1665" x2="127.841" y2="25.1665" gradientUnits="userSpaceOnUse">
<stop stop-color="#1680BF"/>
<stop offset="0.51" stop-color="#1E5C9B"/>
<stop offset="1" stop-color="#1A4484"/>
</linearGradient>
<linearGradient id="paint18_linear_6_3525" x1="266.869" y1="338.857" x2="297.709" y2="338.857" gradientUnits="userSpaceOnUse">
<stop stop-color="#1680BF"/>
<stop offset="0.51" stop-color="#1E5C9B"/>
<stop offset="1" stop-color="#1A4484"/>
</linearGradient>
<linearGradient id="paint19_linear_6_3525" x1="59.1492" y1="325.335" x2="87.9695" y2="325.335" gradientUnits="userSpaceOnUse">
<stop stop-color="#1680BF"/>
<stop offset="0.51" stop-color="#1E5C9B"/>
<stop offset="1" stop-color="#1A4484"/>
</linearGradient>
<linearGradient id="paint20_linear_6_3525" x1="59.2283" y1="50.119" x2="88.0055" y2="50.119" gradientUnits="userSpaceOnUse">
<stop stop-color="#1680BF"/>
<stop offset="0.51" stop-color="#1E5C9B"/>
<stop offset="1" stop-color="#1A4484"/>
</linearGradient>
<linearGradient id="paint21_linear_6_3525" x1="303.838" y1="309.644" x2="330.387" y2="309.644" gradientUnits="userSpaceOnUse">
<stop stop-color="#1680BF"/>
<stop offset="0.51" stop-color="#1E5C9B"/>
<stop offset="1" stop-color="#1A4484"/>
</linearGradient>
<linearGradient id="paint22_linear_6_3525" x1="10.4113" y1="122.548" x2="29.1075" y2="122.548" gradientUnits="userSpaceOnUse">
<stop stop-color="#1680BF"/>
<stop offset="0.51" stop-color="#1E5C9B"/>
<stop offset="1" stop-color="#1A4484"/>
</linearGradient>
<linearGradient id="paint23_linear_6_3525" x1="266.833" y1="36.4826" x2="297.687" y2="36.4826" gradientUnits="userSpaceOnUse">
<stop stop-color="#1680BF"/>
<stop offset="0.51" stop-color="#1E5C9B"/>
<stop offset="1" stop-color="#1A4484"/>
</linearGradient>
<linearGradient id="paint24_linear_6_3525" x1="10.4473" y1="252.791" x2="28.4321" y2="252.791" gradientUnits="userSpaceOnUse">
<stop stop-color="#1680BF"/>
<stop offset="0.51" stop-color="#1E5C9B"/>
<stop offset="1" stop-color="#1A4484"/>
</linearGradient>
<linearGradient id="paint25_linear_6_3525" x1="180.732" y1="22.1563" x2="214.833" y2="22.1563" gradientUnits="userSpaceOnUse">
<stop stop-color="#1680BF"/>
<stop offset="0.51" stop-color="#1E5C9B"/>
<stop offset="1" stop-color="#1A4484"/>
</linearGradient>
<linearGradient id="paint26_linear_6_3525" x1="180.832" y1="353.183" x2="214.819" y2="353.183" gradientUnits="userSpaceOnUse">
<stop stop-color="#1680BF"/>
<stop offset="0.51" stop-color="#1E5C9B"/>
<stop offset="1" stop-color="#1A4484"/>
</linearGradient>
<linearGradient id="paint27_linear_6_3525" x1="65.9179" y1="317.475" x2="92.7549" y2="317.475" gradientUnits="userSpaceOnUse">
<stop stop-color="#1680BF"/>
<stop offset="0.51" stop-color="#1E5C9B"/>
<stop offset="1" stop-color="#1A4484"/>
</linearGradient>
<linearGradient id="paint28_linear_6_3525" x1="138.568" y1="351.128" x2="171.937" y2="351.128" gradientUnits="userSpaceOnUse">
<stop stop-color="#1680BF"/>
<stop offset="0.51" stop-color="#1E5C9B"/>
<stop offset="1" stop-color="#1A4484"/>
</linearGradient>
<linearGradient id="paint29_linear_6_3525" x1="99.4374" y1="36.08" x2="130.305" y2="36.08" gradientUnits="userSpaceOnUse">
<stop stop-color="#1680BF"/>
<stop offset="0.51" stop-color="#1E5C9B"/>
<stop offset="1" stop-color="#1A4484"/>
</linearGradient>
<linearGradient id="paint30_linear_6_3525" x1="65.882" y1="57.8281" x2="92.7047" y2="57.8281" gradientUnits="userSpaceOnUse">
<stop stop-color="#1680BF"/>
<stop offset="0.51" stop-color="#1E5C9B"/>
<stop offset="1" stop-color="#1A4484"/>
</linearGradient>
<linearGradient id="paint31_linear_6_3525" x1="223.19" y1="346.48" x2="255.596" y2="346.48" gradientUnits="userSpaceOnUse">
<stop stop-color="#1680BF"/>
<stop offset="0.51" stop-color="#1E5C9B"/>
<stop offset="1" stop-color="#1A4484"/>
</linearGradient>
<linearGradient id="paint32_linear_6_3525" x1="138.568" y1="24.2183" x2="172.016" y2="24.2183" gradientUnits="userSpaceOnUse">
<stop stop-color="#1680BF"/>
<stop offset="0.51" stop-color="#1E5C9B"/>
<stop offset="1" stop-color="#1A4484"/>
</linearGradient>
<linearGradient id="paint33_linear_6_3525" x1="348.236" y1="187.727" x2="357.031" y2="187.727" gradientUnits="userSpaceOnUse">
<stop stop-color="#1680BF"/>
<stop offset="0.51" stop-color="#1E5C9B"/>
<stop offset="1" stop-color="#1A4484"/>
</linearGradient>
<linearGradient id="paint34_linear_6_3525" x1="23.1365" y1="250.054" x2="39.8495" y2="250.054" gradientUnits="userSpaceOnUse">
<stop stop-color="#1680BF"/>
<stop offset="0.51" stop-color="#1E5C9B"/>
<stop offset="1" stop-color="#1A4484"/>
</linearGradient>
<linearGradient id="paint35_linear_6_3525" x1="297.723" y1="303.221" x2="322.29" y2="303.221" gradientUnits="userSpaceOnUse">
<stop stop-color="#1680BF"/>
<stop offset="0.51" stop-color="#1E5C9B"/>
<stop offset="1" stop-color="#1A4484"/>
</linearGradient>
<linearGradient id="paint36_linear_6_3525" x1="341.596" y1="145.481" x2="355.565" y2="145.481" gradientUnits="userSpaceOnUse">
<stop stop-color="#1680BF"/>
<stop offset="0.51" stop-color="#1E5C9B"/>
<stop offset="1" stop-color="#1A4484"/>
</linearGradient>
<linearGradient id="paint37_linear_6_3525" x1="297.709" y1="72.1256" x2="322.39" y2="72.1256" gradientUnits="userSpaceOnUse">
<stop stop-color="#1680BF"/>
<stop offset="0.51" stop-color="#1E5C9B"/>
<stop offset="1" stop-color="#1A4484"/>
</linearGradient>
<linearGradient id="paint38_linear_6_3525" x1="16.8062" y1="208.828" x2="27.8213" y2="208.828" gradientUnits="userSpaceOnUse">
<stop stop-color="#1680BF"/>
<stop offset="0.51" stop-color="#1E5C9B"/>
<stop offset="1" stop-color="#1A4484"/>
</linearGradient>
<linearGradient id="paint39_linear_6_3525" x1="341.597" y1="229.865" x2="355.479" y2="229.865" gradientUnits="userSpaceOnUse">
<stop stop-color="#1680BF"/>
<stop offset="0.51" stop-color="#1E5C9B"/>
<stop offset="1" stop-color="#1A4484"/>
</linearGradient>
<linearGradient id="paint40_linear_6_3525" x1="223.183" y1="28.8021" x2="255.581" y2="28.8021" gradientUnits="userSpaceOnUse">
<stop stop-color="#1680BF"/>
<stop offset="0.51" stop-color="#1E5C9B"/>
<stop offset="1" stop-color="#1A4484"/>
</linearGradient>
<linearGradient id="paint41_linear_6_3525" x1="23.1294" y1="125.235" x2="39.8712" y2="125.235" gradientUnits="userSpaceOnUse">
<stop stop-color="#1680BF"/>
<stop offset="0.51" stop-color="#1E5C9B"/>
<stop offset="1" stop-color="#1A4484"/>
</linearGradient>
<linearGradient id="paint42_linear_6_3525" x1="263.269" y1="329.553" x2="292.233" y2="329.553" gradientUnits="userSpaceOnUse">
<stop stop-color="#1680BF"/>
<stop offset="0.51" stop-color="#1E5C9B"/>
<stop offset="1" stop-color="#1A4484"/>
</linearGradient>
<linearGradient id="paint43_linear_6_3525" x1="324.409" y1="269.273" x2="343.896" y2="269.273" gradientUnits="userSpaceOnUse">
<stop stop-color="#1680BF"/>
<stop offset="0.51" stop-color="#1E5C9B"/>
<stop offset="1" stop-color="#1A4484"/>
</linearGradient>
<linearGradient id="paint44_linear_6_3525" x1="324.409" y1="106.037" x2="343.903" y2="106.037" gradientUnits="userSpaceOnUse">
<stop stop-color="#1680BF"/>
<stop offset="0.51" stop-color="#1E5C9B"/>
<stop offset="1" stop-color="#1A4484"/>
</linearGradient>
<linearGradient id="paint45_linear_6_3525" x1="16.835" y1="166.396" x2="27.8214" y2="166.396" gradientUnits="userSpaceOnUse">
<stop stop-color="#1680BF"/>
<stop offset="0.51" stop-color="#1E5C9B"/>
<stop offset="1" stop-color="#1A4484"/>
</linearGradient>
<linearGradient id="paint46_linear_6_3525" x1="100.458" y1="339.245" x2="130.277" y2="339.245" gradientUnits="userSpaceOnUse">
<stop stop-color="#1680BF"/>
<stop offset="0.51" stop-color="#1E5C9B"/>
<stop offset="1" stop-color="#1A4484"/>
</linearGradient>
<linearGradient id="paint47_linear_6_3525" x1="39.8064" y1="88.3487" x2="61.9947" y2="88.3487" gradientUnits="userSpaceOnUse">
<stop stop-color="#1680BF"/>
<stop offset="0.51" stop-color="#1E5C9B"/>
<stop offset="1" stop-color="#1A4484"/>
</linearGradient>
<linearGradient id="paint48_linear_6_3525" x1="39.7777" y1="286.667" x2="62.0521" y2="286.667" gradientUnits="userSpaceOnUse">
<stop stop-color="#1680BF"/>
<stop offset="0.51" stop-color="#1E5C9B"/>
<stop offset="1" stop-color="#1A4484"/>
</linearGradient>
<linearGradient id="paint49_linear_6_3525" x1="263.657" y1="46.0956" x2="292.205" y2="46.0956" gradientUnits="userSpaceOnUse">
<stop stop-color="#1680BF"/>
<stop offset="0.51" stop-color="#1E5C9B"/>
<stop offset="1" stop-color="#1A4484"/>
</linearGradient>
<linearGradient id="paint50_linear_6_3525" x1="13.1418" y1="230.835" x2="24.6096" y2="230.835" gradientUnits="userSpaceOnUse">
<stop stop-color="#1680BF"/>
<stop offset="0.51" stop-color="#1E5C9B"/>
<stop offset="1" stop-color="#1A4484"/>
</linearGradient>
<linearGradient id="paint51_linear_6_3525" x1="160.735" y1="14.4256" x2="191.546" y2="14.4256" gradientUnits="userSpaceOnUse">
<stop stop-color="#1680BF"/>
<stop offset="0.51" stop-color="#1E5C9B"/>
<stop offset="1" stop-color="#1A4484"/>
</linearGradient>
<linearGradient id="paint52_linear_6_3525" x1="26.1472" y1="104.026" x2="43.9596" y2="104.026" gradientUnits="userSpaceOnUse">
<stop stop-color="#1680BF"/>
<stop offset="0.51" stop-color="#1E5C9B"/>
<stop offset="1" stop-color="#1A4484"/>
</linearGradient>
<linearGradient id="paint53_linear_6_3525" x1="341.201" y1="251.599" x2="355.83" y2="251.599" gradientUnits="userSpaceOnUse">
<stop stop-color="#1680BF"/>
<stop offset="0.51" stop-color="#1E5C9B"/>
<stop offset="1" stop-color="#1A4484"/>
</linearGradient>
<linearGradient id="paint54_linear_6_3525" x1="118.572" y1="352.802" x2="148.197" y2="352.802" gradientUnits="userSpaceOnUse">
<stop stop-color="#1680BF"/>
<stop offset="0.51" stop-color="#1E5C9B"/>
<stop offset="1" stop-color="#1A4484"/>
</linearGradient>
<linearGradient id="paint55_linear_6_3525" x1="204.407" y1="17.1268" x2="234.83" y2="17.1268" gradientUnits="userSpaceOnUse">
<stop stop-color="#1680BF"/>
<stop offset="0.51" stop-color="#1E5C9B"/>
<stop offset="1" stop-color="#1A4484"/>
</linearGradient>
<linearGradient id="paint56_linear_6_3525" x1="160.75" y1="361.014" x2="191.553" y2="361.014" gradientUnits="userSpaceOnUse">
<stop stop-color="#1680BF"/>
<stop offset="0.51" stop-color="#1E5C9B"/>
<stop offset="1" stop-color="#1A4484"/>
</linearGradient>
<linearGradient id="paint57_linear_6_3525" x1="118.593" y1="22.5371" x2="148.19" y2="22.5371" gradientUnits="userSpaceOnUse">
<stop stop-color="#1680BF"/>
<stop offset="0.51" stop-color="#1E5C9B"/>
<stop offset="1" stop-color="#1A4484"/>
</linearGradient>
<linearGradient id="paint58_linear_6_3525" x1="285.228" y1="321.376" x2="310.599" y2="321.376" gradientUnits="userSpaceOnUse">
<stop stop-color="#1680BF"/>
<stop offset="0.51" stop-color="#1E5C9B"/>
<stop offset="1" stop-color="#1A4484"/>
</linearGradient>
<linearGradient id="paint59_linear_6_3525" x1="341.266" y1="123.755" x2="355.859" y2="123.755" gradientUnits="userSpaceOnUse">
<stop stop-color="#1680BF"/>
<stop offset="0.51" stop-color="#1E5C9B"/>
<stop offset="1" stop-color="#1A4484"/>
</linearGradient>
<linearGradient id="paint60_linear_6_3525" x1="355.191" y1="209.418" x2="363.749" y2="209.418" gradientUnits="userSpaceOnUse">
<stop stop-color="#1680BF"/>
<stop offset="0.51" stop-color="#1E5C9B"/>
<stop offset="1" stop-color="#1A4484"/>
</linearGradient>
<linearGradient id="paint61_linear_6_3525" x1="204.4" y1="358.191" x2="234.837" y2="358.191" gradientUnits="userSpaceOnUse">
<stop stop-color="#1680BF"/>
<stop offset="0.51" stop-color="#1E5C9B"/>
<stop offset="1" stop-color="#1A4484"/>
</linearGradient>
<linearGradient id="paint62_linear_6_3525" x1="355.198" y1="165.914" x2="363.519" y2="165.914" gradientUnits="userSpaceOnUse">
<stop stop-color="#1680BF"/>
<stop offset="0.51" stop-color="#1E5C9B"/>
<stop offset="1" stop-color="#1A4484"/>
</linearGradient>
<linearGradient id="paint63_linear_6_3525" x1="13.1993" y1="144.504" x2="24.6024" y2="144.504" gradientUnits="userSpaceOnUse">
<stop stop-color="#1680BF"/>
<stop offset="0.51" stop-color="#1E5C9B"/>
<stop offset="1" stop-color="#1A4484"/>
</linearGradient>
<linearGradient id="paint64_linear_6_3525" x1="80.5974" y1="334.258" x2="107.463" y2="334.258" gradientUnits="userSpaceOnUse">
<stop stop-color="#1680BF"/>
<stop offset="0.51" stop-color="#1E5C9B"/>
<stop offset="1" stop-color="#1A4484"/>
</linearGradient>
<linearGradient id="paint65_linear_6_3525" x1="285.35" y1="53.9771" x2="310.556" y2="53.9771" gradientUnits="userSpaceOnUse">
<stop stop-color="#1680BF"/>
<stop offset="0.51" stop-color="#1E5C9B"/>
<stop offset="1" stop-color="#1A4484"/>
</linearGradient>
<linearGradient id="paint66_linear_6_3525" x1="317.763" y1="289.699" x2="337.716" y2="289.699" gradientUnits="userSpaceOnUse">
<stop stop-color="#1680BF"/>
<stop offset="0.51" stop-color="#1E5C9B"/>
<stop offset="1" stop-color="#1A4484"/>
</linearGradient>
<linearGradient id="paint67_linear_6_3525" x1="80.5759" y1="41.1095" x2="107.456" y2="41.1095" gradientUnits="userSpaceOnUse">
<stop stop-color="#1680BF"/>
<stop offset="0.51" stop-color="#1E5C9B"/>
<stop offset="1" stop-color="#1A4484"/>
</linearGradient>
<linearGradient id="paint68_linear_6_3525" x1="317.734" y1="85.4461" x2="337.645" y2="85.4461" gradientUnits="userSpaceOnUse">
<stop stop-color="#1680BF"/>
<stop offset="0.51" stop-color="#1E5C9B"/>
<stop offset="1" stop-color="#1A4484"/>
</linearGradient>
<linearGradient id="paint69_linear_6_3525" x1="246.772" y1="344.784" x2="275.025" y2="344.784" gradientUnits="userSpaceOnUse">
<stop stop-color="#1680BF"/>
<stop offset="0.51" stop-color="#1E5C9B"/>
<stop offset="1" stop-color="#1A4484"/>
</linearGradient>
<linearGradient id="paint70_linear_6_3525" x1="49.1257" y1="306.59" x2="72.2624" y2="306.59" gradientUnits="userSpaceOnUse">
<stop stop-color="#1680BF"/>
<stop offset="0.51" stop-color="#1E5C9B"/>
<stop offset="1" stop-color="#1A4484"/>
</linearGradient>
<linearGradient id="paint71_linear_6_3525" x1="49.1618" y1="68.8279" x2="72.2481" y2="68.8279" gradientUnits="userSpaceOnUse">
<stop stop-color="#1680BF"/>
<stop offset="0.51" stop-color="#1E5C9B"/>
<stop offset="1" stop-color="#1A4484"/>
</linearGradient>
<linearGradient id="paint72_linear_6_3525" x1="10.3467" y1="187.677" x2="15.98" y2="187.677" gradientUnits="userSpaceOnUse">
<stop stop-color="#1680BF"/>
<stop offset="0.51" stop-color="#1E5C9B"/>
<stop offset="1" stop-color="#1A4484"/>
</linearGradient>
<linearGradient id="paint73_linear_6_3525" x1="26.4345" y1="271.4" x2="43.7008" y2="271.4" gradientUnits="userSpaceOnUse">
<stop stop-color="#1680BF"/>
<stop offset="0.51" stop-color="#1E5C9B"/>
<stop offset="1" stop-color="#1A4484"/>
</linearGradient>
<linearGradient id="paint74_linear_6_3525" x1="246.815" y1="30.4833" x2="275.219" y2="30.4833" gradientUnits="userSpaceOnUse">
<stop stop-color="#1680BF"/>
<stop offset="0.51" stop-color="#1E5C9B"/>
<stop offset="1" stop-color="#1A4484"/>
</linearGradient>
</defs>
</svg>
