<svg width="585" height="652" viewBox="0 0 585 652" fill="none" xmlns="http://www.w3.org/2000/svg">
<path d="M585 475.979V365.021C585 351.964 578.039 339.905 566.751 333.371L470.755 277.892C459.455 271.369 445.545 271.369 434.245 277.892L338.249 333.371C326.949 339.893 320 351.964 320 365.021V475.979C320 489.036 326.961 501.095 338.249 507.629L434.245 563.108C445.545 569.631 459.455 569.631 470.755 563.108L566.751 507.629C578.039 501.107 585 489.036 585 475.979Z" fill="#ECEFFF"/>
<path d="M573 468.987V372.013C573 358.964 566.037 346.913 554.744 340.382L470.762 291.889C459.457 285.37 445.543 285.37 434.238 291.889L350.256 340.382C338.951 346.901 332 358.964 332 372.013V468.987C332 482.036 338.963 494.087 350.256 500.618L434.238 549.111C445.543 555.63 459.457 555.63 470.762 549.111L554.744 500.618C566.037 494.087 573 482.036 573 468.987Z" stroke="white" stroke-miterlimit="10"/>
<path d="M436.806 460.356H404.19V445.269H436.806V433.728H404.19V418.64H430.038L398.889 356.342H431.035L441.795 384.618C445.257 393.983 448.708 403.348 452.411 412.593H453.264C456.871 403.168 460.429 393.803 463.952 384.618L474.711 356.342H506.089L474.856 418.628H500.775V433.716H468.087V445.257H500.775V460.344H468.087V491.553H436.782V460.356H436.806Z" fill="#4161F5"/>
<path d="M292 550.621V428.379C292 413.994 284.33 400.709 271.891 393.51L166.115 332.389C153.663 325.204 138.337 325.204 125.885 332.389L20.1087 393.51C7.65667 400.696 0 413.994 0 428.379V550.621C0 565.006 7.66992 578.291 20.1087 585.49L125.885 646.611C138.337 653.796 153.663 653.796 166.115 646.611L271.891 585.49C284.33 578.304 292 565.006 292 550.621Z" fill="#ECEFFF"/>
<path d="M279 542.39V435.61C279 421.241 271.314 407.971 258.85 400.78L166.157 347.383C153.679 340.206 138.321 340.206 125.843 347.383L33.1501 400.78C20.6724 407.958 13 421.241 13 435.61V542.39C13 556.759 20.6857 570.029 33.1501 577.22L125.843 630.617C138.321 637.794 153.679 637.794 166.157 630.617L258.85 577.22C271.314 570.029 279 556.759 279 542.39Z" stroke="white" stroke-miterlimit="10"/>
<path d="M179.902 527.49C173.951 535.631 167.232 540.266 158.259 540.266C145.112 540.266 135.967 530.757 131.819 513.518H172.122V496.081H129.473C129.367 493.863 129.301 491.592 129.301 489.228C129.301 487.528 129.341 485.868 129.394 484.247H181.519V466.81H131.395C135.199 448.894 144.145 438.734 157.676 438.734C165.854 438.734 172.056 442.997 177.941 449L197.025 430.341C186.966 418.614 172.918 412 158.829 412C127.565 412 103.987 431.961 96.8569 467.009L82 468.138V484.247H94.7762C94.6834 486.266 94.6171 488.298 94.6171 490.383C94.6171 492.442 94.6834 494.447 94.7629 496.426L82 497.409V513.518H96.7774C103.722 548.566 126.902 567 156.245 567C173.222 567 187.629 559.31 199 545.273L179.902 527.49Z" fill="#4161F5"/>
<path d="M412 224.997V102.003C412 87.5295 403.936 74.163 390.858 66.9194L279.649 5.42265C266.557 -1.80755 250.443 -1.80755 237.351 5.42265L126.142 66.9194C113.05 74.1496 105 87.5295 105 102.003V224.997C105 239.471 113.064 252.837 126.142 260.081L237.351 321.577C250.443 328.808 266.557 328.808 279.649 321.577L390.858 260.081C403.936 252.85 412 239.471 412 224.997Z" fill="#ECEFFF"/>
<path d="M398 217.072V109.928C398 95.5105 389.939 82.1956 376.865 74.9801L279.642 21.4017C266.554 14.1994 250.446 14.1994 237.358 21.4017L140.135 74.9801C127.047 82.1823 119 95.5105 119 109.928V217.072C119 231.49 127.061 244.804 140.135 252.02L237.358 305.598C250.446 312.801 266.554 312.801 279.642 305.598L376.865 252.02C389.939 244.804 398 231.49 398 217.072Z" stroke="white" stroke-miterlimit="10"/>
<path d="M311 194.76C311 149.371 246.406 151.355 246.406 128.715C246.406 118.045 252.788 113.447 264.557 113.447C274.766 113.447 282.308 117.576 291.205 125.431L309.204 105.431C299.755 95.7127 288.387 88.3133 272.901 86.0345V62H249.031V86.5171C225.989 90.9674 211.954 107.093 211.954 130.364C211.954 173.205 276.548 172.763 276.548 197.199C276.548 208.003 270.442 213.58 256.573 213.58C245.011 213.58 234.125 208.861 221.693 199.612L206 223.218C217.687 233.486 234.705 239.612 249.031 241.26V265H272.901V240.161C298.029 235 311 217.507 311 194.76Z" fill="#4161F5"/>
</svg>
