<svg width="35" height="35" viewBox="0 0 35 35" fill="none" xmlns="http://www.w3.org/2000/svg">
<path fill-rule="evenodd" clip-rule="evenodd" d="M9.65342 3.67723C9.98717 3.48454 10.3984 3.48454 10.7321 3.67723L15.7143 6.55373C16.0481 6.74642 16.2537 7.10252 16.2537 7.4879V9.28571H18.5143V7.4879C18.5143 7.10252 18.7199 6.74642 19.0537 6.55373L24.0359 3.67723C24.3697 3.48454 24.7809 3.48454 25.1146 3.67723L30.0968 6.55373C30.4306 6.74642 30.6362 7.10252 30.6362 7.4879V13.2409C30.6362 13.6263 30.4306 13.9824 30.0968 14.1751L25.6539 16.7402V18.3711L30.0968 20.9362C30.4306 21.1289 30.6362 21.485 30.6362 21.8704V27.6234C30.6362 28.0088 30.4306 28.3649 30.0968 28.5576L25.1308 31.4247C24.9819 31.5143 24.8096 31.569 24.6252 31.5774C24.6143 31.5779 24.6033 31.5783 24.5924 31.5784L24.5753 31.5786L24.5552 31.5784L24.5403 31.578C24.3503 31.572 24.1727 31.5168 24.0197 31.4247L19.0537 28.5576C18.7199 28.3649 18.5143 28.0088 18.5143 27.6234V25.8256H16.2537V27.6234C16.2537 28.0088 16.0481 28.3649 15.7143 28.5576L10.7483 31.4247C10.5954 31.5168 10.4177 31.572 10.2277 31.578C10.216 31.5784 10.2044 31.5786 10.1928 31.5786C10.1761 31.5786 10.1595 31.5782 10.1428 31.5774C9.95844 31.569 9.78613 31.5143 9.63724 31.4247L4.67118 28.5576C4.33743 28.3649 4.13184 28.0088 4.13184 27.6234V21.8704C4.13184 21.485 4.33743 21.1289 4.67118 20.9362L9.11408 18.3711V16.7402L4.67118 14.1751C4.33743 13.9824 4.13184 13.6263 4.13184 13.2409V7.4879C4.13184 7.10252 4.33743 6.74642 4.67118 6.55373L9.65342 3.67723ZM11.2715 28.6315L14.0963 27.0006V24.0011L11.2715 25.4136V28.6315ZM9.11408 25.4136V28.6315L6.28921 27.0006V24.0011L9.11408 25.4136ZM16.2537 23.6682H18.5143V21.8704C18.5143 21.485 18.7199 21.1289 19.0537 20.9362L23.4966 18.3711V16.7402L19.0537 14.1751C18.7199 13.9824 18.5143 13.6263 18.5143 13.2409V11.4431H16.2537V13.2409C16.2537 13.6263 16.0481 13.9824 15.7143 14.1751L11.2715 16.7402V18.3711L15.7143 20.9362C16.0481 21.1289 16.2537 21.485 16.2537 21.8704V23.6682ZM10.1928 5.85696L7.12837 7.62619L10.1928 9.15839L13.2572 7.62619L10.1928 5.85696ZM6.28921 12.6181V9.61863L9.11408 11.0311V14.2491L6.28921 12.6181ZM11.2715 14.2491L14.0963 12.6181V9.61863L11.2715 11.0311V14.2491ZM25.6539 28.6315L28.4788 27.0006V24.0011L25.6539 25.4136V28.6315ZM23.4966 25.4136L20.6717 24.0011V27.0006L23.4966 28.6315V25.4136ZM24.5753 9.15839L21.5109 7.62619L24.5753 5.85696L27.6397 7.62619L24.5753 9.15839ZM25.6539 11.0311L28.4788 9.61863V12.6181L25.6539 14.2491V11.0311ZM23.4966 11.0311L20.6717 9.61863V12.6181L23.4966 14.2491V11.0311ZM24.5753 23.5409L21.5109 22.0087L24.5753 20.2395L27.6397 22.0087L24.5753 23.5409ZM10.1928 23.5409L7.12837 22.0087L10.1928 20.2395L13.2572 22.0087L10.1928 23.5409Z" fill="#4161F5"/>
</svg>
