<svg width="100" height="107" viewBox="0 0 100 107" fill="none" xmlns="http://www.w3.org/2000/svg">
<path d="M68.5945 51.8096L53.1461 45.0704C49.0576 43.2814 44.9764 41.478 40.8808 39.7106C40.6625 39.6458 40.4746 39.5053 40.3508 39.3143C40.227 39.1233 40.1754 38.8944 40.2053 38.6688C40.2341 29.7359 40.2341 20.8005 40.2053 11.8628C40.2053 8.27041 40.2053 4.6134 40.2053 0.985143V0.489442L40.3778 0.424805C50.9545 18.0033 61.5289 35.5841 72.1009 53.1674" fill="url(#paint0_linear_6_3080)"/>
<path d="M8.64026 53.1818L40.04 0.424805L40.234 0.467867V3.29148C40.234 10.4762 40.234 17.6824 40.234 24.9101C40.234 29.494 40.234 34.085 40.234 38.676C40.2633 38.8876 40.2156 39.1027 40.0995 39.282C39.9834 39.4614 39.8068 39.5931 39.6017 39.6531C32.0524 42.9437 24.5126 46.2463 16.9824 49.5608C14.4532 50.6744 11.9527 51.7952 9.4019 52.9016C9.22227 52.9806 9.03545 53.0381 8.64026 53.1818Z" fill="url(#paint1_linear_6_3080)"/>
<path d="M8.64026 53.1818C19.2961 48.3825 29.6429 43.6406 40.2197 38.8772V72.293C29.6213 65.9059 19.2889 59.5906 8.64026 53.1818Z" fill="url(#paint2_linear_6_3080)"/>
<path d="M72.1081 53.1459C61.4739 59.5403 50.842 65.9179 40.2125 72.2787V38.8987C50.8037 43.6549 61.4523 48.3538 72.1081 53.1459Z" fill="url(#paint3_linear_6_3080)"/>
<path d="M40.2412 105.903C29.7147 90.5996 19.296 75.4616 8.88452 60.3163L8.97793 60.1941L11.3491 61.631L34.5289 75.5549C36.2246 76.5752 37.9131 77.6169 39.6304 78.6084C39.845 78.7116 40.022 78.8792 40.1367 79.0879C40.2514 79.2966 40.2979 79.5359 40.2699 79.7723C40.2699 87.7425 40.2699 95.7152 40.2699 103.69L40.2412 105.903Z" fill="url(#paint4_linear_6_3080)"/>
<path d="M40.27 105.623V105.048C40.27 96.5844 40.27 88.1185 40.27 79.6502C40.2477 79.4608 40.2848 79.2692 40.3762 79.1018C40.4676 78.9345 40.6088 78.7997 40.7801 78.7161C45.029 76.1775 49.2708 73.627 53.5053 71.0644L68.7094 61.8824C69.6317 61.3079 70.592 60.7966 71.5835 60.3521L40.4137 105.673L40.27 105.623Z" fill="url(#paint5_linear_6_3080)"/>
<defs>
<linearGradient id="paint0_linear_6_3080" x1="40.2053" y1="26.7782" x2="72.1153" y2="26.7782" gradientUnits="userSpaceOnUse">
<stop stop-color="#1680BF"/>
<stop offset="0.51" stop-color="#1E5C9B"/>
<stop offset="1" stop-color="#1A4484"/>
</linearGradient>
<linearGradient id="paint1_linear_6_3080" x1="8.64026" y1="26.7997" x2="40.2341" y2="26.7997" gradientUnits="userSpaceOnUse">
<stop stop-color="#1680BF"/>
<stop offset="0.51" stop-color="#1E5C9B"/>
<stop offset="1" stop-color="#1A4484"/>
</linearGradient>
<linearGradient id="paint2_linear_6_3080" x1="24.9293" y1="36.4703" x2="24.3115" y2="69.1749" gradientUnits="userSpaceOnUse">
<stop stop-color="#1680BF"/>
<stop offset="0.51" stop-color="#1E5C9B"/>
<stop offset="1" stop-color="#1A4484"/>
</linearGradient>
<linearGradient id="paint3_linear_6_3080" x1="56.8681" y1="79.3341" x2="55.2157" y2="40.0123" gradientUnits="userSpaceOnUse">
<stop stop-color="#1680BF"/>
<stop offset="0.51" stop-color="#1E5C9B"/>
<stop offset="1" stop-color="#1A4484"/>
</linearGradient>
<linearGradient id="paint4_linear_6_3080" x1="8.88452" y1="83.0485" x2="40.2699" y2="83.0485" gradientUnits="userSpaceOnUse">
<stop stop-color="#1680BF"/>
<stop offset="0.51" stop-color="#1E5C9B"/>
<stop offset="1" stop-color="#1A4484"/>
</linearGradient>
<linearGradient id="paint5_linear_6_3080" x1="40.2628" y1="83.0125" x2="71.5979" y2="83.0125" gradientUnits="userSpaceOnUse">
<stop stop-color="#1680BF"/>
<stop offset="0.51" stop-color="#1E5C9B"/>
<stop offset="1" stop-color="#1A4484"/>
</linearGradient>
</defs>
</svg>
