<svg width="65" height="106" viewBox="0 0 65 106" fill="none" xmlns="http://www.w3.org/2000/svg">
<path d="M60.5945 51.8096L45.1461 45.0704C41.0576 43.2814 36.9764 41.478 32.8808 39.7106C32.6625 39.6458 32.4746 39.5053 32.3508 39.3143C32.227 39.1233 32.1754 38.8944 32.2053 38.6688C32.2341 29.7359 32.2341 20.8005 32.2053 11.8628C32.2053 8.27041 32.2053 4.6134 32.2053 0.985143V0.489442L32.3778 0.424805C42.9545 18.0033 53.5289 35.5841 64.1009 53.1674" fill="url(#paint0_linear_6_3080)"/>
<path d="M0.640259 53.1818L32.04 0.424805L32.234 0.467867V3.29148C32.234 10.4762 32.234 17.6824 32.234 24.9101C32.234 29.494 32.234 34.085 32.234 38.676C32.2633 38.8876 32.2156 39.1027 32.0995 39.282C31.9834 39.4614 31.8068 39.5931 31.6017 39.6531C24.0524 42.9437 16.5126 46.2463 8.98239 49.5608C6.45316 50.6744 3.95268 51.7952 1.4019 52.9016C1.22227 52.9806 1.03545 53.0381 0.640259 53.1818Z" fill="url(#paint1_linear_6_3080)"/>
<path d="M0.640259 53.1818C11.2961 48.3825 21.6429 43.6406 32.2197 38.8772V72.293C21.6213 65.9059 11.2889 59.5906 0.640259 53.1818Z" fill="url(#paint2_linear_6_3080)"/>
<path d="M64.1081 53.1459C53.4739 59.5403 42.842 65.9179 32.2125 72.2787V38.8987C42.8037 43.6549 53.4523 48.3538 64.1081 53.1459Z" fill="url(#paint3_linear_6_3080)"/>
<path d="M32.2412 105.903C21.7147 90.5996 11.296 75.4616 0.884521 60.3163L0.977934 60.1941L3.34908 61.631L26.5289 75.5549C28.2246 76.5752 29.9131 77.6169 31.6304 78.6084C31.845 78.7116 32.022 78.8792 32.1367 79.0879C32.2514 79.2966 32.2979 79.5359 32.2699 79.7723C32.2699 87.7425 32.2699 95.7152 32.2699 103.69L32.2412 105.903Z" fill="url(#paint4_linear_6_3080)"/>
<path d="M32.27 105.623V105.048C32.27 96.5844 32.27 88.1185 32.27 79.6502C32.2477 79.4608 32.2848 79.2692 32.3762 79.1018C32.4676 78.9345 32.6088 78.7997 32.7801 78.7161C37.029 76.1775 41.2708 73.627 45.5053 71.0644L60.7094 61.8824C61.6317 61.3079 62.592 60.7966 63.5835 60.3521L32.4137 105.673L32.27 105.623Z" fill="url(#paint5_linear_6_3080)"/>
<defs>
<linearGradient id="paint0_linear_6_3080" x1="32.2053" y1="26.7782" x2="64.1153" y2="26.7782" gradientUnits="userSpaceOnUse">
<stop stop-color="#1680BF"/>
<stop offset="0.51" stop-color="#1E5C9B"/>
<stop offset="1" stop-color="#1A4484"/>
</linearGradient>
<linearGradient id="paint1_linear_6_3080" x1="0.640259" y1="26.7997" x2="32.2341" y2="26.7997" gradientUnits="userSpaceOnUse">
<stop stop-color="#1680BF"/>
<stop offset="0.51" stop-color="#1E5C9B"/>
<stop offset="1" stop-color="#1A4484"/>
</linearGradient>
<linearGradient id="paint2_linear_6_3080" x1="16.9293" y1="36.4703" x2="16.3115" y2="69.1749" gradientUnits="userSpaceOnUse">
<stop stop-color="#1680BF"/>
<stop offset="0.51" stop-color="#1E5C9B"/>
<stop offset="1" stop-color="#1A4484"/>
</linearGradient>
<linearGradient id="paint3_linear_6_3080" x1="48.8681" y1="79.3341" x2="47.2157" y2="40.0123" gradientUnits="userSpaceOnUse">
<stop stop-color="#1680BF"/>
<stop offset="0.51" stop-color="#1E5C9B"/>
<stop offset="1" stop-color="#1A4484"/>
</linearGradient>
<linearGradient id="paint4_linear_6_3080" x1="0.884521" y1="83.0485" x2="32.2699" y2="83.0485" gradientUnits="userSpaceOnUse">
<stop stop-color="#1680BF"/>
<stop offset="0.51" stop-color="#1E5C9B"/>
<stop offset="1" stop-color="#1A4484"/>
</linearGradient>
<linearGradient id="paint5_linear_6_3080" x1="32.2628" y1="83.0125" x2="63.5979" y2="83.0125" gradientUnits="userSpaceOnUse">
<stop stop-color="#1680BF"/>
<stop offset="0.51" stop-color="#1E5C9B"/>
<stop offset="1" stop-color="#1A4484"/>
</linearGradient>
</defs>
</svg>
