<svg width="55" height="91" viewBox="0 0 55 91" fill="none" xmlns="http://www.w3.org/2000/svg">
<path d="M54.6481 45.0452C54.6481 54.299 54.605 63.5529 54.6912 72.8068C54.7543 73.4969 54.5989 74.1893 54.2469 74.7862C53.8948 75.3832 53.3641 75.8544 52.7296 76.1333C44.9551 80.4968 37.2165 84.9225 29.5139 89.4106C28.9887 89.7961 28.3566 90.0087 27.7052 90.019C27.0537 90.0293 26.4152 89.8368 25.8781 89.468C18.0318 84.889 10.1495 80.3818 2.23127 75.9465C1.67432 75.6929 1.20991 75.2724 0.90227 74.7434C0.594629 74.2145 0.45894 73.603 0.513972 72.9936C0.557084 54.4811 0.557084 35.9685 0.513972 17.456C0.452416 16.8473 0.581942 16.2346 0.88453 15.7028C1.18712 15.1711 1.64776 14.7468 2.20252 14.4887C10.1926 10.0055 18.1491 5.45521 26.0721 0.837858C26.5312 0.506452 27.0831 0.328125 27.6493 0.328125C28.2155 0.328125 28.7674 0.506452 29.2265 0.837858C37.0728 5.40731 44.9551 9.91446 52.8733 14.3594C53.4679 14.6281 53.9624 15.0777 54.2863 15.6441C54.6101 16.2106 54.7468 16.8648 54.6768 17.5135C54.6193 26.6955 54.6481 35.8704 54.6481 45.0452ZM4.84673 48.7812C4.77488 49.9092 4.70302 50.5486 4.70302 51.1952C4.70302 57.6111 4.75332 64.0271 4.6671 70.443C4.59445 71.1317 4.7434 71.8257 5.0923 72.424C5.44121 73.0222 5.97187 73.4935 6.60712 73.7695C13.0835 77.3762 19.5119 81.062 25.8925 84.8267C26.4292 85.1949 27.0676 85.3858 27.7183 85.3729C28.369 85.3601 28.9994 85.144 29.5211 84.7549C34.17 81.996 38.6895 78.8635 43.633 76.7655C49.3812 74.3299 51.4506 70.7376 50.7033 64.5516C50.0926 59.5223 50.5812 54.3134 50.5812 48.8315C49.6256 49.3129 49.0435 49.55 48.4903 49.8948C42.6343 53.2429 36.7064 56.4616 30.9725 60.0036C28.5151 61.5196 26.6972 61.4406 24.2614 59.9606C18.0318 56.1527 11.6009 52.6465 4.84673 48.7812ZM6.75083 16.6154C13.5409 20.5095 19.9646 24.2168 26.417 27.8594C26.7173 28.0342 27.051 28.1437 27.3964 28.1808C27.7418 28.218 28.0912 28.1819 28.4217 28.075C35.025 24.3892 41.578 20.6101 48.131 16.8597C47.9586 16.5149 47.9298 16.3065 47.8149 16.2347C41.463 12.5705 35.1184 8.89904 28.7235 5.3067C28.4038 5.15054 28.0543 5.06465 27.6986 5.05473C27.3429 5.04482 26.9892 5.11115 26.6613 5.24926C20.1299 8.91344 13.6487 12.6566 6.75083 16.6154ZM23.5716 30.9129L4.94732 20.2939V41.5749L23.5716 30.9129ZM29.7294 55.973L48.5549 45.196L29.7294 34.4694V55.973ZM31.7413 30.9129L50.3585 41.5391V20.2652L31.7413 30.9129ZM6.75083 45.2176L25.3608 55.8222V34.5556L6.75083 45.2176Z" fill="url(#paint0_linear_6_3151)"/>
<defs>
<linearGradient id="paint0_linear_6_3151" x1="0.513973" y1="45.1817" x2="54.6912" y2="45.1817" gradientUnits="userSpaceOnUse">
<stop stop-color="#1680BF"/>
<stop offset="0.51" stop-color="#1E5C9B"/>
<stop offset="1" stop-color="#1A4484"/>
</linearGradient>
</defs>
</svg>
