<svg width="73" height="84" viewBox="0 0 73 84" fill="none" xmlns="http://www.w3.org/2000/svg">
<path d="M34.0201 84H26.8348C26.8348 83.4827 26.7701 83.0017 26.7701 82.5203C26.7701 68.4383 26.7701 54.3561 26.7701 40.2742C26.7928 39.5207 26.6933 38.7685 26.4755 38.0469C26.284 37.4999 25.9064 37.0379 25.4086 36.7411C24.9108 36.4443 24.3245 36.3318 23.7522 36.4233C23.1778 36.4712 22.6357 36.709 22.2115 37.0993C21.7873 37.4896 21.5052 38.0102 21.4098 38.5787C21.2821 39.2103 21.2148 39.8526 21.2087 40.497C21.2087 54.5071 21.2087 68.5124 21.2087 82.5129V83.9499H15.8628V18.4185H57.6166V83.9786H52.1989V82.6136C52.1989 68.3784 52.1989 54.1454 52.1989 39.9149C52.1989 38.8588 52.1486 37.8243 51.2576 37.113C50.89 36.7777 50.4332 36.5561 49.9424 36.4745C49.4516 36.3929 48.9476 36.4548 48.4913 36.6531C47.9881 36.839 47.5494 37.1665 47.2281 37.5961C46.9068 38.0257 46.7166 38.5392 46.6806 39.0744C46.659 39.4165 46.659 39.7598 46.6806 40.1019V84.0074H39.5743V39.9725C39.5743 38.6649 39.3372 37.4435 38.0798 36.7394C37.6555 36.494 37.1727 36.3685 36.6826 36.3759C36.1926 36.3834 35.7137 36.5234 35.2971 36.7815C34.8804 37.0395 34.5416 37.4059 34.3167 37.8413C34.0918 38.2767 33.9893 38.7649 34.0201 39.254V83.9786V84Z" fill="url(#paint0_linear_6_4077)"/>
<path d="M36.5494 7.10288C25.8145 7.10288 15.0749 7.10288 4.33043 7.10288C3.67878 7.15935 3.02528 7.01745 2.45587 6.69559C1.88646 6.37372 1.42778 5.88711 1.14016 5.2997C0.829503 4.73043 0.704101 4.07829 0.781373 3.43442C0.858645 2.79054 1.13477 2.18697 1.5713 1.70736C1.95501 1.28125 2.43265 0.950019 2.96644 0.740514C3.50022 0.531009 4.07546 0.448863 4.64659 0.500206C14.227 0.500206 23.8218 0.500206 33.431 0.500206H68.1791C68.4809 0.500206 68.7899 0.500206 69.0917 0.500206C69.5384 0.483909 69.9838 0.556664 70.4021 0.714203C70.8205 0.871741 71.2034 1.11102 71.5284 1.41794C71.8533 1.72485 72.114 2.09332 72.2952 2.50195C72.4764 2.91058 72.5745 3.35097 72.5837 3.79786C72.713 5.6084 71.1466 6.95183 69.1203 7.1099C68.7754 7.1099 68.4018 7.1099 68.0857 7.1099L36.5494 7.10288Z" fill="url(#paint1_linear_6_4077)"/>
<path d="M36.7147 15.1211C27.6468 15.1211 18.5814 15.1211 9.51829 15.1211C9.04271 15.1721 8.56236 15.0884 8.1318 14.8801C7.70123 14.6718 7.3377 14.3472 7.08246 13.9427C6.88954 13.6356 6.77355 13.2866 6.74429 12.925C6.71504 12.5635 6.77335 12.2001 6.91436 11.8659C7.05538 11.5317 7.27493 11.2363 7.55435 11.005C7.83377 10.7737 8.16486 10.6132 8.51952 10.537C9.11296 10.3996 9.72125 10.337 10.3302 10.3504C28.054 10.3504 45.7609 10.3622 63.4512 10.3862C63.9059 10.3882 64.359 10.4414 64.802 10.5444C65.0855 10.5895 65.3573 10.6907 65.6011 10.8422C65.845 10.9938 66.0561 11.1925 66.222 11.4267C66.388 11.6609 66.5056 11.9263 66.5677 12.2066C66.6299 12.4868 66.6354 12.7766 66.5839 13.059C66.534 13.615 66.2791 14.1326 65.8687 14.5111C65.4584 14.8895 64.9219 15.1018 64.3637 15.1067C63.2141 15.1427 62.0716 15.1067 60.9219 15.1067L36.7147 15.1211Z" fill="url(#paint2_linear_6_4077)"/>
<defs>
<linearGradient id="paint0_linear_6_4077" x1="36.6786" y1="122.323" x2="36.6786" y2="-18.0653" gradientUnits="userSpaceOnUse">
<stop stop-color="#1680BF"/>
<stop offset="0.51" stop-color="#1E5C9B"/>
<stop offset="1" stop-color="#1A4484"/>
</linearGradient>
<linearGradient id="paint1_linear_6_4077" x1="36.6715" y1="122.323" x2="36.6715" y2="-18.065" gradientUnits="userSpaceOnUse">
<stop stop-color="#1680BF"/>
<stop offset="0.51" stop-color="#1E5C9B"/>
<stop offset="1" stop-color="#1A4484"/>
</linearGradient>
<linearGradient id="paint2_linear_6_4077" x1="36.6644" y1="122.325" x2="36.6644" y2="-18.0654" gradientUnits="userSpaceOnUse">
<stop stop-color="#1680BF"/>
<stop offset="0.51" stop-color="#1E5C9B"/>
<stop offset="1" stop-color="#1A4484"/>
</linearGradient>
</defs>
</svg>
