<svg width="58" height="42" viewBox="0 0 58 42" fill="none" xmlns="http://www.w3.org/2000/svg">
<path d="M26.1584 34.7539C26.4914 34.7539 26.8169 34.8529 27.0938 35.038C27.3707 35.2231 27.5865 35.486 27.7139 35.7939C27.8414 36.1017 27.8747 36.4406 27.8097 36.7674C27.7448 37.0942 27.5844 37.3945 27.349 37.6301C27.1135 37.8658 26.8135 38.0264 26.4869 38.0914C26.1603 38.1564 25.8218 38.1229 25.5141 37.9954C25.2064 37.8679 24.9435 37.652 24.7585 37.3749C24.5735 37.0978 24.4747 36.7719 24.4747 36.4387C24.4738 36.2171 24.5167 35.9977 24.6009 35.7928C24.6852 35.588 24.8092 35.4021 24.9657 35.2454C25.1223 35.0888 25.3083 34.9645 25.513 34.8802C25.7177 34.7958 25.937 34.753 26.1584 34.7539ZM52.522 24.3496C52.1886 24.3496 51.8628 24.2507 51.5858 24.0652C51.3088 23.8798 51.0929 23.6162 50.9657 23.308C50.8385 22.9997 50.8056 22.6608 50.8711 22.3338C50.9367 22.0067 51.0978 21.7063 51.334 21.471C51.5702 21.2357 51.8708 21.0757 52.1979 21.0115C52.525 20.9473 52.8637 20.9817 53.1713 21.1103C53.4788 21.2389 53.7413 21.4563 53.9254 21.7343C54.1095 22.0123 54.2071 22.3388 54.2056 22.6723C54.2056 22.8932 54.162 23.1117 54.0773 23.3157C53.9926 23.5197 53.8685 23.7051 53.7121 23.861C53.5556 24.0168 53.37 24.1403 53.1657 24.2241C52.9615 24.308 52.7427 24.3506 52.522 24.3496ZM52.522 17.4667C51.6965 17.4656 50.8826 17.6612 50.1479 18.0376C49.4131 18.414 48.7785 18.9602 48.2967 19.6309C47.815 20.3016 47.4998 21.0774 47.3775 21.8943C47.2551 22.7112 47.3291 23.5456 47.5932 24.3282L30.4252 33.4725C29.9098 32.7271 29.2086 32.1294 28.3912 31.7389C27.5738 31.3484 26.6686 31.1787 25.7653 31.2464C24.8621 31.314 23.9922 31.617 23.242 32.1249C22.4918 32.6328 21.8874 33.328 21.4887 34.1419L6.06197 25.9985C4.43584 25.1417 3.18386 22.456 3.34215 20.0152C3.40691 18.7407 3.84584 17.7474 4.52219 17.3658C4.75377 17.2474 5.01206 17.1909 5.27185 17.2023C5.53163 17.2136 5.78404 17.2923 6.00442 17.4304L6.10516 17.4807C10.1921 19.6407 23.5753 26.6899 24.1365 26.9491C25.0072 27.3595 25.4893 27.518 26.9715 26.8124L54.6302 12.4122C54.8733 12.3342 55.0872 12.1846 55.2439 11.9829C55.4005 11.7812 55.4926 11.5365 55.508 11.2815C55.4894 11.0298 55.3997 10.7888 55.2494 10.5861C55.0991 10.3834 54.8943 10.2275 54.6589 10.1368C53.0832 9.4168 50.6655 8.25045 48.3055 7.14884C43.2688 4.7872 37.5557 2.1087 35.0446 0.791083C34.3995 0.429062 33.6723 0.23877 32.9328 0.23877C32.1932 0.23877 31.466 0.429062 30.821 0.791083L30.2238 1.09343C18.9272 6.68072 3.80986 14.1689 2.95363 14.6945C1.41383 15.6306 0.45685 17.5023 0.334531 19.8207C0.147453 23.5 2.01823 27.3378 4.69487 28.7418L21.0138 37.1587C21.1952 38.4573 21.8605 39.6394 22.8761 40.468C23.8918 41.2966 25.1829 41.7105 26.4907 41.6267C27.7984 41.543 29.0262 40.9676 29.928 40.0162C30.8298 39.0648 31.3389 37.8075 31.3534 36.4963L49.3416 26.7473C49.9929 27.2635 50.7585 27.6158 51.574 27.7746C52.3895 27.9335 53.2312 27.8943 54.0284 27.6604C54.8257 27.4264 55.5552 27.0046 56.1559 26.4302C56.7565 25.8558 57.2107 25.1458 57.4804 24.3595C57.7501 23.5731 57.8273 22.7332 57.7057 21.9108C57.5841 21.0884 57.2671 20.3072 56.7814 19.6327C56.2957 18.9582 55.6554 18.4101 54.9143 18.0344C54.1731 17.6587 53.3527 17.4665 52.522 17.4737" fill="url(#paint0_linear_236_2622)"/>
<defs>
<linearGradient id="paint0_linear_236_2622" x1="29.0221" y1="-32.9201" x2="29.0221" y2="143.656" gradientUnits="userSpaceOnUse">
<stop stop-color="#1680BF"/>
<stop offset="0.51" stop-color="#1E5C9B"/>
<stop offset="1" stop-color="#1A4484"/>
</linearGradient>
</defs>
</svg>
