<svg width="52" height="51" viewBox="0 0 52 51" fill="none" xmlns="http://www.w3.org/2000/svg">
<path d="M30.8114 37.2564C32.0706 36.9756 33.301 36.7739 34.4954 36.4355C39.4457 35.0314 41.813 31.6258 42.3526 26.7442C42.6039 25.0181 42.5331 23.2606 42.144 21.5603C41.7852 20.1476 41.1056 18.8366 40.1581 17.7296C40.0472 17.628 39.9709 17.4943 39.94 17.3471C39.909 17.1999 39.9249 17.0468 39.9854 16.909C40.5472 14.9239 40.4666 12.8115 39.7551 10.8751C39.6256 10.4935 39.4026 10.3063 39.0356 10.3927C37.9943 10.5742 36.9693 10.8391 35.9704 11.1848C34.8839 11.6312 33.891 12.3151 32.8477 12.8695C32.6071 12.9963 32.3319 13.0419 32.0634 12.9993C28.1125 12.0235 23.9838 12.0235 20.0329 12.9993C19.7464 13.0491 19.4515 12.9981 19.1982 12.8551C17.5403 11.6878 15.6628 10.8697 13.6794 10.4504C12.5785 10.2776 12.4634 10.3282 12.1612 11.3866C11.5874 13.2135 11.5624 15.1686 12.0893 17.0096C12.1118 17.1212 12.1114 17.2364 12.0878 17.3478C12.0643 17.4592 12.0183 17.5649 11.9526 17.6579C11.0421 18.7818 10.3665 20.0772 9.96606 21.4675C9.56559 22.8577 9.44833 24.3142 9.62127 25.7506C9.70868 27.3452 10.0337 28.9178 10.5855 30.4163C11.9094 33.7787 14.4925 35.6796 17.8887 36.5652C18.968 36.846 20.0472 37.0116 21.2273 37.242C20.4272 38.1329 19.9068 39.2396 19.7307 40.4244C19.6953 40.5128 19.6427 40.5933 19.5761 40.6613C19.5094 40.7293 19.4298 40.7836 19.3421 40.8206C16.464 41.951 13.8881 41.3461 12.2332 38.6029C11.8723 37.9131 11.362 37.3129 10.7396 36.8457C10.1171 36.3786 9.39828 36.0564 8.63552 35.9028C8.29574 35.8499 7.94902 35.862 7.6138 35.9387C6.98781 36.0755 6.89428 36.4069 7.36916 36.8749C7.53223 37.0577 7.72134 37.2153 7.9304 37.3429C9.20935 38.0758 10.1766 39.251 10.6502 40.6476C11.6791 43.7005 14.658 44.9103 17.6944 44.615C18.2988 44.5574 18.9032 44.471 19.558 44.3918C19.5847 44.5514 19.6015 44.7125 19.6083 44.8742C19.6083 46.2062 19.6083 47.5381 19.6443 48.8701C19.6803 50.2021 18.8672 50.7637 17.5937 50.3101C12.3138 48.4457 7.77626 44.9258 4.65587 40.2739C1.53548 35.6219 -0.00110742 30.0865 0.274601 24.4906C0.51944 19.8873 1.99038 15.4333 4.53488 11.5905C7.07938 7.74775 10.6048 4.65615 14.7456 2.63609C18.8864 0.616024 23.4919 -0.258683 28.0844 0.102338C32.677 0.463359 37.0894 2.04693 40.8642 4.68924C44.639 7.33156 47.6387 10.9362 49.5523 15.1294C51.466 19.3226 52.2238 23.9517 51.7474 28.5368C51.2709 33.1218 49.5774 37.4961 46.8425 41.2055C44.1076 44.915 40.4308 47.8248 36.1935 49.6333C35.5747 49.8997 34.9487 50.1445 34.3083 50.3533C34.096 50.4639 33.8573 50.5134 33.6187 50.4964C33.38 50.4795 33.1507 50.3968 32.9562 50.2574C32.7617 50.1179 32.6096 49.9271 32.5167 49.7065C32.4239 49.4858 32.394 49.2439 32.4303 49.0072C32.4303 46.9192 32.4303 44.831 32.4303 42.743C32.4303 40.6549 32.2505 38.79 30.8114 37.2564Z" fill="url(#paint0_linear_236_2620)"/>
<defs>
<linearGradient id="paint0_linear_236_2620" x1="25.9906" y1="-28.9196" x2="25.9906" y2="147.655" gradientUnits="userSpaceOnUse">
<stop stop-color="#1680BF"/>
<stop offset="0.51" stop-color="#1E5C9B"/>
<stop offset="1" stop-color="#1A4484"/>
</linearGradient>
</defs>
</svg>
