<svg width="452" height="402" viewBox="0 0 452 402" fill="none" xmlns="http://www.w3.org/2000/svg">
<path d="M194.464 143.934C204.2 142.598 213.951 141.225 223.708 139.947C224.276 139.929 224.824 139.735 225.277 139.393C225.73 139.051 226.065 138.576 226.238 138.035C228.393 133.121 230.678 128.243 233.107 123.458C233.467 122.9 233.647 122.245 233.621 121.581C233.596 120.918 233.366 120.278 232.963 119.75C228.027 111.919 223.227 104.009 218.291 96.1845C217.572 95.0063 217.781 94.4388 218.707 93.5982C229.677 83.6833 240.623 73.7421 251.544 63.7746C252.514 62.8909 253.111 62.8476 254.16 63.6595C261.431 69.2779 268.775 74.7814 276.032 80.407C276.562 80.8955 277.231 81.2081 277.946 81.3019C278.661 81.3958 279.388 81.2664 280.027 80.9315C285.021 78.9557 290.086 77.2028 295.195 75.5C295.687 75.4006 296.135 75.1508 296.479 74.7852C296.823 74.4197 297.045 73.9564 297.113 73.4595C299.176 64.4355 301.331 55.4331 303.465 46.4235C303.631 45.705 303.875 45.0585 304.119 44.2251L351.628 46.3086L354.079 64.2703C354.617 68.2434 355.185 72.2094 355.652 76.1897C355.693 76.7315 355.894 77.2487 356.231 77.6751C356.568 78.1014 357.024 78.4173 357.542 78.5821C362.672 80.9099 367.716 83.4246 372.854 85.7668C373.284 85.9061 373.738 85.9551 374.189 85.9106C374.639 85.8661 375.075 85.7291 375.469 85.5082C381.217 82.0452 386.865 78.4744 392.549 74.9468C394.783 73.5601 397.061 72.2525 399.26 70.8156C400.323 70.0971 401.063 70.0971 401.947 71.1245C405.015 74.5516 408.162 77.8996 411.288 81.2979C418.1 88.7843 424.89 96.2923 431.73 103.757C432.628 104.734 432.83 105.345 431.903 106.531C426.312 113.715 420.866 121.051 415.297 128.271C414.176 129.708 414.054 130.851 414.787 132.64C416.742 137.36 418.38 142.217 419.968 147.074C420.428 148.467 420.967 149.229 422.483 149.567C431.579 151.629 440.647 153.813 449.729 155.932C450.678 156.155 451.389 156.277 451.325 157.621C450.534 172.831 449.816 188.048 449.076 203.265C449.03 203.509 448.966 203.75 448.882 203.983L433.16 206.139C428.411 206.793 423.654 207.411 418.919 208.151C418.574 208.249 418.253 208.417 417.976 208.644C417.699 208.871 417.472 209.154 417.309 209.473C414.787 214.653 412.43 219.926 409.829 225.063C409.111 226.5 409.786 227.269 410.368 228.217C415.369 236.307 420.38 244.395 425.4 252.48C425.5 252.638 425.572 252.818 425.759 253.198L424.214 254.635C414.514 263.41 404.816 272.183 395.121 280.953C393.95 282.009 392.764 283.058 391.701 284.215C390.767 285.221 390.07 285.062 389.057 284.279C381.685 278.596 374.255 272.992 366.883 267.309C366.457 266.924 365.926 266.674 365.357 266.594C364.788 266.513 364.209 266.605 363.692 266.857C358.418 268.854 353.08 270.657 347.799 272.604C347.438 272.757 347.114 272.982 346.845 273.267C346.577 273.551 346.371 273.888 346.239 274.257C344.046 283.319 341.921 292.393 339.866 301.479C339.507 303.046 339.054 303.75 337.2 303.635C322.513 302.83 307.812 302.198 293.118 301.479C292.666 301.479 292.22 301.408 291.61 301.35C290.812 295.538 290.014 289.769 289.238 283.992C288.685 279.89 288.161 275.787 287.622 271.692C287.598 271.214 287.433 270.755 287.148 270.371C286.863 269.987 286.47 269.697 286.019 269.536C280.767 267.165 275.558 264.708 270.42 262.108C268.983 261.389 268.171 262.28 267.266 262.826C260.497 266.972 253.772 271.175 247.025 275.356C245.588 276.247 244.107 277.109 242.476 278.093C242.009 277.619 241.492 277.145 241.039 276.621C231.32 265.925 221.591 255.232 211.853 244.541C210.775 243.355 210.416 242.659 211.63 241.157C217.27 233.972 222.695 226.644 228.249 219.416C229.198 218.188 229.284 217.261 228.688 215.745C226.741 210.881 224.995 205.93 223.378 200.952C223.243 200.301 222.911 199.708 222.428 199.252C221.945 198.796 221.333 198.499 220.676 198.401C211.335 196.246 201.994 194.033 192.653 191.834C192.509 191.795 192.369 191.739 192.237 191.669C192.962 175.755 193.703 159.963 194.464 143.934ZM357.973 140.866C353.63 136.096 348.389 132.229 342.549 129.487C336.709 126.745 330.386 125.181 323.941 124.886C317.496 124.591 311.057 125.571 304.991 127.768C298.925 129.965 293.352 133.337 288.592 137.69C268.358 156.098 267.036 186.92 285.545 207.303C303.587 227.154 334.808 228.419 354.804 210.119C364.383 201.341 370.094 189.126 370.688 176.147C371.282 163.168 366.71 150.483 357.973 140.866Z" fill="url(#paint0_linear_6_3167)"/>
<path d="M95.3143 199.823L59.9913 191.432C60.2571 186.302 60.5158 181.265 60.7744 176.229C60.8966 173.736 61.105 171.243 61.0906 168.757C61.0589 168.365 60.9492 167.983 60.7678 167.634C60.5864 167.285 60.337 166.975 60.0343 166.724C56.6333 164.152 53.182 161.656 49.6804 159.237C49.3662 159.064 49.0196 158.957 48.6623 158.924C48.305 158.89 47.9447 158.931 47.6038 159.043C41.0843 161.486 34.5936 163.986 28.1316 166.544C26.8383 167.054 26.2347 166.903 25.4874 165.675C19.7679 156.258 13.9885 146.875 8.14927 137.525C7.43074 136.34 7.84026 135.815 8.64501 135.082C13.7897 130.477 18.8841 125.821 24.0432 121.237C24.4438 120.925 24.7396 120.497 24.8911 120.012C25.0425 119.527 25.0426 119.007 24.8911 118.522C24.1725 114.462 23.6336 110.353 22.8576 106.308C22.7196 105.878 22.4947 105.482 22.1968 105.143C21.8988 104.804 21.5344 104.531 21.126 104.339C14.8604 101.465 8.54448 98.7351 2.24297 95.9403C1.77592 95.7319 1.35199 95.4373 0.805908 95.1499C3.59381 83.3886 6.36735 71.7136 9.17681 59.8733L26.1772 60.757C28.4046 60.8719 30.9411 61.6837 32.7733 60.8862C34.4619 60.1678 35.3744 57.6602 36.6462 55.9575C38.1695 53.9026 39.7718 51.9054 41.2161 49.7931C41.4229 49.4706 41.5632 49.1098 41.6286 48.7323C41.694 48.3547 41.6832 47.9679 41.5969 47.5946C39.1898 41.1284 36.7252 34.7052 34.1529 28.3109C33.5565 26.8236 33.6356 26.1554 35.1373 25.2358C44.4064 19.6461 53.6035 13.9415 62.7936 8.21534C64.0151 7.45376 64.7408 7.45379 65.7467 8.60334C70.216 13.6901 74.8002 18.6619 79.2982 23.7271C79.6403 24.1868 80.1148 24.5309 80.6581 24.7133C81.2013 24.8956 81.7873 24.9075 82.3376 24.7473C86.2607 23.9713 90.2414 23.4971 94.1645 22.7643C94.5688 22.6696 94.9494 22.4932 95.283 22.2462C95.6166 21.9991 95.8962 21.6864 96.1046 21.3274C99.2302 14.5307 102.241 7.67651 105.359 0.700195C109.132 1.57673 112.889 2.43882 116.64 3.32972C124.113 5.11152 131.578 6.92218 139.066 8.66087C140.344 8.94826 140.768 9.37924 140.689 10.7156C140.28 17.5985 140.028 24.4886 139.612 31.3787C139.525 32.8157 140.064 33.4408 141.164 34.188C144.375 36.3434 147.53 38.5922 150.569 40.9775C150.927 41.3359 151.388 41.574 151.888 41.659C152.387 41.7439 152.901 41.6714 153.357 41.4516C159.896 38.9011 166.456 36.4224 173.016 33.9006C173.375 33.7569 173.735 33.6564 174.345 33.4624C176.321 36.6667 178.326 39.8854 180.302 43.1185C184.34 49.7141 188.335 56.3456 192.416 62.9124C193.135 64.0691 192.941 64.7157 191.985 65.5706C186.891 70.1329 181.883 74.7741 176.774 79.322C176.348 79.6511 176.035 80.1047 175.88 80.6199C175.724 81.135 175.732 81.686 175.905 82.1959C176.666 86.1259 177.342 90.0991 177.802 94.0506C177.814 94.5229 177.977 94.9791 178.266 95.3525C178.556 95.7259 178.957 95.9973 179.411 96.1271C186.208 99.0944 192.97 102.133 199.947 105.237C197.159 116.977 194.378 128.702 191.518 140.751C188.141 140.543 184.879 140.313 181.617 140.133C177.55 139.903 173.476 139.738 169.402 139.472C168.833 139.387 168.252 139.479 167.738 139.736C167.223 139.994 166.801 140.403 166.528 140.909C164.272 144.286 161.75 147.483 159.443 150.824C159.247 151.159 159.121 151.531 159.076 151.917C159.03 152.303 159.064 152.694 159.177 153.066C161.572 159.508 164.039 165.928 166.578 172.328C167.153 173.765 166.909 174.483 165.565 175.288C156.296 180.892 147.072 186.565 137.894 192.308C136.457 193.214 135.811 192.897 134.841 191.798C130.307 186.683 125.687 181.646 121.145 176.531C120.855 176.159 120.457 175.886 120.005 175.751C119.553 175.615 119.07 175.624 118.623 175.776C114.758 176.495 110.87 177.17 106.969 177.637C106.393 177.638 105.832 177.819 105.363 178.154C104.894 178.489 104.541 178.961 104.353 179.505C101.731 185.598 99.0362 191.647 96.3561 197.704C96.0615 198.372 95.6951 199.055 95.3143 199.823ZM128.058 75.1047C114.01 59.672 90.6078 58.659 75.0516 72.8057C59.8619 86.6146 58.8632 110.288 72.8242 125.57C86.4763 140.5 110.231 141.786 125.033 128.393C140.84 114.089 142.17 90.6164 128.058 75.1047Z" fill="url(#paint1_linear_6_3167)"/>
<path d="M130.889 401.253C128.309 394.133 125.773 387.243 123.337 380.317C123.189 379.763 122.872 379.269 122.431 378.903C121.989 378.537 121.444 378.318 120.872 378.276C117.28 377.558 113.687 376.789 110.152 375.754C109.477 375.477 108.732 375.423 108.025 375.6C107.317 375.777 106.685 376.176 106.221 376.739C101.45 381.445 96.5572 386.029 91.7071 390.655C91.3335 391.015 90.9383 391.374 90.4928 391.762L61.033 370.56C62.2186 368.081 63.4114 365.624 64.5754 363.16C66.458 359.187 68.2758 355.192 70.2231 351.255C70.6674 350.547 70.8691 349.715 70.7978 348.882C70.7265 348.05 70.386 347.264 69.8278 346.642C67.7404 343.703 65.8351 340.639 64.1227 337.467C63.9014 336.938 63.5194 336.492 63.0308 336.192C62.5422 335.891 61.9716 335.752 61.3995 335.793C54.7674 335.736 48.1426 335.556 41.5106 335.434C40.7346 335.434 39.9513 335.52 39.2184 335.563C37.2712 323.687 35.3815 312.227 33.5708 300.754C33.5789 300.419 33.6698 300.092 33.8353 299.801C34.0008 299.51 34.2358 299.265 34.5192 299.087C40.907 296.687 47.3235 294.345 53.7759 292.125C55.3063 291.593 56.0392 290.975 56.3482 289.251C57.0236 285.45 58.0511 281.7 59.0643 277.971C59.2279 277.521 59.2516 277.031 59.1324 276.567C59.0132 276.103 58.7565 275.686 58.3961 275.37C53.6538 270.456 48.9904 265.462 44.2194 260.577C43.2206 259.564 42.9117 258.96 43.8601 257.667C49.3569 250.145 54.7459 242.579 60.1708 234.978C61.1265 233.642 62.0964 232.32 62.9946 230.947C63.7131 229.877 64.4317 229.704 65.5957 230.279C71.8613 233.297 78.1843 236.199 84.4571 239.21C84.8311 239.442 85.2682 239.551 85.7075 239.523C86.1468 239.495 86.5663 239.33 86.9073 239.052C90.2413 236.853 93.6687 234.777 97.1176 232.751C97.6417 232.52 98.0832 232.135 98.3835 231.647C98.6838 231.16 98.8287 230.592 98.799 230.02C98.8781 222.671 99.1008 215.321 99.2804 207.748L135.135 201.864C137.111 207.317 139.051 212.677 140.998 218.029C141.717 220.07 141.947 222.685 143.362 223.971C144.778 225.257 147.365 225.092 149.434 225.609C151.791 226.198 154.169 226.723 156.468 227.499C156.96 227.727 157.514 227.785 158.043 227.666C158.572 227.546 159.047 227.255 159.393 226.838C164.315 222.002 169.344 217.275 174.288 212.468C175.157 211.621 175.768 211.527 176.767 212.246C185.806 218.769 194.864 225.267 203.942 231.738C204.308 232.04 204.654 232.366 204.976 232.715C201.93 239.181 198.955 245.597 195.837 251.948C195.421 252.629 195.226 253.422 195.278 254.219C195.331 255.015 195.629 255.775 196.131 256.395C198.323 259.571 200.342 262.862 202.239 266.246C202.394 266.619 202.666 266.932 203.015 267.137C203.364 267.342 203.77 267.427 204.172 267.381C211.644 267.467 219.124 267.611 226.834 267.74C227.703 273.021 228.558 278.237 229.413 283.453C230.434 289.675 231.404 295.904 232.518 302.133C232.74 303.398 232.438 303.879 231.303 304.289C224.736 306.588 218.204 308.966 211.644 311.272C211.145 311.387 210.695 311.657 210.361 312.045C210.026 312.433 209.824 312.917 209.783 313.427C209.065 317.357 208.066 321.244 207.038 325.11C206.855 325.587 206.821 326.109 206.942 326.605C207.063 327.102 207.332 327.55 207.714 327.89C212.557 332.919 217.349 337.949 222.156 342.978C222.465 343.301 222.76 343.639 223.191 344.12C220.64 347.67 218.118 351.161 215.603 354.653L203.669 371.286C202.023 373.585 202.023 373.592 199.393 372.356C193.386 369.547 187.401 366.709 181.365 363.971C180.999 363.852 180.612 363.81 180.229 363.847C179.846 363.884 179.474 364 179.138 364.187C175.703 366.22 172.377 368.44 168.92 370.445C167.785 371.106 167.232 371.659 167.225 373.096C167.182 380.051 167.009 387.013 166.786 393.932C166.741 394.268 166.612 394.588 166.413 394.862C166.214 395.137 165.949 395.358 165.644 395.505C154.119 397.467 142.586 399.335 130.889 401.253ZM160.736 276.426C146.689 261.123 122.92 259.981 107.788 273.869C104.153 277.188 101.208 281.192 99.1226 285.651C97.0369 290.109 95.851 294.936 95.6327 299.853C95.4145 304.771 96.1682 309.683 97.8508 314.309C99.5333 318.935 102.112 323.184 105.438 326.812C119.536 342.223 143.089 343.122 158.61 328.839C173.411 315.259 174.396 291.299 160.736 276.426Z" fill="url(#paint2_linear_6_3167)"/>
<defs>
<linearGradient id="paint0_linear_6_3167" x1="356.292" y1="26.0982" x2="296.455" y2="281.71" gradientUnits="userSpaceOnUse">
<stop stop-color="#1680BF"/>
<stop offset="0.51" stop-color="#1E5C9B"/>
<stop offset="1" stop-color="#1A4484"/>
</linearGradient>
<linearGradient id="paint1_linear_6_3167" x1="130.149" y1="-26.8458" x2="70.3122" y2="228.773" gradientUnits="userSpaceOnUse">
<stop stop-color="#1680BF"/>
<stop offset="0.51" stop-color="#1E5C9B"/>
<stop offset="1" stop-color="#1A4484"/>
</linearGradient>
<linearGradient id="paint2_linear_6_3167" x1="205.946" y1="-9.09984" x2="146.103" y2="246.512" gradientUnits="userSpaceOnUse">
<stop stop-color="#1680BF"/>
<stop offset="0.51" stop-color="#1E5C9B"/>
<stop offset="1" stop-color="#1A4484"/>
</linearGradient>
</defs>
</svg>
