<svg width="211" height="43" viewBox="0 0 211 43" fill="none" xmlns="http://www.w3.org/2000/svg">
<path d="M43.5983 37.2536L49.4974 30.1475C52.271 32.3749 55.763 33.9413 58.6515 33.9413C61.7843 33.9413 63.1064 32.9138 63.1064 31.1678C63.1064 29.2996 61.1233 28.7033 57.8108 27.374L52.932 25.3262C48.7143 23.6449 45.0282 20.0882 45.0282 14.4263C45.0282 7.74403 51.0495 2.26172 59.6 2.26172C64.4616 2.25924 69.1353 4.13902 72.6413 7.50692L67.4607 13.9736C64.8093 12.1054 62.5244 11.1426 59.6287 11.1426C57.0995 11.1426 55.5331 12.048 55.5331 13.794C55.5331 15.6549 57.7677 16.3232 61.3173 17.7027L66.0739 19.5709C70.9528 21.4965 73.7191 24.8735 73.7191 30.2912C73.7191 36.9159 68.1792 42.815 58.4288 42.815C52.9775 42.804 47.7126 40.8297 43.5983 37.2536Z" fill="white"/>
<path d="M78.641 30.5643V20.0882H74.6676V12.3785L79.2446 12.0193L80.4517 4.19458H89.0022V12.0193H95.8642V20.0882H89.0022V30.3846C89.0022 33.697 90.6836 34.782 92.5949 34.782C93.4962 34.7627 94.3888 34.6002 95.2391 34.3006L96.8055 41.766C94.5145 42.49 92.1233 42.8465 89.7208 42.8222C81.896 42.8222 78.641 37.9147 78.641 30.5643Z" fill="white"/>
<path d="M98.997 33.5749C98.997 27.3166 103.811 23.8246 115.372 22.6175C115.135 20.4619 113.806 19.4847 111.162 19.4847C109.006 19.4847 106.7 20.3326 103.574 22.0139L99.9814 15.2742C103.942 12.7487 108.527 11.3731 113.224 11.3008C121.056 11.3008 125.755 15.5113 125.755 25.391V42.1037H117.298L116.579 39.2296H116.335C113.928 41.3852 111.305 42.8222 108.029 42.8222C102.367 42.8222 98.997 38.5111 98.997 33.5749ZM115.372 32.8564V28.7608C110.436 29.4793 108.87 31.0457 108.87 32.7342C108.87 34.121 109.832 34.8898 111.643 34.8898C113.325 34.9185 114.316 34.0563 115.372 32.8564Z" fill="white"/>
<path d="M141.62 38.8776H141.376L140.542 42.1037H132.473V0.221191H142.827V9.97151L142.59 14.2826C144.597 12.389 147.24 11.315 149.998 11.272C157.105 11.272 161.739 17.2932 161.739 26.5047C161.739 36.9519 155.596 42.8222 149.215 42.8222C146.564 42.8222 143.912 41.5289 141.62 38.8776ZM151.134 26.713C151.134 21.7768 149.697 19.729 146.916 19.729C145.349 19.729 144.149 20.3326 142.82 21.8846V32.9785C143.875 33.9335 145.256 34.4478 146.679 34.4156C149.093 34.4227 151.141 32.4971 151.141 26.713H151.134Z" fill="white"/>
<path d="M166.769 31.5271V0.221191H177.123V31.8935C177.123 33.9413 178.086 34.5449 178.811 34.5449C179.177 34.558 179.543 34.5169 179.896 34.4227L181.139 42.0103C179.536 42.6245 177.826 42.9104 176.11 42.851C169.082 42.8222 166.769 38.274 166.769 31.5271Z" fill="white"/>
<path d="M183.173 27.0723C183.173 17.322 190.279 11.3008 197.623 11.3008C206.532 11.3008 210.75 17.7675 210.75 25.8724C210.758 27.3202 210.616 28.7649 210.326 30.1835H193.168C194.13 33.7761 196.76 35.0048 200.152 35.0048C202.319 34.9571 204.435 34.3401 206.288 33.2156L209.658 39.359C206.417 41.5435 202.615 42.746 198.708 42.8222C189.913 42.8222 183.173 37.0741 183.173 27.0723ZM201.962 23.4797C201.962 21.1948 200.992 19.1686 197.867 19.1686C195.575 19.1686 193.649 20.4907 193.045 23.4797H201.962Z" fill="white"/>
<path d="M16.6965 42.4847H13.1039C13.1039 42.2261 13.0679 41.9818 13.0679 41.7662C13.0679 34.7056 13.0679 27.6425 13.0679 20.5771C13.0794 20.1977 13.0284 19.819 12.917 19.4562C12.8212 19.182 12.6318 18.9503 12.3822 18.8018C12.1325 18.6534 11.8385 18.5976 11.5518 18.6442C11.2644 18.6676 10.993 18.7864 10.7808 18.9816C10.5686 19.1769 10.4277 19.4375 10.3806 19.722C10.3148 20.0388 10.2811 20.3613 10.28 20.6848C10.28 27.7072 10.28 34.7319 10.28 41.759V42.4775H7.59991V9.56934H28.5235V42.456H25.8075V20.3471C25.8456 20.0927 25.8225 19.8328 25.74 19.5892C25.6575 19.3455 25.5181 19.125 25.3332 18.946C25.1493 18.7773 24.9203 18.6657 24.6741 18.6248C24.4278 18.584 24.175 18.6157 23.9465 18.7161C23.6986 18.813 23.4837 18.9789 23.327 19.194C23.1704 19.4092 23.0787 19.6647 23.0627 19.9304C23.0519 20.1003 23.0519 20.2707 23.0627 20.4405V42.4632H19.47V20.3974C19.5167 20.0875 19.4738 19.7707 19.3465 19.4843C19.2192 19.1979 19.0128 18.9538 18.7515 18.7808C18.5389 18.6618 18.2983 18.6021 18.0547 18.6081C17.8112 18.6141 17.5737 18.6855 17.3673 18.8148C17.1608 18.9441 16.9929 19.1266 16.8812 19.3431C16.7695 19.5596 16.7181 19.8022 16.7324 20.0454V42.4847H16.6965Z" fill="white"/>
<path d="M17.9827 3.90741H1.82292C1.49667 3.93496 1.16965 3.86412 0.88404 3.70403C0.598434 3.54394 0.367353 3.30195 0.220603 3.00926C0.0633726 2.72091 0.000301685 2.39059 0.0402463 2.06459C0.080191 1.7386 0.221147 1.43327 0.443345 1.19141C0.634492 0.977441 0.87321 0.811352 1.14029 0.706519C1.40737 0.601686 1.69534 0.56104 1.981 0.587853H34.3149C34.539 0.580188 34.7624 0.617247 34.9721 0.696868C35.1817 0.776489 35.3734 0.897074 35.536 1.05159C35.6985 1.2061 35.8286 1.39144 35.9188 1.5968C36.0089 1.80215 36.0572 2.0234 36.0609 2.24763C36.0601 2.47149 36.0142 2.69289 35.926 2.89863C35.8378 3.10437 35.709 3.29023 35.5474 3.44513C35.3858 3.60003 35.1947 3.72079 34.9854 3.80022C34.7761 3.87964 34.5529 3.9161 34.3292 3.90741C34.1568 3.90741 33.9843 3.90741 33.8119 3.90741H17.9827Z" fill="white"/>
<path d="M18.0689 7.93118H4.41679C4.17771 7.95663 3.9363 7.91418 3.72025 7.8087C3.5042 7.70322 3.32227 7.53898 3.1953 7.33481C3.099 7.18064 3.04112 7.00561 3.02654 6.82442C3.01197 6.64324 3.04112 6.46121 3.11154 6.29363C3.18195 6.12605 3.29156 5.97783 3.43118 5.86143C3.57079 5.74503 3.73632 5.66386 3.91383 5.62473C4.21078 5.55745 4.51473 5.52609 4.81916 5.53132H31.4623C31.6897 5.53195 31.9163 5.55847 32.1377 5.61036C32.283 5.6329 32.4223 5.68436 32.5474 5.76169C32.6725 5.83902 32.7807 5.94066 32.8658 6.06058C32.9509 6.1805 33.0111 6.31627 33.0427 6.45985C33.0744 6.60344 33.077 6.75192 33.0502 6.89651C33.0252 7.17479 32.8971 7.43367 32.691 7.62241C32.485 7.81116 32.2159 7.91615 31.9365 7.91681C31.3617 7.91681 30.7797 7.91681 30.2049 7.91681L18.0689 7.93118Z" fill="white"/>
</svg>
