<svg width="233" height="233" viewBox="0 0 233 233" fill="none" xmlns="http://www.w3.org/2000/svg">
<path d="M174.643 0.10791H57.9895C42.6985 0.10791 28.0337 6.18168 17.2213 16.9931C6.40892 27.8046 0.334595 42.468 0.334595 57.7577V174.365C0.333652 181.936 1.82424 189.434 4.72124 196.429C7.61825 203.424 11.8649 209.78 17.2188 215.134C22.5726 220.488 28.9288 224.735 35.9242 227.633C42.9197 230.531 50.4175 232.022 57.9895 232.022H174.643C182.215 232.022 189.713 230.531 196.708 227.633C203.704 224.735 210.06 220.488 215.414 215.134C220.767 209.78 225.014 203.424 227.911 196.429C230.808 189.434 232.299 181.936 232.298 174.365V57.7577C232.298 50.187 230.807 42.6905 227.909 35.6961C225.012 28.7017 220.765 22.3464 215.411 16.9931C210.057 11.6398 203.702 7.39342 196.707 4.49624C189.712 1.59907 182.214 0.10791 174.643 0.10791ZM124.346 126.86V150.814H105.951V126.86L85.4948 82.394L65.5412 109.545L90.3449 150.814H70.2261L54.828 124.08L48.1815 133.456V150.778H29.7872V81.2947H48.1815V107.16H48.6127L66.1448 81.2947H84.9703L85.4661 82.3724L86.2565 81.2947H104.644L109.774 95.8365C111.484 101.074 113.194 105.895 115.012 111.334H115.443C117.261 105.888 119.079 101.074 120.897 95.8365L126.027 81.2947H145.277L124.346 126.86ZM179.946 152.093C162.191 152.093 146.793 140.331 146.793 116.6C146.793 93.2931 162.83 80.0302 180.37 80.0302C188.493 80.1064 196.254 83.4037 201.947 89.1979L192.326 100.959C188.906 97.9633 185.478 95.8293 180.779 95.8293C172.653 95.8293 165.597 103.309 165.597 115.946C165.597 128.994 171.582 136.265 180.564 136.265C185.909 136.265 190.185 133.484 193.181 130.273L202.802 141.826C196.917 148.637 188.899 152.057 179.917 152.057L179.946 152.093Z" fill="url(#paint0_linear_6_3793)"/>
<defs>
<linearGradient id="paint0_linear_6_3793" x1="116.298" y1="-20.0379" x2="116.298" y2="438.768" gradientUnits="userSpaceOnUse">
<stop stop-color="#1680BF"/>
<stop offset="0.51" stop-color="#1E5C9B"/>
<stop offset="1" stop-color="#1A4484"/>
</linearGradient>
</defs>
</svg>
