<svg width="36" height="36" viewBox="0 0 36 36" fill="none" xmlns="http://www.w3.org/2000/svg">
<path fill-rule="evenodd" clip-rule="evenodd" d="M18.6627 21.0084L15.0341 17.3799C14.6799 17.0256 14.1055 17.0256 13.7513 17.3799L10.1227 21.0084C9.76848 21.3627 9.76848 21.937 10.1227 22.2913L13.7513 25.9198C14.1055 26.2741 14.6799 26.2741 15.0341 25.9198L18.6627 22.2913C19.0169 21.937 19.0169 21.3627 18.6627 21.0084ZM14.3927 23.9955L12.047 21.6498L14.3927 19.3042L16.7383 21.6498L14.3927 23.9955Z" fill="#4161F5"/>
<path fill-rule="evenodd" clip-rule="evenodd" d="M21.6497 6.22861C17.432 6.22861 13.9612 9.42697 13.5305 13.5306C9.42687 13.9613 6.22852 17.4321 6.22852 21.6498C6.22852 26.1588 9.88374 29.814 14.3927 29.814C18.6105 29.814 22.0812 26.6157 22.5119 22.512C26.6156 22.0813 29.8139 18.6105 29.8139 14.3928C29.8139 9.88384 26.1587 6.22861 21.6497 6.22861ZM21.6497 8.04288C18.4313 8.04288 15.7721 10.4373 15.3563 13.5419C19.0951 13.9816 22.061 16.9474 22.5006 20.6862C25.6052 20.2704 27.9997 17.6112 27.9997 14.3928C27.9997 10.8858 25.1567 8.04288 21.6497 8.04288ZM14.3927 15.2999C10.8857 15.2999 8.04278 18.1429 8.04278 21.6498C8.04278 25.1568 10.8857 27.9998 14.3927 27.9998C17.8997 27.9998 20.7426 25.1568 20.7426 21.6498C20.7426 18.1429 17.8997 15.2999 14.3927 15.2999Z" fill="#4161F5"/>
<path d="M10.1227 6.49431C10.477 6.14005 11.0514 6.14005 11.4056 6.49431L13.8246 8.91332C13.9116 9.0003 13.9772 9.10053 14.0215 9.20753C14.0658 9.31448 14.0903 9.43176 14.0903 9.55476C14.0903 9.67776 14.0658 9.79504 14.0215 9.902C13.9772 10.009 13.9116 10.1092 13.8246 10.1962L11.4056 12.6152C11.0514 12.9695 10.477 12.9695 10.1227 12.6152C9.76848 12.261 9.76848 11.6866 10.1227 11.3323L10.9932 10.4619H9.55466C8.71967 10.4619 8.04278 11.1388 8.04278 11.9738V14.3928C8.04278 14.8938 7.63664 15.2999 7.13565 15.2999C6.63465 15.2999 6.22852 14.8938 6.22852 14.3928V11.9738C6.22852 10.1368 7.71768 8.64763 9.55466 8.64763H10.9932L10.1227 7.77718C9.76848 7.42293 9.76848 6.84856 10.1227 6.49431Z" fill="#4161F5"/>
<path d="M24.6368 29.5483C24.9911 29.9026 25.5654 29.9026 25.9197 29.5483C26.274 29.1941 26.274 28.6197 25.9197 28.2654L25.0493 27.395H26.4878C28.3248 27.395 29.8139 25.9058 29.8139 24.0689V21.6498C29.8139 21.1488 29.4078 20.7427 28.9068 20.7427C28.4058 20.7427 27.9997 21.1488 27.9997 21.6498V24.0689C27.9997 24.9038 27.3228 25.5807 26.4878 25.5807H25.0493L25.9197 24.7103C26.274 24.356 26.274 23.7817 25.9197 23.4274C25.5654 23.0732 24.9911 23.0732 24.6368 23.4274L22.2178 25.8464C22.0407 26.0236 21.9521 26.2557 21.9521 26.4879C21.9521 26.6109 21.9766 26.7282 22.021 26.8351C22.0652 26.9421 22.1308 27.0423 22.2178 27.1293L24.6368 29.5483Z" fill="#4161F5"/>
</svg>
