<svg width="52" height="52" viewBox="0 0 52 52" fill="none" xmlns="http://www.w3.org/2000/svg">
<path d="M51.6855 26.3476C51.7012 31.3857 50.2232 36.3154 47.4385 40.5127C44.6538 44.71 40.6875 47.9865 36.0415 49.9277C31.3956 51.8688 26.2786 52.3872 21.338 51.4176C16.3974 50.448 11.8553 48.0338 8.28613 44.4805C4.71701 40.9271 2.28133 36.3941 1.28723 31.4552C0.293133 26.5163 0.785296 21.3933 2.70145 16.7344C4.61761 12.0754 7.87165 8.08994 12.0519 5.28205C16.2321 2.47415 21.1507 0.970217 26.1854 0.960222C29.5275 0.945055 32.8397 1.59052 35.9319 2.85939C39.0241 4.12827 41.8355 5.99562 44.2047 8.3544C46.5739 10.7132 48.4544 13.5169 49.7381 16.6046C51.0219 19.6924 51.6837 23.0033 51.6855 26.3476ZM23.6959 21.6964V37.299H28.4951C28.4951 36.1254 28.4951 35.0886 28.4951 34.0589C28.5383 32.0285 28.4951 29.9837 28.6822 27.9677C28.6901 27.6241 28.7693 27.2861 28.9148 26.9748C29.0603 26.6636 29.269 26.3861 29.5275 26.1599C29.786 25.9337 30.0887 25.7638 30.4164 25.661C30.7441 25.5583 31.0895 25.5249 31.4308 25.5629C32.8699 25.5629 33.7837 26.3405 33.8988 28.0397C34.0427 30.3222 33.9851 32.6189 34.0067 34.9157C34.0067 35.7149 34.0067 36.5214 34.0067 37.3278H39.0938C38.9211 33.2237 38.9427 29.2207 38.5254 25.2606C38.2519 22.7118 36.4315 21.4949 33.834 21.2717C32.843 21.1571 31.8389 21.2847 30.9079 21.6433C29.9768 22.0019 29.1464 22.5809 28.4879 23.3308L28.1354 21.6964H23.6959ZM20.3788 37.3422V21.7541H15.7091V37.3208L20.3788 37.3422ZM20.8681 16.6205C20.8672 16.2449 20.7918 15.8733 20.6462 15.5271C20.5006 15.1809 20.2878 14.8667 20.02 14.6035C19.7523 14.3403 19.435 14.1331 19.0865 13.9935C18.738 13.854 18.3653 13.785 17.99 13.7907C17.2582 13.7925 16.5565 14.0817 16.0357 14.5961C15.5149 15.1105 15.2167 15.8088 15.2054 16.541C15.2002 16.9135 15.2684 17.2836 15.4061 17.6298C15.5438 17.976 15.7482 18.2916 16.0078 18.5587C16.2674 18.8258 16.577 19.0392 16.9189 19.1866C17.2609 19.3339 17.6285 19.4123 18.0008 19.4175C18.3731 19.4227 18.7428 19.3546 19.0887 19.2168C19.4346 19.079 19.7501 18.8743 20.017 18.6146C20.2839 18.3548 20.4971 18.0451 20.6444 17.7029C20.7916 17.3607 20.8701 16.993 20.8753 16.6205H20.8681Z" fill="url(#paint0_linear_236_2624)"/>
<defs>
<linearGradient id="paint0_linear_236_2624" x1="26.2214" y1="-27.9194" x2="26.2214" y2="148.656" gradientUnits="userSpaceOnUse">
<stop stop-color="#1680BF"/>
<stop offset="0.51" stop-color="#1E5C9B"/>
<stop offset="1" stop-color="#1A4484"/>
</linearGradient>
</defs>
</svg>
