<svg width="54" height="53" viewBox="0 0 54 53" fill="none" xmlns="http://www.w3.org/2000/svg">
<path d="M27.0171 0.290528C21.8599 0.290528 16.8184 1.82078 12.5303 4.68794C8.24213 7.5551 4.89993 11.6304 2.92633 16.3983C0.952716 21.1662 0.436314 26.4127 1.44245 31.4742C2.44859 36.5358 4.93207 41.1853 8.57882 44.8345C12.2256 48.4837 16.8718 50.9688 21.93 51.9756C26.9882 52.9824 32.2312 52.4658 36.9959 50.4909C41.7606 48.516 45.8331 45.1715 48.6983 40.8804C51.5635 36.5894 53.0928 31.5446 53.0928 26.3839C53.0938 22.957 52.42 19.5635 51.1099 16.3973C49.7998 13.2311 47.8791 10.3543 45.4576 7.93115C43.036 5.50799 40.1611 3.58575 36.997 2.27478C33.8329 0.963807 30.4417 0.289582 27.0171 0.290528ZM18.1094 35.8878C16.2309 35.8878 14.3946 35.3304 12.8327 34.2861C11.2708 33.2418 10.0534 31.7575 9.33458 30.0209C8.61572 28.2842 8.42763 26.3734 8.7941 24.5297C9.16058 22.6861 10.0651 20.9925 11.3934 19.6633C12.7217 18.3341 14.4141 17.4288 16.2564 17.0621C18.0988 16.6954 20.0085 16.8838 21.744 17.6031C23.4795 18.3225 24.9629 19.5408 26.0065 21.1037C27.0501 22.6666 27.6072 24.5042 27.6072 26.3839C27.6072 27.6344 27.3605 28.8726 26.8814 30.0275C26.4023 31.1825 25.7001 32.2314 24.8151 33.1143C23.9301 33.9972 22.8797 34.6968 21.7241 35.1727C20.5684 35.6487 19.3303 35.8916 18.0806 35.8878H18.1094ZM34.0038 35.8878C30.953 35.8878 28.485 31.6328 28.485 26.3839C28.485 21.135 30.953 16.8796 34.0038 16.8796C37.0546 16.8796 39.5154 21.135 39.5154 26.3839C39.5154 31.6328 37.0186 35.8878 33.975 35.8878H34.0038ZM43.041 35.8878C41.7315 35.8878 40.6666 31.6328 40.6666 26.3839C40.6666 21.135 41.7315 16.8796 43.041 16.8796C44.3506 16.8796 45.4155 21.135 45.4155 26.3839C45.4155 31.6328 44.3218 35.8878 43.0123 35.8878H43.041Z" fill="url(#paint0_linear_236_2623)"/>
<defs>
<linearGradient id="paint0_linear_236_2623" x1="26.9883" y1="-27.9195" x2="26.9883" y2="148.656" gradientUnits="userSpaceOnUse">
<stop stop-color="#1680BF"/>
<stop offset="0.51" stop-color="#1E5C9B"/>
<stop offset="1" stop-color="#1A4484"/>
</linearGradient>
</defs>
</svg>
