<svg width="35" height="36" viewBox="0 0 35 36" fill="none" xmlns="http://www.w3.org/2000/svg">
<path fill-rule="evenodd" clip-rule="evenodd" d="M9.6544 4.16795C9.98814 3.97527 10.3993 3.97527 10.7331 4.16795L15.7153 7.04445C16.0491 7.23714 16.2547 7.59325 16.2547 7.97862V9.77643H18.5153V7.97862C18.5153 7.59325 18.7209 7.23714 19.0546 7.04445L24.0369 4.16795C24.3706 3.97527 24.7818 3.97527 25.1156 4.16795L30.0978 7.04445C30.4316 7.23714 30.6372 7.59325 30.6372 7.97862V13.7316C30.6372 14.117 30.4316 14.4731 30.0978 14.6658L25.6549 17.2309V18.8618L30.0978 21.4269C30.4316 21.6196 30.6372 21.9757 30.6372 22.3611V28.1141C30.6372 28.4995 30.4316 28.8556 30.0978 29.0483L25.1318 31.9154C24.9829 32.0051 24.8106 32.0597 24.6262 32.0681C24.6153 32.0686 24.6043 32.069 24.5934 32.0692L24.5762 32.0693L24.5562 32.0691L24.5413 32.0687C24.3513 32.0627 24.1736 32.0075 24.0207 31.9154L19.0546 29.0483C18.7209 28.8556 18.5153 28.4995 18.5153 28.1141V26.3163H16.2547V28.1141C16.2547 28.4995 16.0491 28.8556 15.7153 29.0483L10.7493 31.9154C10.5963 32.0075 10.4187 32.0627 10.2287 32.0687C10.217 32.0691 10.2054 32.0693 10.1937 32.0693C10.1771 32.0693 10.1604 32.0689 10.1438 32.0681C9.95942 32.0597 9.78711 32.0051 9.63821 31.9154L4.67216 29.0483C4.33841 28.8556 4.13281 28.4995 4.13281 28.1141V22.3611C4.13281 21.9757 4.33841 21.6196 4.67216 21.4269L9.11505 18.8618V17.2309L4.67216 14.6658C4.33841 14.4731 4.13281 14.117 4.13281 13.7316V7.97862C4.13281 7.59325 4.33841 7.23714 4.67216 7.04445L9.6544 4.16795ZM11.2724 29.1223L14.0973 27.4913V24.4918L11.2724 25.9043V29.1223ZM9.11505 25.9043V29.1223L6.29019 27.4913V24.4918L9.11505 25.9043ZM16.2547 24.1589H18.5153V22.3611C18.5153 21.9757 18.7209 21.6196 19.0546 21.4269L23.4975 18.8618V17.2309L19.0546 14.6658C18.7209 14.4731 18.5153 14.117 18.5153 13.7316V11.9338H16.2547V13.7316C16.2547 14.117 16.0491 14.4731 15.7153 14.6658L11.2724 17.2309V18.8618L15.7153 21.4269C16.0491 21.6196 16.2547 21.9757 16.2547 22.3611V24.1589ZM10.1937 6.34768L7.12934 8.11691L10.1937 9.64911L13.2581 8.11691L10.1937 6.34768ZM6.29019 13.1088V10.1094L9.11505 11.5218V14.7398L6.29019 13.1088ZM11.2724 14.7398L14.0973 13.1088V10.1094L11.2724 11.5218V14.7398ZM25.6549 29.1223L28.4798 27.4913V24.4918L25.6549 25.9043V29.1223ZM23.4975 25.9043L20.6727 24.4918V27.4913L23.4975 29.1223V25.9043ZM24.5762 9.64911L21.5118 8.11691L24.5762 6.34768L27.6406 8.11691L24.5762 9.64911ZM25.6549 11.5218L28.4798 10.1094V13.1088L25.6549 14.7398V11.5218ZM23.4975 11.5218L20.6727 10.1094V13.1088L23.4975 14.7398V11.5218ZM24.5762 24.0316L21.5118 22.4994L24.5762 20.7302L27.6406 22.4994L24.5762 24.0316ZM10.1937 24.0316L7.12934 22.4994L10.1937 20.7302L13.2581 22.4994L10.1937 24.0316Z" fill="#4161F5"/>
</svg>
