<svg width="34" height="35" viewBox="0 0 34 35" fill="none" xmlns="http://www.w3.org/2000/svg">
<path d="M20.6759 34C14.6834 34 9.79592 29.1337 9.79592 23.12C9.79228 21.1442 10.3288 19.205 11.3476 17.5121C12.3663 15.8192 13.8285 14.437 15.5759 13.515C16.0859 13.2387 16.7447 13.43 17.0209 13.9612C17.2972 14.4712 17.1059 15.13 16.5747 15.4062C15.169 16.1505 13.9928 17.264 13.1728 18.627C12.3528 19.9899 11.92 21.5506 11.9209 23.1412C11.9209 27.965 15.8522 31.8962 20.6759 31.8962C25.4997 31.8962 29.4309 27.965 29.4309 23.1412C29.4309 21.3775 28.8997 19.6775 27.9222 18.2325C27.5822 17.7437 27.7097 17.085 28.1984 16.7662C28.6872 16.4262 29.3459 16.5537 29.6647 17.0425C30.8972 18.8487 31.5559 20.9737 31.5559 23.1625C31.5559 29.155 26.6897 34.0425 20.6759 34.0425V34Z" fill="#4161F5"/>
<path d="M24.0554 19.9112C18.5729 19.9112 14.1104 15.4487 14.1104 9.96625C14.1104 4.48375 18.5729 0 24.0554 0C29.5379 0 34.0004 4.4625 34.0004 9.945C34.0004 15.4275 29.5379 19.89 24.0554 19.89V19.9112ZM24.0554 2.125C19.7416 2.125 16.2354 5.63125 16.2354 9.945C16.2354 14.2587 19.7416 17.765 24.0554 17.765C28.3691 17.765 31.8754 14.2587 31.8754 9.945C31.8754 5.63125 28.3691 2.125 24.0554 2.125Z" fill="#4161F5"/>
<path d="M11.475 28.475C5.1425 28.475 0 23.3325 0 17C0.000693647 15.1123 0.46679 13.254 1.35702 11.5895C2.24726 9.92492 3.53416 8.50556 5.10381 7.45703C6.67345 6.4085 8.47741 5.76315 10.356 5.57812C12.2345 5.39309 14.1297 5.67409 15.8737 6.39624C16.4263 6.62999 16.6812 7.24624 16.4475 7.77749C16.2137 8.32999 15.5975 8.58499 15.0662 8.35124C13.6451 7.76752 12.1022 7.54249 10.5735 7.696C9.04482 7.84951 7.57742 8.37684 6.30072 9.23147C5.02401 10.0861 3.97723 11.2418 3.25272 12.5966C2.5282 13.9514 2.1482 15.4636 2.14625 17C2.14625 22.1425 6.35375 26.35 11.4962 26.35C12.0912 26.35 12.5587 26.8175 12.5587 27.4125C12.5587 28.0075 12.0912 28.475 11.4962 28.475H11.475Z" fill="#4161F5"/>
<path d="M27.0192 12.869C27.0676 12.9227 27.1049 12.9855 27.129 13.0537C27.153 13.1219 27.1634 13.1942 27.1594 13.2664C27.1554 13.3386 27.1371 13.4093 27.1057 13.4745C27.0743 13.5396 27.0303 13.5979 26.9763 13.6459C26.4703 14.0982 25.8535 14.4082 25.1888 14.5445C24.524 14.6808 23.835 14.6384 23.1919 14.4216C22.5488 14.2049 21.9747 13.8216 21.528 13.3108C21.0814 12.7999 20.7781 12.1798 20.6491 11.5136H20.0298C19.8844 11.5136 19.7449 11.4558 19.6421 11.3529C19.5392 11.2501 19.4814 11.1106 19.4814 10.9652C19.4814 10.8197 19.5392 10.6802 19.6421 10.5774C19.7449 10.4745 19.8844 10.4168 20.0298 10.4168H20.5782V9.68555H20.0298C19.8844 9.68555 19.7449 9.62777 19.6421 9.52493C19.5392 9.42208 19.4814 9.2826 19.4814 9.13715C19.4814 8.99171 19.5392 8.85222 19.6421 8.74937C19.7449 8.64653 19.8844 8.58875 20.0298 8.58875H20.6491C20.7784 7.92271 21.0819 7.30284 21.5287 6.79227C21.9755 6.28171 22.5497 5.89868 23.1927 5.68221C23.8357 5.46573 24.5246 5.42354 25.1892 5.55994C25.8539 5.69633 26.4705 6.00644 26.9763 6.45867C27.0847 6.55564 27.1501 6.6917 27.1582 6.83692C27.1663 6.98215 27.1164 7.12464 27.0194 7.23306C26.9225 7.34148 26.7864 7.40694 26.6412 7.41503C26.496 7.42313 26.3535 7.37321 26.245 7.27625C25.8973 6.96533 25.4761 6.74825 25.0211 6.64554C24.5661 6.54283 24.0924 6.55789 23.6449 6.68929C23.1973 6.82069 22.7907 7.06409 22.4634 7.39647C22.1362 7.72885 21.8991 8.13921 21.7747 8.58875H24.417C24.5625 8.58875 24.702 8.64653 24.8048 8.74937C24.9077 8.85222 24.9654 8.99171 24.9654 9.13715C24.9654 9.2826 24.9077 9.42208 24.8048 9.52493C24.702 9.62777 24.5625 9.68555 24.417 9.68555H21.675V10.4168H23.6858C23.8313 10.4168 23.9708 10.4745 24.0736 10.5774C24.1765 10.6802 24.2342 10.8197 24.2342 10.9652C24.2342 11.1106 24.1765 11.2501 24.0736 11.3529C23.9708 11.4558 23.8313 11.5136 23.6858 11.5136H21.7747C21.8991 11.9631 22.1362 12.3735 22.4634 12.7058C22.7907 13.0382 23.1973 13.2816 23.6449 13.413C24.0924 13.5444 24.5661 13.5595 25.0211 13.4568C25.4761 13.3541 25.8973 13.137 26.245 12.8261C26.3534 12.7291 26.4959 12.6792 26.641 12.6873C26.7862 12.6953 26.9222 12.7607 27.0192 12.869Z" fill="#4161F5"/>
<path d="M6 12L9.10885 16.1451M9.10885 16.1451L12.2177 12M9.10885 16.1451V20.9811M6.69086 18.9086H11.5269M6.69086 17.5269H11.5269" stroke="#4161F5" stroke-width="1.1" stroke-linecap="round" stroke-linejoin="round"/>
<path d="M20.5 19V29M18 26.6517L18.7325 27.2008C19.7083 27.9333 21.2908 27.9333 22.2675 27.2008C23.2442 26.4683 23.2442 25.2817 22.2675 24.5492C21.78 24.1825 21.14 24 20.5 24C19.8958 24 19.2917 23.8167 18.8308 23.4508C17.9092 22.7183 17.9092 21.5317 18.8308 20.7992C19.7525 20.0667 21.2475 20.0667 22.1692 20.7992L22.515 21.0742" stroke="#4161F5" stroke-width="1.25" stroke-linecap="round" stroke-linejoin="round"/>
</svg>
