<svg width="89" height="79" viewBox="0 0 89 79" fill="none" xmlns="http://www.w3.org/2000/svg">
<path d="M39.9612 29.4179C39.9612 26.8602 39.9612 24.4533 39.9612 22.0464C40.007 21.0115 39.7621 19.9845 39.2541 19.0817C38.7461 18.1789 37.9954 17.4363 37.0871 16.9381C33.8681 14.9695 30.6635 12.9866 27.4013 11.0898C26.5788 10.5551 25.627 10.2527 24.6467 10.2148C23.6664 10.1768 22.6941 10.4047 21.8327 10.8742C18.3335 12.8141 14.8773 14.833 11.4499 16.895C10.595 17.4174 9.89604 18.1596 9.42587 19.0443C8.95571 19.9289 8.73164 20.9235 8.77703 21.9243C8.73392 25.6459 8.71955 29.3676 8.77703 33.0893C8.75546 34.1561 9.02584 35.2086 9.55898 36.1329C10.0921 37.0573 10.8677 37.8185 11.802 38.3341C14.9492 40.195 18.0604 42.1061 21.2004 43.9813C22.1592 44.6162 23.2838 44.9548 24.4338 44.9548C25.5838 44.9548 26.7084 44.6162 27.6672 43.9813C31.9784 41.402 36.2033 38.8083 40.5145 36.3008C47.5322 32.2199 54.5714 28.1749 61.6321 24.1659C62.4595 23.6672 63.4073 23.4037 64.3733 23.4037C65.3394 23.4037 66.2872 23.6672 67.1145 24.1659C71.0162 26.3931 74.8962 28.6635 78.7835 30.9123C80.8672 32.1193 82.9294 33.3623 85.0347 34.5046C86.1661 35.0429 87.1118 35.9056 87.7515 36.9828C88.3913 38.06 88.6962 39.3032 88.6273 40.5542C88.5555 47.4443 88.6273 54.3344 88.6273 61.2245C88.6971 62.3457 88.4421 63.4632 87.8928 64.4431C87.3435 65.4231 86.5233 66.2238 85.5305 66.7495C79.4733 70.2269 73.452 73.7761 67.3948 77.2463C66.4922 77.8148 65.4473 78.1165 64.3805 78.1165C63.3138 78.1165 62.2688 77.8148 61.3663 77.2463C55.3019 73.7114 49.2087 70.2412 43.1587 66.6848C42.2516 66.2058 41.4996 65.4784 40.9907 64.5878C40.4817 63.6972 40.2368 62.6802 40.2846 61.6556C40.3277 59.3924 40.2846 57.122 40.2846 54.8517C40.2963 54.6642 40.3479 54.4813 40.4359 54.3153C40.5238 54.1493 40.6462 54.004 40.7948 53.889C43.2737 52.3946 45.8245 50.9504 48.3034 49.4991C48.4589 49.4304 48.6199 49.3752 48.7848 49.3338C48.7848 49.6428 48.8351 49.887 48.8351 50.1313C48.8351 52.2005 48.8351 54.2625 48.8351 56.3245C48.7901 57.39 49.0493 58.4463 49.5825 59.37C50.1156 60.2937 50.9006 61.0465 51.8458 61.5406C55.0001 63.387 58.1473 65.2335 61.3232 67.0369C62.221 67.613 63.2634 67.9234 64.3301 67.9323C65.3969 67.9412 66.4443 67.6483 67.3516 67.0872C70.5706 65.1761 73.8184 63.2865 77.0015 61.3395C78.999 60.1324 79.7966 58.2284 79.811 55.9725C79.811 52.4304 79.8541 48.8812 79.811 45.332C79.8571 44.1797 79.5733 43.0382 78.9929 42.0416C78.4125 41.0451 77.5596 40.2348 76.5345 39.7063C73.3657 37.9461 70.2833 36.0422 67.1217 34.2676C66.1954 33.7117 65.1323 33.4252 64.0521 33.4404C62.9719 33.4557 61.9173 33.772 61.007 34.3538L39.7241 46.7114C35.686 49.0536 31.6526 51.403 27.6241 53.7596C26.6999 54.3741 25.6197 54.7126 24.5101 54.7355C23.4005 54.7584 22.3073 54.4648 21.3585 53.889C15.2175 50.3206 9.07641 46.7522 2.93537 43.1838C2.08749 42.7162 1.38319 42.0262 0.898278 41.1881C0.413369 40.35 0.166198 39.3956 0.183387 38.4275C0.135485 31.1902 0.135485 23.9527 0.183387 16.7154C0.16458 15.7942 0.399246 14.8855 0.861746 14.0886C1.32425 13.2916 1.99682 12.637 2.80604 12.1963C9.06444 8.54646 15.3085 4.85352 21.5812 1.21808C22.4852 0.649716 23.5312 0.348145 24.599 0.348145C25.6668 0.348145 26.7129 0.649716 27.6169 1.21808C33.1496 4.46076 38.6751 7.70587 44.1934 10.9533C45.0557 11.4273 45.8797 11.9678 46.6579 12.5699C47.2566 13.0376 47.7383 13.638 48.065 14.3238C48.3917 15.0096 48.5545 15.762 48.5405 16.5215C48.5405 18.9643 48.5405 21.407 48.5405 23.8426C48.52 24.0446 48.4568 24.24 48.3553 24.4158C48.2537 24.5917 48.116 24.7441 47.9513 24.8629C45.3646 26.3214 42.7635 27.8086 39.9612 29.4179Z" fill="url(#paint0_linear_6_3078)"/>
<defs>
<linearGradient id="paint0_linear_6_3078" x1="88.7423" y1="74.9257" x2="-17.8084" y2="-11.3068" gradientUnits="userSpaceOnUse">
<stop stop-color="#1680BF"/>
<stop offset="0.51" stop-color="#1E5C9B"/>
<stop offset="1" stop-color="#1A4484"/>
</linearGradient>
</defs>
</svg>
