<svg width="25" height="16" viewBox="0 0 25 16" fill="none" xmlns="http://www.w3.org/2000/svg">
<path d="M1.56738 7.28516C1.0151 7.28516 0.567383 7.73287 0.567383 8.28516C0.567383 8.83744 1.0151 9.28516 1.56738 9.28516V7.28516ZM23.7745 8.99226C24.165 8.60174 24.165 7.96857 23.7745 7.57805L17.4105 1.21409C17.02 0.823564 16.3868 0.823564 15.9963 1.21409C15.6058 1.60461 15.6058 2.23778 15.9963 2.6283L21.6532 8.28516L15.9963 13.942C15.6058 14.3325 15.6058 14.9657 15.9963 15.3562C16.3868 15.7467 17.02 15.7467 17.4105 15.3562L23.7745 8.99226ZM1.56738 9.28516H23.0674V7.28516H1.56738V9.28516Z" fill="#0160FE"/>
</svg>
