<svg width="25" height="16" viewBox="0 0 25 16" fill="none" xmlns="http://www.w3.org/2000/svg">
<path d="M1.56738 7.28439C1.0151 7.28439 0.567383 7.73211 0.567383 8.28439C0.567383 8.83668 1.0151 9.28439 1.56738 9.28439V7.28439ZM23.7745 8.9915C24.165 8.60098 24.165 7.96781 23.7745 7.57729L17.4105 1.21333C17.02 0.822801 16.3868 0.822801 15.9963 1.21333C15.6058 1.60385 15.6058 2.23701 15.9963 2.62754L21.6532 8.28439L15.9963 13.9412C15.6058 14.3318 15.6058 14.9649 15.9963 15.3555C16.3868 15.746 17.02 15.746 17.4105 15.3555L23.7745 8.9915ZM1.56738 9.28439H23.0674V7.28439H1.56738V9.28439Z" fill="white"/>
</svg>
