<svg width="34" height="34" viewBox="0 0 34 34" fill="none" xmlns="http://www.w3.org/2000/svg">
<path d="M26.9167 15.5834H7.08333C5.51853 15.5834 4.25 16.8519 4.25 18.4167V28.3334C4.25 29.8982 5.51853 31.1667 7.08333 31.1667H26.9167C28.4815 31.1667 29.75 29.8982 29.75 28.3334V18.4167C29.75 16.8519 28.4815 15.5834 26.9167 15.5834Z" stroke="#4161F5" stroke-width="2.5" stroke-linecap="round" stroke-linejoin="round"/>
<path d="M9.91699 15.5834V9.91671C9.91699 8.03809 10.6633 6.23642 11.9917 4.90803C13.32 3.57965 15.1217 2.83337 17.0003 2.83337C18.8789 2.83337 20.6806 3.57965 22.009 4.90803C23.3374 6.23642 24.0837 8.03809 24.0837 9.91671V15.5834" stroke="#4161F5" stroke-width="2.5" stroke-linecap="round" stroke-linejoin="round"/>
</svg>
