<svg width="329" height="382" viewBox="0 0 329 382" fill="none" xmlns="http://www.w3.org/2000/svg">
<path d="M152.074 381.919H119.287C119.18 379.555 118.978 377.35 118.978 375.151C118.978 310.891 118.957 246.629 118.914 182.365C118.914 178.959 118.691 175.36 117.584 172.198C115.709 166.839 110.773 164.252 105.147 164.798C102.534 165.016 100.068 166.093 98.132 167.861C96.1963 169.629 94.9008 171.988 94.4478 174.569C93.8787 177.455 93.5732 180.387 93.5353 183.328C93.4874 247.242 93.4874 311.155 93.5353 375.065V381.704H69.1124V82.4619H259.645V381.653H234.942V375.431C234.942 310.477 234.942 245.518 234.942 180.554C234.942 175.733 234.691 171.013 230.631 167.766C226.931 164.805 222.727 163.721 218.006 165.682C212.977 167.758 210.325 171.43 209.736 176.718C209.65 178.283 209.65 179.851 209.736 181.416V381.761H177.294V375.884C177.294 310.925 177.294 245.968 177.294 181.014C177.294 175.065 176.217 169.519 170.468 166.293C161.889 161.508 152.11 167.651 152.103 177.788C152.103 243.442 152.103 309.095 152.103 374.749L152.074 381.919Z" fill="url(#paint0_linear_6_3072)"/>
<path d="M163.793 31.0054C114.775 31.0054 65.7592 31.0054 16.7458 31.0054C10.3868 31.0054 5.18464 28.7925 2.18118 22.7933C-0.822278 16.7941 0.0615217 11.2978 4.16433 6.26854C7.75699 1.89307 12.7364 0.743524 18.1901 0.743524C61.9773 0.781843 105.76 0.781843 149.538 0.743524H308.103C309.497 0.743524 310.898 0.700416 312.292 0.743524C321.899 1.1315 327.568 7.04448 328.207 15.8313C328.796 24.0722 321.741 30.2007 312.4 30.9192C310.84 31.0341 309.26 30.9192 307.693 30.9192L163.793 31.0054Z" fill="url(#paint1_linear_6_3072)"/>
<path d="M164.526 67.5898C123.168 67.5898 81.8065 67.6017 40.4431 67.6257C35.7295 67.6257 31.8207 66.4115 29.3202 62.2444C25.5982 56.0224 28.731 48.4857 35.8804 46.6967C38.5926 46.0798 41.3698 45.7952 44.1507 45.8489C124.947 45.8489 205.743 45.9041 286.54 46.0142C288.615 46.03 290.682 46.2709 292.705 46.7327C298.367 47.99 301.327 52.2721 300.824 58.2282C300.604 60.7665 299.444 63.131 297.571 64.8587C295.698 66.5864 293.248 67.5527 290.7 67.5682C285.469 67.7263 280.231 67.6113 274.993 67.6113L164.526 67.5898Z" fill="url(#paint2_linear_6_3072)"/>
<defs>
<linearGradient id="paint0_linear_6_3072" x1="164.375" y1="556.78" x2="164.375" y2="-83.8418" gradientUnits="userSpaceOnUse">
<stop stop-color="#1680BF"/>
<stop offset="0.51" stop-color="#1E5C9B"/>
<stop offset="1" stop-color="#1A4484"/>
</linearGradient>
<linearGradient id="paint1_linear_6_3072" x1="164.325" y1="556.78" x2="164.325" y2="-83.8417" gradientUnits="userSpaceOnUse">
<stop stop-color="#1680BF"/>
<stop offset="0.51" stop-color="#1E5C9B"/>
<stop offset="1" stop-color="#1A4484"/>
</linearGradient>
<linearGradient id="paint2_linear_6_3072" x1="164.311" y1="556.781" x2="164.311" y2="-83.8418" gradientUnits="userSpaceOnUse">
<stop stop-color="#1680BF"/>
<stop offset="0.51" stop-color="#1E5C9B"/>
<stop offset="1" stop-color="#1A4484"/>
</linearGradient>
</defs>
</svg>
