<svg width="186" height="32" viewBox="0 0 186 32" fill="none" xmlns="http://www.w3.org/2000/svg">
<path d="M0.955141 27.9822C1.43456 26.8009 1.91398 25.6149 2.39339 24.4242C2.65947 23.7695 2.92554 23.1077 3.19881 22.4174L3.57277 22.6309C5.72205 24.0852 8.21347 24.9674 10.8072 25.1927C12.2242 25.3805 13.6658 25.2441 15.0213 24.7942C15.4081 24.6787 15.7617 24.4739 16.053 24.1968C16.3443 23.9197 16.565 23.5782 16.6968 23.2002C16.8656 22.718 16.8472 22.191 16.6452 21.7215C16.4432 21.252 16.072 20.8736 15.6038 20.6598C14.5558 20.1572 13.4628 19.7522 12.3389 19.45C10.4779 19.0156 8.64928 18.4545 6.86634 17.7707C5.77284 17.3231 4.75447 16.7136 3.84605 15.9632C2.55128 14.8402 1.7406 13.2689 1.58078 11.5726C1.27271 9.66158 1.54295 7.70312 2.35745 5.9438C2.98348 4.63266 3.90345 3.48008 5.04741 2.57375C6.19137 1.66741 7.52918 1.03117 8.95903 0.713472C11.1371 0.138609 13.412 0.0170014 15.64 0.356279C17.868 0.695557 20.0007 1.48836 21.9033 2.68463C23.018 3.36066 22.9964 3.39623 22.5361 4.59173L20.9325 8.71195C20.8822 8.84004 20.8246 8.96098 20.7599 9.12465L19.7315 8.41304C17.5989 6.94384 15.044 6.19511 12.4468 6.27823C11.2655 6.26849 10.1236 6.69764 9.24669 7.48084C8.32621 8.349 8.06731 10.4127 9.7213 11.2453C10.9675 11.8295 12.2778 12.2688 13.6262 12.5546C15.762 12.9944 17.8247 13.7298 19.7531 14.7392C21.8674 15.9347 23.3488 17.6283 23.6724 20.0763C24.3915 25.0575 22.2845 29.1066 16.9701 30.6792C15.5348 31.0896 14.0487 31.3004 12.5547 31.3054C12.4036 31.3054 12.2526 31.3054 12.1016 31.3623H11.7636L11.3106 31.3054C10.4189 31.22 9.51274 31.1916 8.62821 31.0492C5.8465 30.6868 3.19971 29.645 0.926392 28.0178L0.955141 27.9822Z" fill="url(#paint0_linear_6_1115)"/>
<path d="M119.906 15.1592C120.546 15.515 121.172 15.7996 121.732 16.1839C122.497 16.713 123.143 17.3923 123.631 18.1796C124.118 18.9668 124.437 19.8451 124.566 20.7595C124.921 22.4596 124.779 24.2246 124.156 25.8475C123.662 27.0394 122.879 28.0924 121.875 28.9129C120.872 29.7334 119.679 30.2961 118.403 30.5512C117.311 30.8189 116.191 30.9599 115.066 30.9711C110.644 31.0138 106.228 30.9711 101.813 30.9711H101.288V0.578353H101.77C106.135 0.578353 110.493 0.578353 114.858 0.578353C117.234 0.489179 119.564 1.24668 121.423 2.71317C122.198 3.34442 122.827 4.13299 123.268 5.0255C123.708 5.91801 123.95 6.89367 123.976 7.88655C124.159 9.74537 123.648 11.6062 122.538 13.1169C121.854 14.0113 120.947 14.715 119.906 15.1592ZM108.314 24.9722H108.601C110.449 24.9722 112.29 24.9722 114.139 24.9722C114.687 24.9654 115.233 24.9082 115.771 24.8014C116.282 24.7563 116.764 24.549 117.147 24.2105C117.529 23.872 117.791 23.4203 117.892 22.9228C118.014 22.2946 118.043 21.6522 117.979 21.0157C117.968 20.5309 117.802 20.0622 117.503 19.678C117.204 19.2939 116.789 19.0145 116.318 18.8809C115.671 18.696 115.005 18.5908 114.333 18.5678C112.47 18.5251 110.608 18.5678 108.745 18.5678H108.314V24.9722ZM108.314 12.4764C108.364 12.4764 108.386 12.5191 108.414 12.5191C110.5 12.5191 112.585 12.5191 114.671 12.4266C115.22 12.4519 115.762 12.2908 116.207 11.9699C116.652 11.649 116.972 11.1875 117.116 10.6618C117.226 10.1959 117.268 9.71638 117.238 9.23862C117.24 8.68939 117.054 8.15563 116.711 7.72411C116.368 7.2926 115.887 6.98871 115.347 6.86184C114.956 6.7461 114.553 6.67918 114.146 6.66261C112.312 6.66261 110.478 6.66259 108.644 6.59855C108.314 6.59855 108.292 6.75511 108.292 7.00417C108.292 8.71914 108.292 10.4341 108.292 12.1491C108.292 12.2558 108.306 12.3625 108.314 12.4622V12.4764Z" fill="url(#paint1_linear_6_1115)"/>
<path d="M173.229 18.6034V24.8015H185.728V30.964H166.232V0.614014H185.713V6.7338H173.236V12.4266H184.505C184.857 12.4266 184.987 12.4978 184.987 12.8821C184.987 14.6326 184.987 16.3879 184.987 18.1479C184.987 18.4966 184.879 18.5892 184.534 18.5892C180.938 18.5892 177.343 18.5892 173.747 18.5892L173.229 18.6034Z" fill="url(#paint2_linear_6_1115)"/>
<path d="M91.896 30.971H91.5364H85.1433C85.0351 30.9882 84.9243 30.9638 84.8334 30.903C84.7426 30.8422 84.6786 30.7495 84.6543 30.6436C83.9352 28.765 83.2161 26.8935 82.497 25.0077C82.4728 24.9019 82.4087 24.8092 82.3179 24.7484C82.2271 24.6876 82.1162 24.6633 82.008 24.6804C78.2206 24.6804 74.426 24.6804 70.6242 24.6804C70.502 24.6676 70.3794 24.7007 70.2808 24.7732C70.1822 24.8458 70.1148 24.9523 70.092 25.0718C69.3729 26.9149 68.6538 28.7508 67.9346 30.5939C67.9053 30.7198 67.829 30.83 67.721 30.9026C67.613 30.9752 67.4812 31.0047 67.3522 30.9852C65.2379 30.9852 63.1237 30.9852 61.0022 30.9852H60.5276C60.6859 30.5938 60.8153 30.2736 60.9591 29.932C65.0294 20.2827 69.1044 10.631 73.1843 0.976862C73.2153 0.844752 73.2953 0.728994 73.4086 0.652548C73.5218 0.576102 73.6599 0.544536 73.7955 0.564118C75.4135 0.564118 77.0388 0.564118 78.664 0.564118C78.7862 0.545298 78.9111 0.570998 79.0156 0.636434C79.1201 0.701871 79.197 0.802597 79.2321 0.919921C83.403 10.797 87.5788 20.674 91.7593 30.5511C91.8025 30.665 91.8384 30.8145 91.896 30.971ZM80.016 18.6958C78.7647 15.4865 77.5422 12.3341 76.2765 9.06781C75.0108 12.3412 73.7811 15.4722 72.5442 18.6958H80.016Z" fill="url(#paint3_linear_6_1115)"/>
<path d="M143.342 24.5239H155.014V30.964H136.151V0.621094H143.342V24.5239Z" fill="url(#paint4_linear_6_1115)"/>
<path d="M48.5614 31.0636H45.9365V15.0098C45.9673 14.7814 45.9307 14.5491 45.8312 14.3408C45.7317 14.1325 45.5735 13.957 45.3756 13.8356C45.2193 13.7598 45.0456 13.7257 44.8719 13.7367C44.6981 13.7476 44.5303 13.8033 44.385 13.8982C44.2397 13.9931 44.1219 14.1239 44.0434 14.2777C43.9649 14.4315 43.9284 14.6029 43.9374 14.7749V31.0849H41.2263C41.2263 30.8999 41.2263 30.722 41.2263 30.5441C41.2263 25.3992 41.2263 20.2614 41.2263 15.1165C41.2289 14.8141 41.1803 14.5135 41.0824 14.227C40.9944 14.0418 40.8454 13.8917 40.6599 13.8012C40.4744 13.7107 40.2633 13.6852 40.0613 13.7289C39.8682 13.7501 39.6865 13.8299 39.541 13.9573C39.3956 14.0846 39.2934 14.2534 39.2487 14.4405C39.2006 14.6748 39.1742 14.913 39.1696 15.1521V31.0565H37.192V7.11096H52.6101V31.0422H50.5749V30.5299C50.5749 25.3352 50.5749 20.1381 50.5749 14.9386C50.603 14.7535 50.5856 14.5643 50.5243 14.3872C50.4629 14.2101 50.3595 14.0502 50.2225 13.921C50.0846 13.7998 49.9145 13.7201 49.7324 13.6911C49.5503 13.6622 49.3636 13.6851 49.1942 13.7573C49.0176 13.8262 48.8632 13.9414 48.7479 14.0906C48.6326 14.2399 48.5606 14.4174 48.5398 14.6041C48.5291 14.7296 48.5291 14.8558 48.5398 14.9813V31.0636H48.5614Z" fill="url(#paint5_linear_6_1115)"/>
<path d="M44.8866 2.98363H32.9491C32.7092 3.00222 32.4692 2.94909 32.2602 2.83109C32.0512 2.71309 31.8828 2.53566 31.7769 2.32184C31.6604 2.11203 31.6136 1.87122 31.6433 1.6336C31.673 1.39598 31.7777 1.17366 31.9424 0.998265C32.0846 0.843443 32.2613 0.723594 32.4586 0.648239C32.6558 0.572883 32.8681 0.544111 33.0785 0.564196H46.742C50.0571 0.564196 53.3723 0.564196 56.6875 0.564196C57.0221 0.568423 57.3506 0.653934 57.6439 0.813241C57.8562 0.95397 58.0166 1.15914 58.1009 1.39785C58.1852 1.63655 58.1889 1.89587 58.1114 2.13682C58.0122 2.3682 57.8502 2.56784 57.6432 2.71356C57.4363 2.85928 57.1926 2.9454 56.9392 2.9623C56.7978 2.96941 56.6562 2.96941 56.5149 2.9623L44.8866 2.98363Z" fill="url(#paint6_linear_6_1115)"/>
<path d="M44.8938 5.90824H34.826C34.0062 5.90824 33.5388 5.23934 33.9631 4.62024C34.1616 4.3986 34.4304 4.25049 34.7254 4.20037C35.0624 4.16465 35.4023 4.16465 35.7393 4.20037H54.6236C54.8336 4.19813 55.0432 4.21722 55.2492 4.25731C55.4589 4.2954 55.6447 4.41414 55.766 4.58753C55.8873 4.76093 55.9342 4.97484 55.8965 5.18239C55.8658 5.37225 55.7708 5.54611 55.6271 5.67544C55.4833 5.80477 55.2993 5.88186 55.1054 5.894H44.8938V5.90824Z" fill="url(#paint7_linear_6_1115)"/>
<defs>
<linearGradient id="paint0_linear_6_1115" x1="11.9218" y1="-4.15389" x2="12.3796" y2="23.8764" gradientUnits="userSpaceOnUse">
<stop stop-color="#1680BF"/>
<stop offset="0.51" stop-color="#1E5C9B"/>
<stop offset="1" stop-color="#1A4484"/>
</linearGradient>
<linearGradient id="paint1_linear_6_1115" x1="112.492" y1="-5.79764" x2="112.949" y2="22.2256" gradientUnits="userSpaceOnUse">
<stop stop-color="#1680BF"/>
<stop offset="0.51" stop-color="#1E5C9B"/>
<stop offset="1" stop-color="#1A4484"/>
</linearGradient>
<linearGradient id="paint2_linear_6_1115" x1="175.595" y1="-6.8365" x2="176.053" y2="21.1938" gradientUnits="userSpaceOnUse">
<stop stop-color="#1680BF"/>
<stop offset="0.51" stop-color="#1E5C9B"/>
<stop offset="1" stop-color="#1A4484"/>
</linearGradient>
<linearGradient id="paint3_linear_6_1115" x1="75.6077" y1="-5.19988" x2="76.0654" y2="22.8304" gradientUnits="userSpaceOnUse">
<stop stop-color="#1680BF"/>
<stop offset="0.51" stop-color="#1E5C9B"/>
<stop offset="1" stop-color="#1A4484"/>
</linearGradient>
<linearGradient id="paint4_linear_6_1115" x1="145.011" y1="-6.33129" x2="145.468" y2="21.699" gradientUnits="userSpaceOnUse">
<stop stop-color="#1680BF"/>
<stop offset="0.51" stop-color="#1E5C9B"/>
<stop offset="1" stop-color="#1A4484"/>
</linearGradient>
<linearGradient id="paint5_linear_6_1115" x1="44.4983" y1="-4.68743" x2="44.956" y2="23.3428" gradientUnits="userSpaceOnUse">
<stop stop-color="#1680BF"/>
<stop offset="0.51" stop-color="#1E5C9B"/>
<stop offset="1" stop-color="#1A4484"/>
</linearGradient>
<linearGradient id="paint6_linear_6_1115" x1="44.7931" y1="-4.69452" x2="45.2508" y2="23.3355" gradientUnits="userSpaceOnUse">
<stop stop-color="#1680BF"/>
<stop offset="0.51" stop-color="#1E5C9B"/>
<stop offset="1" stop-color="#1A4484"/>
</linearGradient>
<linearGradient id="paint7_linear_6_1115" x1="44.7212" y1="-4.69478" x2="45.179" y2="23.3358" gradientUnits="userSpaceOnUse">
<stop stop-color="#1680BF"/>
<stop offset="0.51" stop-color="#1E5C9B"/>
<stop offset="1" stop-color="#1A4484"/>
</linearGradient>
</defs>
</svg>
