<svg width="309" height="751" viewBox="0 0 309 751" fill="none" xmlns="http://www.w3.org/2000/svg">
<path d="M51.3348 518.394C44.8106 511.21 38.5953 504.909 33.1489 498.004C31.7118 496.179 31.5609 491.883 32.7106 489.742C35.7931 483.994 39.7522 478.706 43.6466 473.447C47.1458 468.719 48.8128 464.782 45.6226 458.46C42.3029 451.893 37.6109 451.929 32.0711 451.835C6.5345 451.419 6.53443 451.411 2.09391 426.164C1.74902 424.232 1.49042 422.292 0.994629 419.109C9.13558 415.186 17.4418 411.336 25.6043 407.204C27.5745 406.248 29.2584 404.79 30.487 402.978C31.7156 401.165 32.4455 399.061 32.6035 396.877C32.7615 394.693 32.342 392.506 31.3871 390.535C30.4322 388.564 28.9756 386.88 27.1635 385.65C19.5973 380.499 11.6217 375.937 3.30828 370.792L13.2025 339.898C21.717 340.415 30.7705 340.66 39.7521 341.615C46.0105 342.276 50.3289 339.769 51.9671 334.316C53.1168 330.515 53.4042 325.536 51.8593 322.023C48.3888 313.969 43.5819 306.482 39.1198 298.421L63.2481 276.616C70.7999 281.738 78.1073 286.588 85.2998 291.61C89.5319 294.556 93.2036 296.187 98.492 292.817C102.961 289.943 106.892 287.788 105.49 281.652C105.479 281.324 105.505 280.996 105.57 280.675C106.59 251.304 106.59 251.304 137.048 248.344L150.7 273.569C155.27 282.019 166.666 282.73 171.753 274.769C176.675 267.053 181.403 259.207 187.022 250.119C195.874 252.956 205.029 255.5 213.795 258.992C215.763 259.775 217.423 263.906 217.438 266.507C217.438 273.691 216.331 280.876 216.051 288.061C215.598 299.556 224.479 305.052 234.567 299.685C261.088 285.575 261.088 285.575 280.381 310.556C274.992 318.883 269.323 327.548 263.747 336.277C262.737 337.774 262.141 339.511 262.018 341.312C261.895 343.113 262.25 344.915 263.047 346.535C263.844 348.155 265.055 349.536 266.557 350.538C268.059 351.54 269.799 352.128 271.6 352.242C281.717 352.96 291.863 353.233 303 353.743C305.012 362.666 307.398 371.475 308.748 380.441C309.072 382.597 306.42 386.189 304.186 387.525C297.424 391.556 290.16 394.71 283.162 398.374C274.237 403.023 273.885 413.462 282.386 418.879C282.666 419.059 282.96 419.203 283.233 419.382C291.08 424.534 303.841 428.464 305.508 435.188C307.599 443.551 300.564 454.199 297.18 464.768C288.026 464.2 278.664 463.848 269.351 462.957C264.013 462.44 258.976 462.814 257.345 468.454C256.286 472.499 256.363 476.757 257.568 480.761C259.082 485.473 261.439 489.872 264.523 493.744C271.83 503.041 269.452 509.493 260.621 516.426C244.814 528.848 250.993 530.234 232.369 518.114C228.776 515.786 225.27 513.415 221.648 511.174C214.341 506.647 205.704 511.052 205.215 519.616C204.648 529.674 204.274 539.79 203.778 550.366C194.646 552.406 186.095 554.677 177.394 555.985C175.188 556.315 171.488 554.109 170.209 552.011C166.505 545.795 163.327 539.28 160.71 532.534C158.554 526.865 154.961 524.731 149.113 524.084C142.926 523.409 140.346 526.958 137.803 531.212C137.465 531.779 137.178 532.376 136.84 532.936C123.188 555.525 123.188 555.532 98.1112 545.869C96.5879 545.279 95.1077 544.597 92.7653 543.598C93.3617 534.366 94.0659 525.018 94.5545 515.657C95.0071 506.892 85.3213 500.368 77.5468 504.312C68.8095 508.788 60.2374 513.602 51.3348 518.394ZM177.207 333.935C137.925 321.355 98.5207 341.838 85.7955 381.483C73.9039 418.527 95.5964 459.2 133.736 471.392C142.732 474.322 152.222 475.435 161.652 474.665C171.082 473.895 180.265 471.258 188.668 466.908C197.07 462.558 204.523 456.581 210.595 449.325C216.666 442.069 221.234 433.679 224.034 424.642C236.457 385.198 216.489 346.515 177.207 333.935Z" fill="url(#paint0_linear_237_2)"/>
<path d="M114.939 580.958C116.52 581.051 117.569 581.109 118.618 581.181C134.016 582.158 131.257 578.53 135.058 594.221C135.733 597.03 138.097 600.493 140.555 601.463C142.488 602.232 146.303 600.263 148.344 598.431C159.395 588.372 159.84 588.279 172.63 599.459C171.193 603.834 169.648 608.36 168.319 612.966C166.465 619.489 170.043 623.341 176.589 621.875C181.252 620.833 185.858 619.554 190.579 618.361C191.578 619.683 192.44 620.668 193.137 621.767C200.243 632.975 200.085 632.824 190.758 641.884C188.438 644.14 186.023 647.905 186.303 650.707C186.505 652.719 191.096 654.335 193.791 656.038C198.246 658.869 206.272 656.11 205.948 666.355C205.668 675.092 202.787 678.483 194.574 679.568C191.139 680.02 185.951 682.355 185.319 684.791C184.601 687.557 187.547 691.94 189.968 694.655C198.339 704.031 198.519 703.873 187.511 717.905C182.883 716.425 177.882 714.615 172.766 713.242C166.903 711.669 163.842 714.816 165.021 720.858C165.128 721.383 165.308 721.885 165.43 722.41C169.023 737.641 169.023 737.641 153.172 744.381C149.802 740.637 146.382 736.614 142.725 732.828C138.672 728.632 133.844 729.752 131.947 735.27C130.287 740.048 128.835 744.898 127.068 750.423C124.887 750.362 122.704 750.422 120.529 750.603C112.259 751.673 108.408 748.16 107.488 739.826C107.107 736.399 104.563 730.845 102.372 730.521C99.1314 730.047 94.7197 732.677 91.8958 735.213C83.7764 742.484 83.992 742.721 69.3411 733.129C70.2752 730.198 71.7698 727.037 72.2153 723.732C72.747 719.924 73.5661 715.434 72.1003 712.237C69.6357 706.848 64.6706 710.246 60.8481 711.195C50.7383 713.702 45.1769 710.375 43.4525 700.051C43.2225 698.65 44.3578 696.66 45.4428 695.467C47.7709 692.917 50.5803 690.812 52.9946 688.333C57.3058 683.943 56.2063 678.957 50.5084 676.471C49.0553 675.776 47.4868 675.355 45.8811 675.228C37.7114 674.912 35.3115 670.917 35.9941 662.863C36.5115 656.792 37.9988 653.43 44.4153 653.236C46.2547 653.186 48.0798 652.561 49.8977 652.115C57.5644 650.225 59.3536 644.557 54.0652 638.938C52.9658 637.767 51.7803 636.69 50.6665 635.54C44.9686 629.677 45.8452 619.64 53.1382 615.89C55.5094 614.669 59.526 616.91 62.8168 617.111C66.6897 617.341 71.9781 618.548 74.0978 616.608C76.2175 614.669 76.2534 609.064 75.5349 605.407C73.25 593.991 73.0344 593.912 89.0792 587.74C92.1473 591.11 95.2872 594.695 98.5781 598.137C103.076 602.828 108.271 601.557 110.348 595.306C111.842 590.765 113.265 586.196 114.939 580.958ZM108.386 703.191C113.395 704.877 118.687 705.556 123.959 705.188C129.232 704.819 134.378 703.411 139.104 701.044C143.829 698.677 148.038 695.398 151.49 691.396C154.942 687.395 157.567 682.749 159.215 677.728C165.531 658.43 153.661 635.008 134.246 628.449C113.624 621.487 90.4516 632.601 83.4459 652.819C76.3684 673.245 87.8145 696.351 108.386 703.205V703.191Z" fill="url(#paint1_linear_237_2)"/>
<path d="M107.474 0.637695C109.464 0.75265 110.793 0.824763 112.122 0.91098C131.523 2.14674 128.074 -2.43013 132.866 17.3708C133.721 20.9129 136.703 25.274 139.8 26.5169C142.25 27.4797 147.093 24.9939 149.637 22.6804C163.584 9.99945 164.158 9.87 180.297 23.9879C178.529 29.5057 176.532 35.2175 174.872 41.0371C172.529 49.2707 177.027 54.1279 185.305 52.2814C191.19 50.9666 197.01 49.3499 202.959 47.8411C204.224 49.508 205.316 50.7581 206.193 52.152C215.16 66.3058 214.959 66.1116 203.196 77.5281C200.257 80.402 197.211 85.1295 197.57 88.6643C197.822 91.2077 203.62 93.2411 207.012 95.3965C212.645 98.9888 222.776 95.4828 222.359 108.415C222.007 119.444 218.379 123.719 207.989 125.091C203.678 125.666 197.089 128.611 196.313 131.686C195.429 135.171 199.122 140.703 202.183 144.137C212.746 155.97 212.961 155.769 199.072 173.487C193.23 171.611 186.921 169.327 180.469 167.595C173.068 165.605 169.203 169.585 170.697 177.215C170.826 177.869 171.056 178.509 171.207 179.162C175.698 198.396 175.698 198.396 155.737 206.903C151.484 202.175 147.172 197.103 142.552 192.318C137.436 187.023 131.343 188.438 128.9 195.4C126.809 201.428 124.97 207.549 122.735 214.526C120.314 214.583 117.361 214.382 114.486 214.755C104.046 216.099 99.1889 211.673 98.0249 201.162C97.5506 196.851 94.3316 189.825 91.5581 189.422C87.4768 188.819 81.9011 192.145 78.3372 195.342C68.091 204.51 68.3639 204.812 49.8689 192.706C51.0545 189.013 52.9299 185.018 53.5119 180.851C54.173 176.037 55.2149 170.376 53.3611 166.324C50.2498 159.527 44.0202 163.816 39.1557 165.009C26.4018 168.177 19.3817 163.981 17.2046 150.941C16.91 149.174 18.347 146.666 19.7122 145.193C22.651 141.968 26.179 139.316 29.2471 136.184C34.6433 130.645 33.2997 124.351 26.1072 121.211C24.2729 120.334 22.2925 119.803 20.2655 119.645C9.95459 119.242 6.92959 114.199 7.79182 104.04C8.4385 96.3738 10.3211 92.1275 18.4189 91.8904C20.7326 91.8186 23.0463 91.0355 25.3384 90.4535C35.017 88.0682 37.2731 80.9121 30.598 73.8137C29.2112 72.3408 27.7239 70.9398 26.2868 69.5029C19.1015 62.1027 20.2008 49.4361 29.4052 44.7014C32.4015 43.1638 37.4671 45.9945 41.6202 46.246C46.5134 46.5334 53.1886 48.0855 55.8615 45.6068C58.5345 43.1281 58.5776 36.0872 57.6579 31.4746C54.7837 17.0622 54.5035 16.9831 74.7516 9.20212C78.6245 13.4483 82.5837 17.9746 86.744 22.3142C92.4204 28.2415 98.959 26.625 101.596 18.7218C103.565 12.9884 105.361 7.22604 107.474 0.637695ZM99.2033 154.907C105.525 157.037 112.206 157.894 118.86 157.429C125.515 156.964 132.011 155.187 137.976 152.199C143.94 149.212 149.254 145.073 153.61 140.022C157.967 134.971 161.281 129.108 163.361 122.77C171.329 98.4069 156.348 68.8419 131.846 60.5652C105.814 51.7783 76.5696 65.8099 67.7245 91.3298C58.7932 117.101 73.2643 146.286 99.2033 154.907Z" fill="url(#paint2_linear_237_2)"/>
<defs>
<linearGradient id="paint0_linear_237_2" x1="108.633" y1="549.868" x2="203.003" y2="255.208" gradientUnits="userSpaceOnUse">
<stop stop-color="#1680BF"/>
<stop offset="0.51" stop-color="#1E5C9B"/>
<stop offset="1" stop-color="#1A4484"/>
</linearGradient>
<linearGradient id="paint1_linear_237_2" x1="95.844" y1="744.826" x2="146.531" y2="586.562" gradientUnits="userSpaceOnUse">
<stop stop-color="#1680BF"/>
<stop offset="0.51" stop-color="#1E5C9B"/>
<stop offset="1" stop-color="#1A4484"/>
</linearGradient>
<linearGradient id="paint2_linear_237_2" x1="83.3819" y1="207.437" x2="147.359" y2="7.67317" gradientUnits="userSpaceOnUse">
<stop stop-color="#1680BF"/>
<stop offset="0.51" stop-color="#1E5C9B"/>
<stop offset="1" stop-color="#1A4484"/>
</linearGradient>
</defs>
</svg>
