<svg width="36" height="36" viewBox="0 0 36 36" fill="none" xmlns="http://www.w3.org/2000/svg">
<path fill-rule="evenodd" clip-rule="evenodd" d="M18.4654 21.1431L14.8369 17.5145C14.4826 17.1603 13.9082 17.1603 13.554 17.5145L9.92547 21.1431C9.57121 21.4973 9.57121 22.0717 9.92547 22.4259L13.554 26.0545C13.9082 26.4087 14.4826 26.4087 14.8369 26.0545L18.4654 22.4259C18.8196 22.0717 18.8196 21.4973 18.4654 21.1431ZM14.1954 24.1302L11.8498 21.7845L14.1954 19.4389L16.5411 21.7845L14.1954 24.1302Z" fill="#4161F5"/>
<path fill-rule="evenodd" clip-rule="evenodd" d="M21.4525 6.36328C17.2347 6.36328 13.764 9.56163 13.3333 13.6653C9.2296 14.096 6.03125 17.5668 6.03125 21.7845C6.03125 26.2935 9.68648 29.9487 14.1954 29.9487C18.4132 29.9487 21.8839 26.7503 22.3146 22.6467C26.4183 22.216 29.6167 18.7452 29.6167 14.5275C29.6167 10.0185 25.9614 6.36328 21.4525 6.36328ZM21.4525 8.17754C18.234 8.17754 15.5748 10.572 15.1591 13.6766C18.8978 14.1162 21.8637 17.0821 22.3033 20.8209C25.408 20.4051 27.8024 17.7459 27.8024 14.5275C27.8024 11.0205 24.9594 8.17754 21.4525 8.17754ZM14.1954 15.4346C10.6885 15.4346 7.84551 18.2775 7.84551 21.7845C7.84551 25.2915 10.6885 28.1344 14.1954 28.1344C17.7024 28.1344 20.5453 25.2915 20.5453 21.7845C20.5453 18.2775 17.7024 15.4346 14.1954 15.4346Z" fill="#4161F5"/>
<path d="M9.92547 6.62897C10.2797 6.27472 10.8541 6.27472 11.2083 6.62897L13.6274 9.04799C13.7143 9.13496 13.78 9.2352 13.8242 9.34219C13.8686 9.44915 13.8931 9.56643 13.8931 9.68943C13.8931 9.81243 13.8686 9.92971 13.8242 10.0367C13.78 10.1437 13.7143 10.2439 13.6274 10.3309L11.2083 12.7499C10.8541 13.1041 10.2797 13.1041 9.92547 12.7499C9.57121 12.3956 9.57121 11.8213 9.92547 11.467L10.7959 10.5966H9.3574C8.52241 10.5966 7.84551 11.2735 7.84551 12.1084V14.5275C7.84551 15.0285 7.43938 15.4346 6.93838 15.4346C6.43739 15.4346 6.03125 15.0285 6.03125 14.5275V12.1084C6.03125 10.2715 7.52042 8.7823 9.3574 8.7823H10.7959L9.92547 7.91185C9.57121 7.55759 9.57121 6.98323 9.92547 6.62897Z" fill="#4161F5"/>
<path d="M24.4396 29.683C24.7938 30.0373 25.3682 30.0373 25.7224 29.683C26.0767 29.3287 26.0767 28.7544 25.7224 28.4001L24.852 27.5297H26.2905C28.1275 27.5297 29.6167 26.0405 29.6167 24.2035V21.7845C29.6167 21.2835 29.2105 20.8774 28.7095 20.8774C28.2085 20.8774 27.8024 21.2835 27.8024 21.7845V24.2035C27.8024 25.0385 27.1255 25.7154 26.2905 25.7154H24.852L25.7224 24.845C26.0767 24.4907 26.0767 23.9163 25.7224 23.5621C25.3682 23.2078 24.7938 23.2078 24.4396 23.5621L22.0205 25.9811C21.8434 26.1582 21.7549 26.3904 21.7549 26.6225C21.7549 26.7455 21.7793 26.8628 21.8237 26.9698C21.868 27.0768 21.9336 27.177 22.0205 27.264L24.4396 29.683Z" fill="#4161F5"/>
</svg>
