<svg width="35" height="35" viewBox="0 0 35 35" fill="none" xmlns="http://www.w3.org/2000/svg">
<path fill-rule="evenodd" clip-rule="evenodd" d="M9.6544 3.62694C9.98814 3.43425 10.3993 3.43425 10.7331 3.62694L15.7153 6.50344C16.0491 6.69613 16.2547 7.05223 16.2547 7.43761V9.23542H18.5153V7.43761C18.5153 7.05223 18.7209 6.69613 19.0546 6.50344L24.0369 3.62694C24.3706 3.43425 24.7818 3.43425 25.1156 3.62694L30.0978 6.50344C30.4316 6.69613 30.6372 7.05223 30.6372 7.43761V13.1906C30.6372 13.576 30.4316 13.9321 30.0978 14.1248L25.6549 16.6899V18.3208L30.0978 20.8859C30.4316 21.0786 30.6372 21.4347 30.6372 21.8201V27.5731C30.6372 27.9585 30.4316 28.3146 30.0978 28.5073L25.1318 31.3744C24.9829 31.4641 24.8106 31.5187 24.6262 31.5271C24.6153 31.5276 24.6043 31.528 24.5934 31.5281L24.5762 31.5283L24.5562 31.5281L24.5413 31.5277C24.3513 31.5217 24.1736 31.4665 24.0207 31.3744L19.0546 28.5073C18.7209 28.3146 18.5153 27.9585 18.5153 27.5731V25.7753H16.2547V27.5731C16.2547 27.9585 16.0491 28.3146 15.7153 28.5073L10.7493 31.3744C10.5963 31.4665 10.4187 31.5217 10.2287 31.5277C10.217 31.5281 10.2054 31.5283 10.1937 31.5283C10.1771 31.5283 10.1604 31.5279 10.1438 31.5271C9.95942 31.5187 9.78711 31.4641 9.63821 31.3744L4.67216 28.5073C4.33841 28.3146 4.13281 27.9585 4.13281 27.5731V21.8201C4.13281 21.4347 4.33841 21.0786 4.67216 20.8859L9.11505 18.3208V16.6899L4.67216 14.1248C4.33841 13.9321 4.13281 13.576 4.13281 13.1906V7.43761C4.13281 7.05223 4.33841 6.69613 4.67216 6.50344L9.6544 3.62694ZM11.2724 28.5813L14.0973 26.9503V23.9508L11.2724 25.3633V28.5813ZM9.11505 25.3633V28.5813L6.29019 26.9503V23.9508L9.11505 25.3633ZM16.2547 23.6179H18.5153V21.8201C18.5153 21.4347 18.7209 21.0786 19.0546 20.8859L23.4975 18.3208V16.6899L19.0546 14.1248C18.7209 13.9321 18.5153 13.576 18.5153 13.1906V11.3928H16.2547V13.1906C16.2547 13.576 16.0491 13.9321 15.7153 14.1248L11.2724 16.6899V18.3208L15.7153 20.8859C16.0491 21.0786 16.2547 21.4347 16.2547 21.8201V23.6179ZM10.1937 5.80667L7.12934 7.5759L10.1937 9.1081L13.2581 7.5759L10.1937 5.80667ZM6.29019 12.5678V9.56834L9.11505 10.9808V14.1988L6.29019 12.5678ZM11.2724 14.1988L14.0973 12.5678V9.56834L11.2724 10.9808V14.1988ZM25.6549 28.5813L28.4798 26.9503V23.9508L25.6549 25.3633V28.5813ZM23.4975 25.3633L20.6727 23.9508V26.9503L23.4975 28.5813V25.3633ZM24.5762 9.1081L21.5118 7.5759L24.5762 5.80667L27.6406 7.5759L24.5762 9.1081ZM25.6549 10.9808L28.4798 9.56834V12.5678L25.6549 14.1988V10.9808ZM23.4975 10.9808L20.6727 9.56834V12.5678L23.4975 14.1988V10.9808ZM24.5762 23.4906L21.5118 21.9584L24.5762 20.1892L27.6406 21.9584L24.5762 23.4906ZM10.1937 23.4906L7.12934 21.9584L10.1937 20.1892L13.2581 21.9584L10.1937 23.4906Z" fill="#4161F5"/>
</svg>
