<svg width="52" height="52" viewBox="0 0 52 52" fill="none" xmlns="http://www.w3.org/2000/svg">
<path d="M24.101 0.290527H27.8209C27.9792 0.290527 28.1447 0.362444 28.3102 0.384044C29.1521 0.499246 30.0083 0.557002 30.843 0.722604C37.55 2.02005 43.4692 5.92588 47.3025 11.5839C51.1359 17.242 52.5705 24.1904 51.292 30.9054C50.2001 37.0832 46.8056 42.6159 41.7942 46.3857C38.9291 48.6699 35.5988 50.2985 32.0374 51.1568C28.4759 52.0151 24.7699 52.0821 21.1797 51.3537C16.232 50.4724 11.6709 48.1012 8.10587 44.5568C4.04051 40.6751 1.38665 35.5464 0.565201 29.984C0.457272 29.3143 0.363734 28.6375 0.263 27.9607V24.1374C0.342149 23.5758 0.406911 23.0141 0.493255 22.4597C1.26333 17.0756 3.71149 12.0718 7.48906 8.16108C11.2666 4.2504 16.181 1.63228 21.5323 0.679361C22.3741 0.528159 23.2304 0.420129 24.101 0.290527ZM41.8014 16.001L41.7438 15.8573L41.9885 15.634C43.0236 14.7457 43.8117 13.6047 44.2766 12.3219C44.3162 12.1714 44.338 12.0166 44.3413 11.861C44.1736 11.8712 44.0085 11.908 43.852 11.9693C42.5506 12.6938 41.1562 13.2362 39.7076 13.5819C39.5919 13.6155 39.4691 13.6157 39.3532 13.5826C39.2374 13.5495 39.1333 13.4845 39.0528 13.3949C37.6091 12.0133 35.6899 11.24 33.6923 11.2348C32.5498 11.211 31.4157 11.4351 30.3679 11.8916C29.3202 12.3481 28.3836 13.0262 27.6227 13.8793C26.8617 14.7325 26.2944 15.7402 25.9597 16.8336C25.6251 17.9269 25.531 19.0799 25.6839 20.2132C25.6839 20.386 25.6839 20.5662 25.6839 20.7894C22.6221 20.5822 19.6359 19.745 16.9121 18.3302C14.1884 16.9154 11.7857 14.9534 9.85432 12.5669C9.17053 13.5554 8.76314 14.7086 8.67429 15.9075C8.54331 17.2207 8.72545 18.5464 9.20576 19.7755C9.68606 21.0046 10.4508 22.1023 11.4373 22.9783C10.6588 22.8004 9.89596 22.5596 9.15637 22.2582C8.58795 22.0278 8.516 22.0419 8.56637 22.6756C8.62252 24.2206 9.12934 25.7157 10.0244 26.9759C10.9194 28.2362 12.1634 29.2066 13.6031 29.7677L13.97 29.9333C13.2702 30.012 12.5651 30.0339 11.8618 29.9984C11.3078 29.9552 11.2286 29.9983 11.4229 30.4951C11.8076 31.5818 12.4296 32.5688 13.2436 33.3847C14.0577 34.2005 15.0432 34.8244 16.1286 35.2111C16.769 35.4559 17.4525 35.5855 18.1649 35.7799C14.9365 38.083 10.9758 39.1205 7.03377 38.6958C7.13871 38.8736 7.28417 39.0244 7.45829 39.1353C11.5589 41.6782 16.3756 42.8155 21.1797 42.3753C24.5347 42.1775 27.7904 41.1613 30.6631 39.4158C37.9015 34.8653 41.3697 28.1909 41.528 19.7164C41.5135 19.5469 41.5438 19.3766 41.6158 19.2225C41.6877 19.0683 41.7989 18.9359 41.9381 18.8382C43.191 17.8786 44.2818 16.7239 45.1688 15.4181C45.2717 15.2426 45.3561 15.0568 45.4206 14.8637L41.8014 16.001Z" fill="url(#paint0_linear_236_2618)"/>
<defs>
<linearGradient id="paint0_linear_236_2618" x1="26.0077" y1="-27.9195" x2="26.0077" y2="148.656" gradientUnits="userSpaceOnUse">
<stop stop-color="#1680BF"/>
<stop offset="0.51" stop-color="#1E5C9B"/>
<stop offset="1" stop-color="#1A4484"/>
</linearGradient>
</defs>
</svg>
