<svg width="35" height="36" viewBox="0 0 35 36" fill="none" xmlns="http://www.w3.org/2000/svg">
<path fill-rule="evenodd" clip-rule="evenodd" d="M13.5266 5.54552C13.9258 3.78353 15.5013 2.46802 17.384 2.46802C19.5684 2.46802 21.3392 4.23881 21.3392 6.4232C21.3392 8.60759 19.5684 10.3784 17.384 10.3784C15.6651 10.3784 14.2022 9.28181 13.6569 7.75004C11.4257 8.42337 9.50181 9.7075 8.16349 11.4056C7.79474 11.8735 7.1165 11.9539 6.6486 11.5852C6.1807 11.2164 6.10033 10.5382 6.46908 10.0703C8.20113 7.87252 10.6968 6.29029 13.5266 5.54552ZM15.5863 6.40686C15.5951 5.42148 16.3966 4.62539 17.384 4.62539C18.3769 4.62539 19.1818 5.4303 19.1818 6.4232C19.1818 7.41611 18.3769 8.22101 17.384 8.22101C16.3971 8.22101 15.5958 7.42568 15.5863 6.44096L15.5862 6.4232L15.5863 6.40686Z" fill="#4161F5"/>
<path fill-rule="evenodd" clip-rule="evenodd" d="M28.1195 24.2733C28.5874 24.6421 28.6677 25.3203 28.2989 25.7882C26.575 27.9754 24.0786 29.5556 21.2421 30.3102C20.8438 32.0736 19.2677 33.3904 17.384 33.3904C15.1996 33.3904 13.4288 31.6196 13.4288 29.4352C13.4288 27.2508 15.1996 25.48 17.384 25.48C19.1017 25.48 20.5637 26.575 21.11 28.105C23.3519 27.4227 25.2758 26.1386 26.6046 24.4527C26.9734 23.9848 27.6516 23.9045 28.1195 24.2733ZM19.1818 29.4173C19.1722 28.4326 18.371 27.6374 17.384 27.6374C16.3911 27.6374 15.5862 28.4423 15.5862 29.4352C15.5862 30.4281 16.3911 31.233 17.384 31.233C18.3714 31.233 19.1729 30.437 19.1818 29.4517C19.1816 29.4402 19.1816 29.4287 19.1818 29.4173Z" fill="#4161F5"/>
<path fill-rule="evenodd" clip-rule="evenodd" d="M25.2429 7.01421C24.775 6.64548 24.0968 6.72589 23.728 7.19381C23.3593 7.66174 23.4397 8.33997 23.9076 8.7087C25.6109 10.0509 26.895 11.9748 27.5646 14.2016C26.0321 14.7465 24.9348 16.2097 24.9348 17.9292C24.9348 20.1136 26.7056 21.8844 28.89 21.8844C31.0744 21.8844 32.8452 20.1136 32.8452 17.9292C32.8452 16.0468 31.5303 14.4716 29.7688 14.072C29.0282 11.2449 27.4451 8.74953 25.2429 7.01421ZM28.9063 16.1315C28.8949 16.1316 28.8836 16.1316 28.8724 16.1315C27.8876 16.1409 27.0922 16.9422 27.0922 17.9292C27.0922 18.9221 27.8971 19.727 28.89 19.727C29.8829 19.727 30.6878 18.9221 30.6878 17.9292C30.6878 16.9417 29.8917 16.1402 28.9063 16.1315Z" fill="#4161F5"/>
<path fill-rule="evenodd" clip-rule="evenodd" d="M1.92285 17.9292C1.92285 19.8122 3.23871 21.3879 5.00107 21.7868C5.74848 24.6184 7.33018 27.1142 9.52507 28.8441C9.99296 29.2129 10.6712 29.1325 11.04 28.6647C11.4087 28.1968 11.3284 27.5185 10.8605 27.1498C9.16564 25.8139 7.88151 23.8901 7.20578 21.656C8.73708 21.1104 9.83322 19.6478 9.83322 17.9292C9.83322 15.7448 8.06243 13.974 5.87804 13.974C3.69365 13.974 1.92285 15.7448 1.92285 17.9292ZM7.67585 17.9292C7.67585 18.9162 6.88052 19.7174 5.8958 19.7269L5.86168 19.7269C4.87631 19.7182 4.08023 18.9166 4.08023 17.9292C4.08023 16.9363 4.88513 16.1314 5.87804 16.1314C6.87094 16.1314 7.67585 16.9363 7.67585 17.9292Z" fill="#4161F5"/>
<path fill-rule="evenodd" clip-rule="evenodd" d="M18.1468 12.8517C17.7255 12.4304 17.0425 12.4304 16.6213 12.8517L12.3065 17.1664C11.8853 17.5877 11.8853 18.2707 12.3065 18.6919L16.6213 23.0067C17.0425 23.4279 17.7255 23.4279 18.1468 23.0067L22.4615 18.6919C22.8828 18.2707 22.8828 17.5877 22.4615 17.1664L18.1468 12.8517ZM17.384 20.7185L14.5948 17.9292L17.384 15.1399L20.1733 17.9292L17.384 20.7185Z" fill="#4161F5"/>
</svg>
