<svg width="36" height="36" viewBox="0 0 36 36" fill="none" xmlns="http://www.w3.org/2000/svg">
<path fill-rule="evenodd" clip-rule="evenodd" d="M14.1897 5.66247C14.5889 3.90047 16.1644 2.58496 18.0471 2.58496C20.2315 2.58496 22.0023 4.35576 22.0023 6.54015C22.0023 8.72453 20.2315 10.4953 18.0471 10.4953C16.3282 10.4953 14.8653 9.39876 14.32 7.86698C12.0888 8.54031 10.1649 9.82444 8.82658 11.5226C8.45782 11.9905 7.77958 12.0709 7.31168 11.7021C6.84379 11.3333 6.76341 10.6551 7.13217 10.1872C8.86422 7.98947 11.3598 6.40723 14.1897 5.66247ZM16.2494 6.5238C16.2582 5.53842 17.0597 4.74233 18.0471 4.74233C19.04 4.74233 19.8449 5.54724 19.8449 6.54015C19.8449 7.53305 19.04 8.33796 18.0471 8.33796C17.0601 8.33796 16.2589 7.54263 16.2494 6.5579L16.2493 6.54015L16.2494 6.5238Z" fill="#4161F5"/>
<path fill-rule="evenodd" clip-rule="evenodd" d="M28.7826 24.3902C29.2505 24.759 29.3308 25.4373 28.962 25.9051C27.238 28.0923 24.7416 29.6726 21.9052 30.4272C21.5069 32.1905 19.9308 33.5073 18.0471 33.5073C15.8627 33.5073 14.0919 31.7365 14.0919 29.5521C14.0919 27.3677 15.8627 25.5969 18.0471 25.5969C19.7648 25.5969 21.2268 26.6919 21.773 28.2219C24.015 27.5397 25.9388 26.2556 27.2677 24.5696C27.6365 24.1018 28.3147 24.0214 28.7826 24.3902ZM19.8448 29.5343C19.8353 28.5496 19.0341 27.7543 18.0471 27.7543C17.0542 27.7543 16.2493 28.5592 16.2493 29.5521C16.2493 30.545 17.0542 31.3499 18.0471 31.3499C19.0345 31.3499 19.836 30.5539 19.8449 29.5686C19.8447 29.5571 19.8447 29.5457 19.8448 29.5343Z" fill="#4161F5"/>
<path fill-rule="evenodd" clip-rule="evenodd" d="M25.906 7.13115C25.4381 6.76242 24.7598 6.84284 24.3911 7.31076C24.0224 7.77868 24.1028 8.45692 24.5707 8.82564C26.274 10.1678 27.5581 12.0917 28.2277 14.3185C26.6952 14.8634 25.5979 16.3267 25.5979 18.0461C25.5979 20.2305 27.3687 22.0013 29.5531 22.0013C31.7375 22.0013 33.5083 20.2305 33.5083 18.0461C33.5083 16.1638 32.1933 14.5886 30.4319 14.1889C29.6912 11.3618 28.1082 8.86647 25.906 7.13115ZM29.5694 16.2484C29.558 16.2486 29.5467 16.2486 29.5354 16.2484C28.5507 16.2579 27.7553 17.0591 27.7553 18.0461C27.7553 19.039 28.5602 19.844 29.5531 19.844C30.546 19.844 31.3509 19.039 31.3509 18.0461C31.3509 17.0587 30.5548 16.2571 29.5694 16.2484Z" fill="#4161F5"/>
<path fill-rule="evenodd" clip-rule="evenodd" d="M2.58594 18.0461C2.58594 19.9291 3.9018 21.5048 5.66415 21.9038C6.41157 24.7353 7.99326 27.2312 10.1882 28.9611C10.656 29.3298 11.3343 29.2495 11.7031 28.7816C12.0718 28.3137 11.9915 27.6355 11.5236 27.2667C9.82872 25.9309 8.54459 24.007 7.86887 21.7729C9.40016 21.2274 10.4963 19.7648 10.4963 18.0461C10.4963 15.8618 8.72551 14.091 6.54112 14.091C4.35673 14.091 2.58594 15.8618 2.58594 18.0461ZM8.33893 18.0461C8.33893 19.0331 7.54361 19.8343 6.55888 19.8439L6.52476 19.8439C5.53939 19.8351 4.74331 19.0336 4.74331 18.0461C4.74331 17.0532 5.54822 16.2483 6.54112 16.2483C7.53403 16.2483 8.33893 17.0532 8.33893 18.0461Z" fill="#4161F5"/>
<path fill-rule="evenodd" clip-rule="evenodd" d="M18.8099 12.9686C18.3886 12.5474 17.7056 12.5474 17.2844 12.9686L12.9696 17.2834C12.5484 17.7046 12.5484 18.3876 12.9696 18.8089L17.2844 23.1236C17.7056 23.5449 18.3886 23.5449 18.8099 23.1236L23.1246 18.8089C23.5459 18.3876 23.5459 17.7046 23.1246 17.2834L18.8099 12.9686ZM18.0471 20.8354L15.2579 18.0461L18.0471 15.2569L20.8364 18.0461L18.0471 20.8354Z" fill="#4161F5"/>
</svg>
