<svg width="136" height="28" viewBox="0 0 136 28" fill="none" xmlns="http://www.w3.org/2000/svg">
<path d="M28.3604 24.3352L32.1524 19.7667C33.9352 21.1987 36.18 22.2057 38.0367 22.2057C40.0505 22.2057 40.9004 21.5451 40.9004 20.4226C40.9004 19.2216 39.6256 18.8382 37.4963 17.9836L34.3417 16.6671C31.6305 15.5861 29.261 13.2995 29.261 9.65948C29.261 5.36346 33.1316 1.84351 38.6279 1.84351C41.746 1.84544 44.7427 3.05191 46.9925 5.21103L43.6624 9.36846C41.9581 8.16742 40.4893 7.54843 38.6279 7.54843C37.0021 7.54843 35.9952 8.13047 35.9952 9.25298C35.9952 10.4494 37.4317 10.879 39.7133 11.7659L42.771 12.9669C45.9348 14.2234 47.7362 16.3991 47.7362 19.8821C47.7362 24.1412 44.1751 27.9337 37.9074 27.9337C34.3955 27.9236 31.0054 26.6457 28.3604 24.3352Z" fill="#0160FE"/>
<path d="M50.8862 20.0349V13.2998H48.332V8.34325L51.2742 8.11228L52.0502 3.08179H57.5465V8.11228H61.9575V13.2998H57.5465V19.9194C57.5465 22.0489 58.6273 22.7464 59.8559 22.7464C60.4369 22.7345 61.0122 22.63 61.5602 22.4369L62.5671 27.2365C61.0911 27.7096 59.5492 27.9451 57.9992 27.934C52.9785 27.934 50.8862 24.7605 50.8862 20.0349Z" fill="#0160FE"/>
<path d="M63.9717 21.9707C63.9717 17.9472 67.0663 15.7022 74.4979 14.9261C74.3455 13.5403 73.491 12.9121 71.7867 12.9121C70.401 12.9121 68.923 13.4572 66.9139 14.5381L64.6045 10.2051C67.1506 8.58148 70.0976 7.6971 73.1169 7.65063C78.1514 7.65063 81.1721 10.3576 81.1721 16.7092V27.4724H75.7357L75.2739 25.6246H75.1168C73.5695 27.0104 71.8837 27.9343 69.7775 27.9343C66.1379 27.9343 63.9717 25.1488 63.9717 21.9707ZM74.4979 21.5087V18.8757C71.3248 19.3376 70.3179 20.3493 70.3179 21.4302C70.3179 22.3218 70.9368 22.816 72.1008 22.816C73.1816 22.8253 73.8005 22.2848 74.4979 21.5087Z" fill="#0160FE"/>
<path d="M91.3746 25.3793H91.2175L90.691 27.4719H85.4902V0.5271H92.1459V6.79559L91.9935 9.56721C93.2834 8.34977 94.9821 7.6593 96.7555 7.63169C101.323 7.63169 104.303 11.5027 104.303 17.4248C104.303 24.1228 100.354 27.9153 96.252 27.9153C94.5477 27.9338 92.8434 27.0839 91.3746 25.3793ZM97.4899 17.5587C97.4899 14.3852 96.5661 13.0687 94.7786 13.0687C93.7717 13.0687 93.0004 13.4567 92.1459 14.4545V21.5868C92.823 22.2024 93.7114 22.5333 94.6262 22.5107C96.1735 22.5384 97.4899 21.2773 97.4899 17.5587Z" fill="#0160FE"/>
<path d="M107.55 20.6583V0.5271H114.21V20.8893C114.21 22.2058 114.829 22.5938 115.296 22.5938C115.529 22.6025 115.763 22.576 115.988 22.5153L116.764 27.3934C115.734 27.7883 114.634 27.972 113.531 27.9338C109.023 27.9338 107.55 24.9913 107.55 20.6583Z" fill="#0160FE"/>
<path d="M118.08 17.7902C118.08 11.5217 122.648 7.65063 127.368 7.65063C133.096 7.65063 135.807 11.8081 135.807 17.0187C135.812 17.9495 135.721 18.8783 135.534 19.7903H124.505C125.124 22.1 126.814 22.8899 128.994 22.8899C130.39 22.8559 131.752 22.4544 132.943 21.7259L135.11 25.6754C133.028 27.0891 130.581 27.869 128.066 27.9204C122.413 27.9343 118.08 24.2203 118.08 17.7902ZM130.154 15.4805C130.154 14.0069 129.535 12.7088 127.526 12.7088C126.052 12.7088 124.814 13.5634 124.426 15.4805H130.154Z" fill="#0160FE"/>
<path d="M11.0675 27.6984H8.75806C8.75806 27.5321 8.75806 27.3751 8.75806 27.2365C8.75806 22.6941 8.75806 18.1533 8.75806 13.614C8.76543 13.3701 8.73266 13.1266 8.66107 12.8934C8.59945 12.7171 8.47771 12.5682 8.31724 12.4727C8.15676 12.3772 7.96779 12.3414 7.7835 12.3714C7.59873 12.3864 7.42428 12.4627 7.28787 12.5883C7.15146 12.7138 7.06092 12.8814 7.03064 13.0643C6.98834 13.2679 6.96668 13.4753 6.96597 13.6833C6.96597 18.201 6.96597 22.7172 6.96597 27.2319V27.6938H5.24316V6.53711H18.7069V27.68H16.961V27.2411C16.961 22.6495 16.961 18.0578 16.961 13.4662C16.9894 13.299 16.9765 13.1274 16.9234 12.9664C16.8702 12.8053 16.7785 12.6597 16.6562 12.5423C16.538 12.4338 16.3907 12.3621 16.2325 12.3358C16.0742 12.3096 15.9117 12.3299 15.7648 12.3945C15.6028 12.4546 15.4618 12.5604 15.3585 12.6989C15.2553 12.8374 15.1942 13.0028 15.1828 13.1751C15.1758 13.2859 15.1758 13.397 15.1828 13.5077V27.6846H12.8734V13.4985C12.9011 13.297 12.87 13.0917 12.784 12.9074C12.698 12.723 12.5606 12.5674 12.3884 12.4591C12.2518 12.3826 12.0971 12.3443 11.9405 12.3481C11.784 12.352 11.6313 12.3979 11.4986 12.481C11.3659 12.5642 11.258 12.6815 11.1862 12.8207C11.1144 12.9599 11.0814 13.1158 11.0906 13.2722V27.6984H11.0675Z" fill="#0160FE"/>
<path d="M11.8943 2.90206H1.50666C1.29685 2.92041 1.08638 2.87513 0.902665 2.77214C0.718949 2.66915 0.570504 2.51321 0.476669 2.32464C0.376347 2.13935 0.33581 1.92755 0.360618 1.7183C0.385427 1.50906 0.474367 1.31262 0.615234 1.15593C0.739267 1.01858 0.893577 0.912008 1.06594 0.844657C1.23831 0.777305 1.42399 0.751027 1.60827 0.767906H22.3928C22.5369 0.762979 22.6805 0.786804 22.8153 0.837992C22.9501 0.88918 23.0733 0.966706 23.1778 1.06604C23.2822 1.16538 23.3659 1.28454 23.4238 1.41656C23.4818 1.54858 23.5128 1.69082 23.5152 1.83498C23.5147 1.9789 23.4852 2.12123 23.4285 2.2535C23.3718 2.38577 23.289 2.50527 23.1851 2.60485C23.0812 2.70444 22.9584 2.78208 22.8238 2.83314C22.6893 2.8842 22.5459 2.90764 22.4021 2.90206C22.2912 2.90206 22.1804 2.90206 22.0695 2.90206H11.8943Z" fill="#0160FE"/>
<path d="M11.9461 5.48385H3.17043C3.01675 5.50021 2.86156 5.47292 2.72268 5.40511C2.5838 5.33729 2.46685 5.2317 2.38523 5.10044C2.32333 5.00133 2.28613 4.8888 2.27676 4.77231C2.26739 4.65583 2.28613 4.5388 2.33139 4.43106C2.37665 4.32333 2.44712 4.22804 2.53686 4.1532C2.62661 4.07837 2.733 4.02618 2.84711 4.00103C3.03818 3.95928 3.23357 3.94067 3.42908 3.9456H20.5555C20.7017 3.94628 20.8473 3.96332 20.9897 3.99641C21.1739 4.02806 21.338 4.13136 21.4462 4.28372C21.5544 4.43608 21.5979 4.6251 21.5671 4.80942C21.5509 4.98833 21.4686 5.15476 21.3362 5.2761C21.2037 5.39744 21.0308 5.46494 20.8512 5.46537C20.4816 5.46537 20.1075 5.46537 19.738 5.46537L11.9461 5.48385Z" fill="#0160FE"/>
</svg>
