<svg width="182" height="32" viewBox="0 0 182 32" fill="none" xmlns="http://www.w3.org/2000/svg">
<path d="M0.496094 28.5644C0.970556 27.3885 1.44502 26.2171 1.91504 25.0413L2.6999 23.0491C2.83736 23.1289 2.95709 23.1866 3.06794 23.262C5.17732 24.7014 7.61972 25.5767 10.1627 25.8046C11.5555 25.992 12.9728 25.8554 14.3043 25.4052C14.6838 25.292 15.0308 25.0894 15.3162 24.8146C15.6016 24.5398 15.8172 24.2007 15.9449 23.8256C16.1115 23.3466 16.0939 22.8225 15.8955 22.3558C15.6972 21.889 15.3322 21.513 14.8718 21.3008C13.8415 20.8055 12.7685 20.4044 11.6659 20.1027C9.83727 19.6711 8.0402 19.1152 6.28719 18.4388C5.21601 17.9973 4.21628 17.3992 3.32069 16.6639C2.04989 15.5484 1.25613 13.9868 1.10358 12.3021C0.797585 10.3959 1.0662 8.44178 1.87514 6.68908C2.48784 5.3862 3.39007 4.24071 4.51288 3.34016C5.63569 2.43962 6.94937 1.80788 8.35354 1.49314C10.4976 0.918277 12.7376 0.795852 14.9315 1.13348C17.1254 1.47111 19.2251 2.26138 21.0975 3.45434C22.1927 4.12436 22.1706 4.16441 21.7138 5.3447C21.1906 6.7084 20.6659 8.07198 20.1397 9.43567C20.0909 9.55991 20.0377 9.68423 19.9712 9.84841C19.6165 9.60436 19.2972 9.37794 18.9646 9.16051C16.8676 7.70599 14.3578 6.96686 11.8078 7.05285C10.6482 7.04424 9.52775 7.47191 8.66837 8.25098C7.78152 9.10736 7.5066 11.1617 9.11179 11.9871C10.334 12.567 11.6198 13.0018 12.943 13.2827C15.0407 13.7212 17.0664 14.4531 18.9602 15.4569C21.0398 16.646 22.481 18.3235 22.8135 20.7551C23.5008 25.7159 21.4522 29.7182 16.2287 31.2845C14.8189 31.6921 13.3595 31.9025 11.892 31.91C11.7433 31.9188 11.5952 31.9367 11.4486 31.9633H11.1648C11.0141 31.9633 10.8677 31.919 10.7214 31.9057C9.83457 31.8258 8.94772 31.7947 8.08748 31.6572C5.35657 31.291 2.75815 30.2561 0.522698 28.6443L0.496094 28.5644Z" fill="white"/>
<path d="M117.289 15.8297C117.919 16.1802 118.535 16.4642 119.085 16.8458C119.835 17.3711 120.47 18.045 120.949 18.8258C121.428 19.6067 121.741 20.4779 121.87 21.385C122.215 23.0758 122.074 24.83 121.462 26.4434C120.424 28.9859 118.438 30.4368 115.853 31.1068C114.779 31.3775 113.678 31.5191 112.571 31.5284C108.235 31.5728 103.898 31.5284 99.5568 31.5284H99.0469V1.36435H99.5169C103.8 1.36435 108.084 1.34217 112.376 1.36435C114.731 1.36435 116.961 1.90579 118.828 3.46769C119.587 4.09532 120.203 4.87799 120.635 5.76342C121.067 6.64884 121.305 7.61648 121.333 8.60144C121.509 10.4499 121.001 12.2987 119.905 13.7974C119.223 14.689 118.322 15.3891 117.289 15.8297ZM105.911 25.556C106.026 25.556 106.106 25.556 106.19 25.556C108.004 25.556 109.818 25.556 111.627 25.556C112.166 25.5451 112.703 25.4872 113.232 25.3828C114.292 25.1787 115.094 24.6241 115.312 23.5148C115.433 22.8923 115.461 22.2554 115.396 21.6247C115.294 20.613 114.815 19.7921 113.764 19.4992C113.129 19.3132 112.474 19.2058 111.813 19.1796C109.991 19.1397 108.159 19.1796 106.332 19.1796C106.199 19.1796 106.066 19.1796 105.911 19.1796V25.556ZM105.911 13.1318C105.955 13.1318 105.978 13.1762 106.004 13.1762C108.053 13.1496 110.101 13.1761 112.146 13.0785C113.259 13.0208 114.234 12.5373 114.553 11.3259C114.658 10.8695 114.697 10.4002 114.669 9.9326C114.673 9.38595 114.491 8.85399 114.154 8.42422C113.816 7.99444 113.343 7.69236 112.811 7.56754C112.428 7.45201 112.031 7.38642 111.631 7.37233C109.831 7.33684 108.031 7.33677 106.23 7.31015C105.907 7.31015 105.884 7.46109 105.884 7.71401C105.884 9.41345 105.884 11.1173 105.884 12.8168C105.889 12.9455 105.902 13.052 105.911 13.1496V13.1318Z" fill="white"/>
<path d="M169.657 19.2461V25.4051H181.922V31.5372H162.784V1.36426H181.913V7.4433H169.662V13.1228H170.163C173.684 13.1228 177.204 13.1228 180.721 13.1228C181.075 13.1228 181.2 13.1938 181.195 13.5665C181.173 15.3104 181.195 17.0542 181.195 18.798C181.195 19.1486 181.089 19.2417 180.752 19.2417C177.235 19.2417 173.715 19.2417 170.194 19.2417L169.657 19.2461Z" fill="white"/>
<path d="M89.7878 31.5386C89.6459 31.5386 89.5395 31.5607 89.433 31.5607C87.3401 31.5607 85.2471 31.5607 83.1586 31.5607C83.052 31.5738 82.9442 31.5478 82.8553 31.4874C82.7664 31.427 82.7024 31.3365 82.6753 31.2324C81.9658 29.3644 81.2342 27.5051 80.5291 25.6326C80.5021 25.5294 80.4388 25.4394 80.3508 25.3791C80.2629 25.3188 80.1562 25.2924 80.0502 25.3044C76.3255 25.3044 72.5978 25.3044 68.8671 25.3044C68.5523 25.3044 68.4459 25.433 68.3483 25.6948C67.6521 27.5229 66.9382 29.3466 66.2465 31.1791C66.2168 31.3023 66.1421 31.4098 66.037 31.4805C65.9319 31.5512 65.8041 31.5797 65.6789 31.5607C63.5993 31.5607 61.524 31.5607 59.4444 31.5607H59.001C59.1562 31.1791 59.2803 30.8463 59.4178 30.5224C63.4204 20.9381 67.4201 11.3522 71.4168 1.76493C71.4484 1.63454 71.527 1.52039 71.6374 1.44427C71.7478 1.36815 71.8824 1.33553 72.0154 1.35241C73.6117 1.37459 75.2036 1.35241 76.7955 1.35241C76.9152 1.33425 77.0373 1.35958 77.1399 1.42391C77.2424 1.48823 77.3184 1.58707 77.3542 1.70275C81.4514 11.5149 85.5531 21.3242 89.6592 31.1304C89.6902 31.2413 89.7301 31.3744 89.7878 31.5386ZM78.1213 19.3406L74.4498 9.7963C73.2038 13.0443 71.9977 16.1814 70.7827 19.354L78.1213 19.3406Z" fill="white"/>
<path d="M140.276 25.1301H151.73V31.5374H133.266V1.4043H140.276V25.1301Z" fill="white"/>
<path d="M47.2334 31.6174H44.6571V15.6435C44.6888 15.4172 44.6536 15.1864 44.5559 14.9799C44.4582 14.7733 44.3023 14.5999 44.1073 14.4809C43.953 14.396 43.7787 14.3542 43.6027 14.36C43.4267 14.3658 43.2555 14.4189 43.1071 14.5138C42.9588 14.6087 42.8387 14.7419 42.7595 14.8993C42.6804 15.0567 42.645 15.2324 42.6573 15.4082C42.6573 20.6352 42.6573 25.8651 42.6573 31.0981V31.604H40.0544C40.0544 31.422 40.0544 31.2446 40.0544 31.0671C40.0544 25.9643 40.0544 20.8602 40.0544 15.7544C40.0613 15.4528 40.0147 15.1524 39.9169 14.867C39.8323 14.6816 39.6865 14.5309 39.504 14.4404C39.3215 14.3499 39.1135 14.3251 38.9148 14.37C38.719 14.3869 38.5344 14.4685 38.3899 14.6018C38.2455 14.7351 38.1493 14.9127 38.1166 15.1066C38.0694 15.3344 38.0442 15.566 38.0413 15.7986C38.0413 20.8925 38.0413 25.985 38.0413 31.076V31.5951H36.1035V7.83398H51.2375V31.5951H49.2732V31.0937C49.2732 25.9288 49.2732 20.7669 49.2732 15.608C49.3008 15.4236 49.2834 15.2351 49.2224 15.0589C49.1614 14.8827 49.0586 14.7239 48.9228 14.5962C48.7886 14.4764 48.6228 14.3978 48.4452 14.3695C48.2675 14.3412 48.0855 14.3644 47.9207 14.4365C47.7455 14.5035 47.5923 14.6176 47.478 14.7665C47.3638 14.9153 47.2929 15.0929 47.2733 15.2795C47.2644 15.4036 47.2644 15.5283 47.2733 15.6524V31.6263L47.2334 31.6174Z" fill="white"/>
<path d="M43.6191 3.73413C39.711 3.73413 35.806 3.73413 31.9038 3.73413C31.6672 3.75453 31.4299 3.70273 31.2233 3.5855C31.0167 3.46827 30.8505 3.29111 30.7465 3.07743C30.6343 2.86931 30.5898 2.63134 30.6192 2.39669C30.6486 2.16204 30.7505 1.94254 30.9106 1.76859C31.0489 1.61204 31.2222 1.49014 31.4163 1.41305C31.6105 1.33596 31.82 1.30586 32.028 1.32487H45.4504C48.7051 1.32487 51.9598 1.32487 55.2057 1.32487C55.5348 1.32831 55.8579 1.41374 56.1457 1.57338C56.3574 1.71405 56.5159 1.9213 56.5963 2.16248C56.6766 2.40366 56.6741 2.66494 56.5892 2.90454C56.4936 3.13604 56.3348 3.33586 56.1308 3.48107C55.9269 3.62628 55.6861 3.71081 55.4363 3.72525C55.2988 3.72525 55.1613 3.72525 55.0239 3.72525L43.6191 3.73413Z" fill="white"/>
<path d="M43.6323 6.64054H33.7794C32.9724 6.64054 32.5112 5.9748 32.9325 5.36247C33.1279 5.14258 33.3921 4.99556 33.6819 4.9454C34.0119 4.90752 34.3451 4.90752 34.6751 4.9454H53.2191C53.4244 4.94458 53.6294 4.96406 53.831 5.00324C54.0371 5.04205 54.2195 5.16072 54.3383 5.33365C54.4571 5.50658 54.5027 5.71954 54.4651 5.926C54.4443 6.11984 54.3553 6.30014 54.2139 6.43428C54.0725 6.56843 53.8881 6.64783 53.6935 6.65831C53.5827 6.65831 53.4718 6.65831 53.361 6.65831L43.6323 6.64054Z" fill="white"/>
</svg>
