<svg width="203" height="52" viewBox="0 0 203 52" fill="none" xmlns="http://www.w3.org/2000/svg">
<path d="M26.8592 29.9055L24.3769 36.7391C24.2715 36.9422 24.2715 37.1535 24.3769 37.3566L28.7168 49.1549L33.6731 46.2541L27.6785 29.9055C27.5811 29.4911 27.062 29.4911 26.8592 29.9055Z" fill="#B1C0D2"/>
<path d="M31.8155 18.3186C31.71 17.9042 31.199 17.9042 30.9881 18.3186L28.5058 25.1521C28.4004 25.3553 28.4004 25.5666 28.5058 25.7697L35.5307 45.1248L40.4871 42.224L31.8155 18.3186Z" fill="#B1C0D2"/>
<path d="M22.9323 3.31067C23.0377 3.31067 23.135 3.31067 23.2405 3.4163L42.2466 14.3858C42.4494 14.4914 42.5549 14.6946 42.5549 15.0034V36.9424C42.5549 37.1455 42.4494 37.4624 42.2466 37.5599L23.2405 48.5294C23.135 48.6351 23.0377 48.6351 22.9323 48.6351C22.8268 48.6351 22.7295 48.6351 22.624 48.5294L3.61789 37.5599C3.4151 37.4543 3.30964 37.2511 3.30964 36.9424V15.0034C3.30964 14.8002 3.4151 14.4833 3.61789 14.3858L22.624 3.4163C22.7213 3.31067 22.8268 3.31067 22.9323 3.31067ZM22.9323 0.101074C22.2103 0.101074 21.5857 0.304213 20.9692 0.62111L1.96307 11.5906C0.721956 12.3138 0 13.557 0 15.0034V36.9424C0 38.2912 0.721956 39.6319 1.96307 40.3551L20.9692 51.3246C21.5857 51.6334 22.2103 51.8447 22.9323 51.8447C23.6542 51.8447 24.2788 51.6415 24.8953 51.3246L43.9014 40.3551C45.1425 39.6319 45.8645 38.3887 45.8645 36.9424V15.0034C45.8645 13.6545 45.1425 12.3138 43.9014 11.5906L24.9927 0.62111C24.3762 0.312339 23.7516 0.101074 23.0296 0.101074H22.9323Z" fill="#B1C0D2"/>
<path d="M21.3829 13.4514H16.5239C16.2157 13.4514 15.802 13.6545 15.6965 13.9714L5.37012 42.3215L10.3265 45.2223L21.6912 14.0689C21.7967 13.7602 21.5857 13.4514 21.2775 13.4514H21.3829Z" fill="#B1C0D2"/>
<path d="M29.7458 13.4514H24.8868C24.5785 13.4514 24.1648 13.6545 24.0594 13.9714L12.2891 46.2543L17.2454 49.1551L30.0541 13.9714C30.1595 13.6627 29.9486 13.3539 29.6403 13.3539L29.7458 13.4514Z" fill="#B1C0D2"/>
<path d="M66.3229 19.3506C66.842 19.3506 67.2557 19.4562 67.564 19.6594C67.8722 19.8625 68.1805 20.2769 68.4968 20.7969L74.7998 32.1808C74.9052 32.2865 74.9052 32.384 74.7998 32.4896C74.7998 32.5953 74.6943 32.5953 74.4915 32.5953H72.1147C71.9119 32.5953 71.8065 32.4896 71.701 32.3921L70.3463 29.9057H61.4638L60.1173 32.3921C60.0118 32.5953 59.9145 32.5953 59.7036 32.5953H57.2213C57.0185 32.5953 56.9131 32.5953 56.9131 32.4896C56.9131 32.384 56.9131 32.2865 56.9131 32.1808L63.1105 20.7969C63.4188 20.1794 63.7271 19.8625 64.0434 19.6594C64.3598 19.4562 64.6599 19.3506 65.0736 19.3506H66.2093H66.3229ZM62.5995 27.7362H69.1052L66.1119 22.1458C66.0065 22.0401 66.0065 22.0401 65.9091 22.0401H65.8037C65.6982 22.0401 65.6009 22.0401 65.6009 22.1458L62.5995 27.7362Z" fill="#B1C0D2"/>
<path d="M88.5344 19.3506C89.9783 19.3506 91.0167 19.6594 91.6332 20.3825C92.2497 21.0001 92.566 22.0401 92.566 23.2834V24.3153C92.566 25.4529 92.3632 26.2817 91.9495 26.8992C91.5358 27.5168 90.8139 27.9312 89.7837 28.1424L92.9878 32.1808C93.0933 32.2865 93.0933 32.384 93.0933 32.4896C93.0933 32.5953 92.9878 32.6928 92.7851 32.6928H90.3028C90.1 32.6928 89.9946 32.6928 89.9946 32.5871C89.8891 32.5871 89.8891 32.4815 89.7918 32.384L86.7985 28.4512H80.7065V32.2784C80.7065 32.5871 80.601 32.6928 80.2928 32.6928H78.2243C77.916 32.6928 77.8105 32.5871 77.8105 32.2784V19.9681C77.8105 19.5537 78.0133 19.3506 78.427 19.3506H88.6561H88.5344ZM80.6821 26.1761H87.9098C88.5263 26.1761 89.0455 26.0704 89.2564 25.7617C89.5646 25.4529 89.6701 25.0385 89.6701 24.5184V23.6896C89.6701 23.0721 89.5646 22.6577 89.2564 22.4464C88.9481 22.1377 88.5344 22.032 87.9098 22.032H80.8849C80.6821 22.032 80.6821 22.1377 80.6821 22.2352V26.1761Z" fill="#B1C0D2"/>
<path d="M108.471 19.3506C109.817 19.3506 110.742 19.6594 111.261 20.1794C111.78 20.6994 112.088 21.5282 112.088 22.5602V23.4946C112.088 24.5266 111.675 25.3554 110.847 25.8754C111.675 26.3954 112.194 27.2243 112.194 28.3618V29.4994C112.194 30.0194 112.088 30.4339 111.991 30.8483C111.894 31.2627 111.683 31.5714 111.472 31.8802C111.164 32.189 110.855 32.4002 110.442 32.4977C110.028 32.6034 109.509 32.7009 108.892 32.7009H97.6331C97.2194 32.7009 97.0166 32.4977 97.0166 32.0833V19.9763C97.0166 19.5619 97.2194 19.3587 97.6331 19.3587H108.584H108.471V19.3506ZM99.8963 24.8353H107.643C108.26 24.8353 108.673 24.7297 108.884 24.5266C109.095 24.3234 109.193 24.1122 109.193 23.6978V23.0802C109.193 22.6658 109.087 22.357 108.884 22.2514C108.681 22.0483 108.268 21.9426 107.854 21.9426H100.107C99.9044 21.9426 99.9044 22.0483 99.9044 22.1458V24.8353H99.8963ZM99.8963 26.9074V29.7026C99.8963 29.9057 100.002 29.9057 100.099 29.9057H107.846C108.365 29.9057 108.673 29.8001 108.876 29.5969C109.079 29.3938 109.184 29.0769 109.184 28.7681V28.0449C109.184 27.6305 109.079 27.3218 108.876 27.1105C108.673 26.8992 108.26 26.8017 107.53 26.8017H99.7909L99.8963 26.9074Z" fill="#B1C0D2"/>
<path d="M119.212 19.3506C119.52 19.3506 119.625 19.4562 119.625 19.765V32.1808C119.625 32.4896 119.52 32.5953 119.212 32.5953H117.143C116.835 32.5953 116.729 32.4896 116.729 32.1808V19.765C116.729 19.4562 116.835 19.3506 117.143 19.3506H119.212Z" fill="#B1C0D2"/>
<path d="M139.152 19.3506C139.46 19.3506 139.565 19.4562 139.565 19.765V21.6257C139.565 21.9345 139.46 22.0401 139.152 22.0401H133.157V32.1808C133.157 32.4896 133.051 32.5953 132.743 32.5953H130.675C130.366 32.5953 130.261 32.4896 130.261 32.1808V22.0401H124.266C123.958 22.0401 123.853 21.9345 123.853 21.6257V19.765C123.853 19.4562 123.958 19.3506 124.266 19.3506H139.038H139.152Z" fill="#B1C0D2"/>
<path d="M154.134 19.3506C155.578 19.3506 156.616 19.6594 157.233 20.3825C157.849 21.0001 158.166 22.0401 158.166 23.2834V24.3153C158.166 25.4529 157.963 26.2817 157.549 26.8992C157.135 27.5168 156.413 27.9312 155.383 28.1424L158.587 32.1808C158.693 32.2865 158.693 32.384 158.693 32.4896C158.693 32.5953 158.587 32.6928 158.385 32.6928H155.902C155.7 32.6928 155.594 32.6928 155.594 32.5871C155.489 32.5871 155.489 32.4815 155.391 32.384L152.398 28.4512H146.306V32.2784C146.306 32.5871 146.201 32.6928 145.892 32.6928H143.824C143.516 32.6928 143.41 32.5871 143.41 32.2784V19.9681C143.41 19.5537 143.613 19.3506 144.027 19.3506H154.256H154.134ZM146.282 26.1761H153.509C154.126 26.1761 154.645 26.0704 154.856 25.7617C155.164 25.4529 155.27 25.0385 155.27 24.5184V23.6896C155.27 23.0721 155.164 22.6577 154.856 22.4464C154.548 22.1377 154.134 22.032 153.509 22.032H146.485C146.282 22.032 146.282 22.1377 146.282 22.2352V26.1761Z" fill="#B1C0D2"/>
<path d="M164.777 19.3506C165.085 19.3506 165.191 19.4562 165.191 19.765V27.3218C165.191 27.8418 165.191 28.2562 165.296 28.565C165.401 28.8737 165.499 29.1825 165.71 29.3938C165.921 29.605 166.123 29.7026 166.432 29.8082C166.74 29.9138 167.154 29.9138 167.673 29.9138H172.945C173.465 29.9138 173.878 29.9138 174.187 29.8082C174.495 29.7026 174.803 29.605 174.909 29.3938C175.111 29.1906 175.217 28.8737 175.322 28.565C175.428 28.2562 175.428 27.8418 175.428 27.3218V19.765C175.428 19.4562 175.533 19.3506 175.841 19.3506H177.91C178.218 19.3506 178.324 19.4562 178.324 19.765V27.6305C178.324 28.565 178.218 29.2881 178.015 29.9057C177.813 30.5232 177.496 31.0433 177.083 31.4577C176.669 31.8721 176.15 32.1808 175.428 32.2865C174.706 32.4896 173.984 32.5953 172.945 32.5953H167.47C166.537 32.5953 165.71 32.4896 164.988 32.2865C164.371 32.0833 163.747 31.7664 163.333 31.4577C162.919 31.0433 162.611 30.5232 162.4 29.9057C162.197 29.2881 162.092 28.4593 162.092 27.6305V19.765C162.092 19.4562 162.197 19.3506 162.506 19.3506H164.574H164.777Z" fill="#B1C0D2"/>
<path d="M186.468 19.3506C186.776 19.3506 186.987 19.3506 187.189 19.4562C187.392 19.4562 187.603 19.5619 187.709 19.6594C187.814 19.765 188.017 19.8625 188.122 20.0738C188.228 20.2769 188.325 20.4882 188.536 20.7969L192.462 29.9057C192.568 30.0113 192.568 30.1088 192.77 30.1088H192.973C193.079 30.1088 193.176 30.0032 193.281 29.9057L197.208 20.7969C197.313 20.4882 197.41 20.2769 197.621 20.0738C197.727 19.8706 197.824 19.765 198.035 19.6594C198.14 19.5537 198.343 19.4562 198.554 19.4562C198.765 19.4562 198.968 19.3506 199.276 19.3506H201.345C201.961 19.3506 202.48 19.4562 202.691 19.765C202.894 20.0738 203 20.5938 203 21.317V32.1808C203 32.4896 202.894 32.5953 202.586 32.5953H200.623C200.314 32.5953 200.209 32.4896 200.209 32.1808V22.2514C200.209 22.1458 200.104 22.0483 200.104 22.0483H199.901C199.795 22.0483 199.698 22.1539 199.698 22.1539L195.877 30.637C195.772 30.9458 195.569 31.2545 195.358 31.4658C195.147 31.6771 195.05 31.8802 194.839 32.0833C194.636 32.189 194.425 32.3921 194.222 32.3921C194.02 32.4977 193.703 32.4977 193.395 32.4977H192.462C192.154 32.4977 191.846 32.4977 191.635 32.3921C191.424 32.2865 191.221 32.189 191.018 32.0833C190.815 31.9777 190.71 31.7746 190.499 31.4658C190.296 31.2627 190.191 30.9458 189.98 30.637L186.159 22.1539C186.159 22.0483 186.054 22.0483 185.956 22.0483H185.754C185.648 22.0483 185.648 22.1539 185.648 22.2514V32.189C185.648 32.4977 185.543 32.6034 185.235 32.6034H183.263C182.955 32.6034 182.85 32.4977 182.85 32.189V21.317C182.85 20.5938 182.955 20.0738 183.158 19.765C183.361 19.4562 183.88 19.3506 184.504 19.3506H186.573H186.468Z" fill="#B1C0D2"/>
</svg>
