<svg width="259" height="44" viewBox="0 0 259 44" fill="none" xmlns="http://www.w3.org/2000/svg">
<path fill-rule="evenodd" clip-rule="evenodd" d="M28.0657 15.687C28.302 15.2785 28.4264 14.815 28.4264 14.3433C28.4264 13.8715 28.302 13.4081 28.0657 12.9995L24.0743 6.09803C23.838 5.68951 23.4982 5.35027 23.089 5.11442C22.6797 4.87856 22.2155 4.75439 21.743 4.75439C21.2705 4.75439 20.8063 4.87856 20.3971 5.11442C19.9878 5.35027 19.648 5.68951 19.4117 6.09803L3.91633 32.8888C3.68006 33.2974 3.55567 33.7608 3.55566 34.2325C3.55566 34.7043 3.68004 35.1677 3.91631 35.5763C4.15258 35.9848 4.49241 36.3241 4.90164 36.56C5.31087 36.7959 5.77509 36.9201 6.24764 36.9201H14.2304C14.7033 36.9204 15.1679 36.7963 15.5774 36.5604C15.987 36.3246 16.3271 35.9851 16.5635 35.5763L28.0657 15.687ZM37.2366 36.9219C37.7093 36.9222 38.1737 36.7982 38.5832 36.5625C38.9927 36.3267 39.3328 35.9875 39.5693 35.5789C39.8058 35.1703 39.9303 34.7067 39.9304 34.2348C39.9304 33.7629 39.8061 33.2993 39.5697 32.8906L33.9451 23.1654C33.7088 22.7569 33.369 22.4177 32.9598 22.1818C32.5506 21.946 32.0864 21.8218 31.6138 21.8218C31.1413 21.8218 30.6771 21.946 30.2679 22.1818C29.8586 22.4177 29.5188 22.7569 29.2825 23.1654L23.658 32.8906C23.4217 33.2992 23.2973 33.7626 23.2973 34.2343C23.2973 34.7061 23.4217 35.1695 23.6579 35.5781C23.8942 35.9866 24.234 36.3259 24.6433 36.5618C25.0525 36.7977 25.5167 36.9218 25.9893 36.9219H37.2384H37.2366Z" fill="#B1C0D2"/>
<path d="M71.9796 31.5443L69.9591 26.8971H61.7327L59.6256 31.5443H56.4505L66.0336 11.166L75.1547 31.5443H71.9796ZM62.9451 24.1261H68.7757L65.9181 17.6028L62.9451 24.1261ZM79.8409 12.2917H83.016L88.3848 25.7137L93.7536 12.2917H96.9287L88.3848 32.7855L79.8409 12.2917ZM117.126 31.5443L115.105 26.8971H106.879L104.772 31.5443H101.596L111.179 11.166L120.301 31.5443H117.126ZM108.091 24.1261H113.922L111.064 17.6028L108.091 24.1261ZM128.505 12.2917H131.45V28.7733H137.107V31.5443H128.505V12.2917ZM159.255 31.5443L157.235 26.8971H149.008L146.901 31.5443H143.726L153.309 11.166L162.43 31.5443H159.255ZM150.221 24.1261H156.051L153.194 17.6028L150.221 24.1261ZM173.579 31.5443H170.635V10.9928L184.606 25.6271V12.2917H187.55V32.7278L173.579 18.0935V31.5443ZM212.203 13.3308V16.7945C210.067 14.8606 208.075 14.6586 206.978 14.6586C202.793 14.6586 199.964 17.7471 199.964 21.9902C199.964 26.0601 202.908 29.2063 207.007 29.2063C209.316 29.2063 211.106 28.0228 212.203 26.9837V30.4763C210.269 31.6309 208.248 31.9196 206.921 31.9196C203.428 31.9196 201.234 30.332 200.109 29.264C197.857 27.1569 197.02 24.7034 197.02 21.9902C197.02 18.4398 198.492 15.9863 200.109 14.4565C202.1 12.5803 204.409 11.9453 207.065 11.9453C208.826 11.9453 210.529 12.2628 212.203 13.3308ZM224.56 12.2917V19.9119H232.815V12.2917H235.76V31.5443H232.815V22.6829H224.56V31.5443H221.616V12.2917H224.56ZM256.784 12.2917V15.0627H249.106V19.9408H256.553V22.7118H249.106V28.7733H256.784V31.5443H246.162V12.2917H256.784Z" fill="#B1C0D2"/>
</svg>
