<?xml version="1.0" encoding="utf-8"?>
<!-- Generator: Adobe Illustrator 27.6.1, SVG Export Plug-In . SVG Version: 6.00 Build 0)  -->
<svg version="1.1" id="Vrstva_1" xmlns="http://www.w3.org/2000/svg" xmlns:xlink="http://www.w3.org/1999/xlink" x="0px" y="0px"
	 viewBox="0 0 1200 800" style="enable-background:new 0 0 1200 800;" xml:space="preserve">
<style type="text/css">
	.st0{fill:#BFCBDA;}
	.st1{opacity:0.6;fill:#BFCBDA;enable-background:new    ;}
	.st2{opacity:0.45;fill:#BFCBDA;enable-background:new    ;}
	.st3{opacity:0.8;fill:#BFCBDA;enable-background:new    ;}
</style>
<path class="st0" d="M400.2,417.4c0,1.6-1.4,3-3.1,3h-56.7c1.5,14,12,26.8,26.8,26.8c10.2,0,17.7-3.8,23.3-12
	c0.6-0.9,1.5-1.5,2.5-1.5c1.6,0,2.8,1.2,2.8,2.8c0,0.6-0.2,1-0.4,1.5c-5.7,9.9-17.1,14.8-28.2,14.8c-19.1,0-32.7-17.1-32.7-35.3
	c0-18.3,13.6-35.3,32.7-35.3C386.3,382.3,400.1,399.2,400.2,417.4L400.2,417.4z M394.1,414.8c-1.2-14-12-26.8-26.8-26.8
	c-14.9,0-25.4,12.8-26.8,26.8H394.1z M469,383.7c1.6,0,2.8,1.5,2.8,2.8c0,1.6-1.2,2.8-2.8,2.8h-15.2v59.7c0,1.5-1.2,2.8-2.8,2.8
	c-1.6,0-2.8-1.5-2.8-2.8v-59.7h-14.6c-1.6,0-2.8-1.2-2.8-2.8c0-1.5,1.2-2.8,2.8-2.8h14.6v-21.8c0-1.5,1.1-2.8,2.6-3
	c1.8-0.2,3.2,1.1,3.2,2.8v22H469z M561.8,412.6v36.2c0,1.6-1.5,2.8-2.8,2.8c-1.6,0-2.8-1.2-2.8-2.8v-36.2c0-12.2-6.9-24.4-20.5-24.4
	c-17.4,0-25,15.2-23.9,30.9c0,0.4,0.2,2.2,0.2,2.5v27.1c0,1.5-1.1,2.8-2.6,3c-1.8,0.2-3.2-1.1-3.2-2.8V329.9c0-1.5,1.2-2.8,2.8-2.8
	s2.8,1.5,2.8,2.8v67.2c4.9-8.7,13.6-14.6,23.8-14.6C552.3,382.5,561.8,397.1,561.8,412.6z M663.6,417.4c0,1.6-1.4,3-3.1,3h-56.7
	c1.5,14,12,26.8,26.8,26.8c10.2,0,17.7-3.8,23.3-12c0.6-0.9,1.5-1.5,2.5-1.5c1.6,0,2.8,1.2,2.8,2.8c0,0.6-0.2,1-0.4,1.5
	c-5.7,9.9-17.1,14.8-28.2,14.8c-19.1,0-32.7-17.1-32.7-35.3c0-18.3,13.6-35.3,32.7-35.3C649.7,382.3,663.4,399.2,663.6,417.4
	L663.6,417.4z M657.4,414.8c-1.2-14-12-26.8-26.8-26.8c-14.8,0-25.4,12.8-26.8,26.8H657.4z M733.2,386.3c0,1.8-1,2.8-2.6,3.1
	c-16.7,2.5-24.2,16.1-24.2,31.9v27.1c0,1.5-1.1,2.8-2.6,3c-1.8,0.2-3.2-1.1-3.2-2.8v-61.8c0-1.5,1.1-2.8,2.6-3
	c1.8-0.2,3.2,1.1,3.2,2.8v12.6c4.7-7.9,14-15.5,23.8-15.5C731.5,383.7,733.2,384.7,733.2,386.3L733.2,386.3z M826.4,417.4
	c0,1.6-1.4,3-3.1,3h-56.7c1.5,14,12,26.8,26.8,26.8c10.2,0,17.7-3.8,23.3-12c0.6-0.9,1.5-1.5,2.5-1.5c1.6,0,2.8,1.2,2.8,2.8
	c0,0.6-0.2,1-0.4,1.5c-5.7,9.9-17.1,14.8-28.2,14.8c-19.1,0-32.7-17.1-32.7-35.3c0-18.3,13.6-35.3,32.7-35.3
	C812.6,382.3,826.3,399.2,826.4,417.4L826.4,417.4z M820.3,414.8c-1.2-14-12-26.8-26.8-26.8c-14.9,0-25.4,12.8-26.8,26.8H820.3z
	 M918,387v62.1c0,1.6-1.5,2.8-2.8,2.8c-1.6,0-2.8-1.2-2.8-2.8v-11.8c-4.7,9.3-13,16.1-23.6,16.1c-16.8,0-26.2-14.6-26.2-30.1v-36.3
	c0-1.5,1.2-2.8,2.8-2.8s2.8,1.5,2.8,2.8v36.3c0,12.2,6.9,24.4,20.5,24.4c19.1,0,23.6-17.9,23.6-37.6v-23.2c0-1.7,1.8-3.4,3.8-2.6
	C917.3,384.7,918,385.8,918,387L918,387z M1061.5,412.3v36.3c0,1.6-1.5,2.8-2.8,2.8c-1.6,0-2.8-1.2-2.8-2.8v-36.3
	c0-12.2-6.9-24.2-20.5-24.2c-17.1,0-23.6,18.3-23.6,32.5v28c0,1.6-1.5,2.8-2.8,2.8c-1.6,0-2.8-1.2-2.8-2.8v-36.3
	c0-12.2-6.9-24.2-20.5-24.2c-17.3,0-24.4,13.6-23.8,31.7c0,0.4,0.2,1.2,0,1.5v27.3c0,1.5-1.1,2.8-2.6,3c-1.8,0.2-3.2-1.1-3.2-2.8
	v-62c0-1.5,1.1-2.8,2.6-3c1.8-0.2,3.2,1.1,3.2,2.8v10.3c4.9-8.7,13.6-14.4,23.8-14.4c11.5,0,20.5,7.4,24.2,18
	c4.7-10.6,13.8-18,25.6-18C1052.1,382.5,1061.5,396.9,1061.5,412.3L1061.5,412.3z"/>
<path class="st1" d="M209.4,444.1l71-42l-71-32.2l-70.9,32.2L209.4,444.1z"/>
<path class="st2" d="M209.4,369.9v-85.6l-70.9,117.8l70.9,42V369.9z"/>
<path class="st3" d="M209.4,444.1l71-42l-71-117.8v85.6V444.1z"/>
<path class="st2" d="M209.4,457.5l-70.9-41.9l70.9,100V457.5z"/>
<path class="st3" d="M280.4,415.6l-71,41.9v58.1L280.4,415.6z"/>
</svg>
