<svg width="208" height="51" viewBox="0 0 208 51" fill="none" xmlns="http://www.w3.org/2000/svg">
<path d="M15.305 0.101532L14.9707 1.24087V34.3018L15.305 34.6364L30.6107 25.5651L15.305 0.101532Z" fill="#9BA7B5"/>
<path d="M15.3057 0.101288L0 25.5649L15.3057 34.6363V18.5895V0.101288Z" fill="#B1C0D2"/>
<path d="M15.3056 37.5428L15.1172 37.7731V49.5501L15.3056 50.1019L30.6204 28.4761L15.3056 37.5428Z" fill="#9BA7B5"/>
<path d="M15.3057 50.101V37.5419L0 28.4751L15.3057 50.101Z" fill="#B1C0D2"/>
<path d="M15.3057 34.6367L30.6111 25.5656L15.3057 18.5902V34.6367Z" fill="#8B9CAF"/>
<path d="M0 25.5656L15.3055 34.6368V18.5902L0 25.5656Z" fill="#8B9CAF"/>
<path d="M61.5875 30.7578H51.7498C51.8344 31.8853 52.2009 32.7826 52.8492 33.4497C53.4975 34.1075 54.329 34.4363 55.3438 34.4363C56.1331 34.4363 56.7861 34.2484 57.3029 33.8726C57.8103 33.4967 58.3881 32.8014 59.0364 31.7866L61.7143 33.2806C61.3009 33.9853 60.864 34.5913 60.4036 35.0987C59.9432 35.5967 59.4499 36.0101 58.9237 36.339C58.3975 36.6585 57.8291 36.8934 57.2183 37.0437C56.6076 37.194 55.9452 37.2692 55.2311 37.2692C53.1827 37.2692 51.5384 36.6115 50.2982 35.296C49.0579 33.9712 48.4378 32.2142 48.4378 30.0249C48.4378 27.8544 49.0391 26.0974 50.2418 24.7537C51.4539 23.4289 53.0606 22.7665 55.0619 22.7665C57.0821 22.7665 58.6794 23.4101 59.8539 24.6974C61.019 25.9752 61.6015 27.7464 61.6015 30.0108L61.5875 30.7578ZM58.3317 28.1645C57.8901 26.4732 56.8237 25.6276 55.1324 25.6276C54.7472 25.6276 54.3854 25.6886 54.0472 25.8108C53.7089 25.9235 53.3988 26.0927 53.117 26.3182C52.8445 26.5343 52.6096 26.7974 52.4123 27.1074C52.2149 27.4175 52.0646 27.7699 51.9613 28.1645H58.3317ZM74.3651 26.1068V36.8746H71.1939V26.1068H69.8409V23.147H71.1939V18.1155H74.3651V23.147H76.8315V26.1068H74.3651ZM85.3528 13.0698H88.5239V24.2886C89.6514 23.2739 90.8964 22.7665 92.2588 22.7665C93.8092 22.7665 95.0494 23.2692 95.9796 24.2745C96.7689 25.1484 97.1635 26.5437 97.1635 28.4605V36.8746H93.9924V28.7564C93.9924 27.6571 93.7951 26.8631 93.4004 26.3745C93.0152 25.8766 92.3904 25.6276 91.5259 25.6276C90.4172 25.6276 89.6373 25.9705 89.1863 26.6564C88.7447 27.3517 88.5239 28.545 88.5239 30.2363V36.8746H85.3528V13.0698ZM119.469 30.7578H109.631C109.716 31.8853 110.082 32.7826 110.73 33.4497C111.379 34.1075 112.21 34.4363 113.225 34.4363C114.014 34.4363 114.667 34.2484 115.184 33.8726C115.691 33.4967 116.269 32.8014 116.918 31.7866L119.596 33.2806C119.182 33.9853 118.745 34.5913 118.285 35.0987C117.824 35.5967 117.331 36.0101 116.805 36.339C116.279 36.6585 115.71 36.8934 115.1 37.0437C114.489 37.194 113.826 37.2692 113.112 37.2692C111.064 37.2692 109.42 36.6115 108.179 35.296C106.939 33.9712 106.319 32.2142 106.319 30.0249C106.319 27.8544 106.92 26.0974 108.123 24.7537C109.335 23.4289 110.942 22.7665 112.943 22.7665C114.963 22.7665 116.561 23.4101 117.735 24.6974C118.9 25.9752 119.483 27.7464 119.483 30.0108L119.469 30.7578ZM116.213 28.1645C115.771 26.4732 114.705 25.6276 113.014 25.6276C112.628 25.6276 112.267 25.6886 111.928 25.8108C111.59 25.9235 111.28 26.0927 110.998 26.3182C110.726 26.5343 110.491 26.7974 110.293 27.1074C110.096 27.4175 109.946 27.7699 109.842 28.1645H116.213ZM128.723 23.147H131.894V24.3732C132.477 23.7625 132.993 23.3443 133.444 23.1188C133.905 22.8839 134.45 22.7665 135.079 22.7665C135.915 22.7665 136.789 23.039 137.701 23.5839L136.249 26.4873C135.648 26.0551 135.06 25.839 134.487 25.839C132.758 25.839 131.894 27.145 131.894 29.7571V36.8746H128.723V23.147ZM157.596 30.7578H147.758C147.843 31.8853 148.209 32.7826 148.857 33.4497C149.506 34.1075 150.337 34.4363 151.352 34.4363C152.141 34.4363 152.794 34.2484 153.311 33.8726C153.819 33.4967 154.396 32.8014 155.045 31.7866L157.723 33.2806C157.309 33.9853 156.872 34.5913 156.412 35.0987C155.951 35.5967 155.458 36.0101 154.932 36.339C154.406 36.6585 153.837 36.8934 153.227 37.0437C152.616 37.194 151.953 37.2692 151.239 37.2692C149.191 37.2692 147.547 36.6115 146.306 35.296C145.066 33.9712 144.446 32.2142 144.446 30.0249C144.446 27.8544 145.047 26.0974 146.25 24.7537C147.462 23.4289 149.069 22.7665 151.07 22.7665C153.09 22.7665 154.688 23.4101 155.862 24.6974C157.027 25.9752 157.61 27.7464 157.61 30.0108L157.596 30.7578ZM154.34 28.1645C153.898 26.4732 152.832 25.6276 151.141 25.6276C150.755 25.6276 150.394 25.6886 150.055 25.8108C149.717 25.9235 149.407 26.0927 149.125 26.3182C148.853 26.5343 148.618 26.7974 148.421 27.1074C148.223 27.4175 148.073 27.7699 147.97 28.1645H154.34ZM170.021 23.147V31.0256C170.021 33.2994 170.918 34.4363 172.713 34.4363C174.508 34.4363 175.405 33.2994 175.405 31.0256V23.147H178.576V31.096C178.576 32.1954 178.44 33.1444 178.167 33.943C177.904 34.6571 177.449 35.3007 176.8 35.8739C175.729 36.8041 174.367 37.2692 172.713 37.2692C171.069 37.2692 169.711 36.8041 168.64 35.8739C167.982 35.3007 167.517 34.6571 167.245 33.943C166.981 33.3041 166.85 32.3551 166.85 31.096V23.147H170.021ZM188.352 23.147H191.523V24.4155C192.134 23.7766 192.655 23.3443 193.087 23.1188C193.548 22.8839 194.126 22.7665 194.821 22.7665C196.371 22.7665 197.597 23.443 198.499 24.796C199.495 23.443 200.844 22.7665 202.544 22.7665C205.636 22.7665 207.181 24.641 207.181 28.39V36.8746H203.996V29.2497C203.996 27.9343 203.836 27.0041 203.517 26.4591C203.188 25.9047 202.648 25.6276 201.896 25.6276C201.022 25.6276 200.383 25.9564 199.979 26.6141C199.585 27.2719 199.387 28.3289 199.387 29.7853V36.8746H196.202V29.292C196.202 26.849 195.497 25.6276 194.088 25.6276C193.195 25.6276 192.542 25.9611 192.129 26.6282C191.725 27.2954 191.523 28.3477 191.523 29.7853V36.8746H188.352V23.147Z" fill="#B1C0D2"/>
</svg>
